<svg xmlns="http://www.w3.org/2000/svg" width="30" height="30" viewBox="0 0 10 10"><path fill="#ABABAB" d="M6.438 5.16a.222.222 0 0 1 0-.32l3.425-3.425c.091-.091.137-.228.137-.319s-.046-.228-.137-.32l-.64-.639A.49.49 0 0 0 8.904 0a.416.416 0 0 0-.32.137L5.16 3.562a.22.22 0 0 1-.319 0L1.416.137C1.324.046 1.187 0 1.096 0S.868.046.776.137L.137.776C.046.868 0 1.004 0 1.096s.046.229.137.32L3.562 4.84a.222.222 0 0 1 0 .32L.137 8.584c-.091.092-.137.229-.137.32s.046.229.137.319l.639.64c.092.091.228.137.32.137s.229-.046.32-.137L4.84 6.438a.22.22 0 0 1 .319 0l3.424 3.425c.093.091.23.137.321.137s.229-.046.319-.137l.64-.64c.091-.09.137-.227.137-.319s-.046-.229-.137-.32L6.438 5.16z"></path></svg>
