<?xml version="1.0" encoding="utf-8"?>
<!-- Generator: Adobe Illustrator 16.0.0, SVG Export Plug-In . SVG Version: 6.00 Build 0)  -->
<!DOCTYPE svg PUBLIC "-//W3C//DTD SVG 1.1//EN" "http://www.w3.org/Graphics/SVG/1.1/DTD/svg11.dtd">
<svg version="1.1" id="Layer_1" xmlns="http://www.w3.org/2000/svg" xmlns:xlink="http://www.w3.org/1999/xlink" x="0px" y="0px"
	 width="12px" height="10px" viewBox="0 0 12 10" enable-background="new 0 0 12 10" xml:space="preserve">
<g opacity="0.9">
	<path fill="#404141" d="M2.026,9.592c0,0-0.009,0.244,0.229,0.244c0.296,0,2.752-0.004,2.752-0.004L5.01,7.577
		c0,0-0.039-0.371,0.322-0.371h1.142c0.426,0,0.4,0.371,0.4,0.371L6.87,9.825c0,0,2.328,0,2.692,0c0.304,0,0.29-0.303,0.29-0.303
		V5.365L6.057,1.988L2.026,5.365V9.592z"/>
	<path fill="#404141" d="M0.542,5.05c0,0,0.342,0.631,1.088,0l4.459-3.772l4.181,3.75c0.864,0.623,1.188,0,1.188,0L6.089,0.164
		L0.542,5.05z"/>
	<polygon fill="#404141" points="10.17,1.27 9.094,1.27 9.098,2.573 10.17,3.481 	"/>
</g>
</svg>
