<?xml version="1.0" encoding="utf-8"?>
<!-- Generator: Adobe Illustrator 16.0.0, SVG Export Plug-In . SVG Version: 6.00 Build 0)  -->
<!DOCTYPE svg PUBLIC "-//W3C//DTD SVG 1.1//EN" "http://www.w3.org/Graphics/SVG/1.1/DTD/svg11.dtd">
<svg version="1.1" id="Layer_1" xmlns="http://www.w3.org/2000/svg" xmlns:xlink="http://www.w3.org/1999/xlink" x="0px" y="0px"
	 width="8px" height="11px" viewBox="0 0 8 11" enable-background="new 0 0 8 11" xml:space="preserve">
<g opacity="0.7">
	<path d="M7.395,0.683c0-0.281-0.217-0.503-0.497-0.503H1.093c-0.281,0-0.488,0.223-0.488,0.503V10.82H2.82V9.146
		c0-0.164,0.119-0.299,0.283-0.299h1.791c0.165,0,0.286,0.135,0.286,0.299v1.675h2.215V0.683L7.395,0.683z M3.59,7.373
		c0,0.096-0.078,0.174-0.174,0.174H2.368c-0.096,0-0.174-0.078-0.174-0.174V6.324c0-0.097,0.078-0.174,0.174-0.174h1.049
		c0.096,0,0.174,0.077,0.174,0.174V7.373z M3.59,5.062c0,0.096-0.078,0.174-0.174,0.174H2.368c-0.096,0-0.174-0.078-0.174-0.174
		V4.013c0-0.096,0.078-0.174,0.174-0.174h1.049c0.096,0,0.174,0.078,0.174,0.174V5.062z M3.59,2.702
		c0,0.096-0.078,0.174-0.174,0.174H2.368c-0.096,0-0.174-0.078-0.174-0.174V1.653c0-0.096,0.078-0.174,0.174-0.174h1.049
		c0.096,0,0.174,0.078,0.174,0.174V2.702z M5.806,7.373c0,0.096-0.078,0.174-0.175,0.174H4.583c-0.096,0-0.173-0.078-0.173-0.174
		V6.324c0-0.097,0.077-0.174,0.173-0.174h1.048c0.097,0,0.175,0.077,0.175,0.174V7.373z M5.806,5.062
		c0,0.096-0.078,0.174-0.175,0.174H4.583c-0.096,0-0.173-0.078-0.173-0.174V4.013c0-0.096,0.077-0.174,0.173-0.174h1.048
		c0.097,0,0.175,0.078,0.175,0.174V5.062z M5.806,2.702c0,0.096-0.078,0.174-0.175,0.174H4.583c-0.096,0-0.173-0.078-0.173-0.174
		V1.653c0-0.096,0.077-0.174,0.173-0.174h1.048c0.097,0,0.175,0.078,0.175,0.174V2.702z"/>
</g>
</svg>
