<?xml version="1.0" encoding="utf-8"?>
<!-- Generator: Adobe Illustrator 16.0.0, SVG Export Plug-In . SVG Version: 6.00 Build 0)  -->
<!DOCTYPE svg PUBLIC "-//W3C//DTD SVG 1.1//EN" "http://www.w3.org/Graphics/SVG/1.1/DTD/svg11.dtd">
<svg version="1.1" id="Layer_1" xmlns="http://www.w3.org/2000/svg" xmlns:xlink="http://www.w3.org/1999/xlink" x="0px" y="0px"
	 width="18px" height="16px" viewBox="0 0 18 16" enable-background="new 0 0 18 16" xml:space="preserve">
<path id="XMLID_1038_" fill="#404141" d="M17.503,2.081l-4.056-1.902c-0.019,0-0.019,0-0.019-0.02
	c-0.02-0.019-0.058-0.019-0.077-0.019s-0.058-0.019-0.077-0.019c-0.019,0-0.058,0-0.076,0c-0.02,0-0.058,0-0.077,0
	s-0.058,0-0.077,0.019c-0.019,0-0.058,0.019-0.077,0.019c-0.019,0-0.019,0-0.038,0.02L9.143,1.947L5.319,0.179
	c-0.02,0-0.02,0-0.039-0.02C5.261,0.14,5.223,0.14,5.204,0.14c-0.02,0-0.058-0.019-0.077-0.019s-0.058,0-0.077,0
	c-0.02,0-0.058,0-0.077,0c-0.019,0-0.058,0-0.077,0.019c-0.02,0-0.058,0.019-0.077,0.019c-0.019,0-0.019,0-0.038,0.02L0.61,2.081
	c-0.25,0.115-0.442,0.346-0.442,0.615v12.491c0,0.23,0.173,0.441,0.365,0.576c0.115,0.077,0.269,0.115,0.384,0.115
	c0.096,0,0.211-0.019,0.308-0.058l3.786-1.787l3.805,1.769l0,0c0.038,0.019,0.077,0.038,0.115,0.038c0.019,0,0.019,0,0.038,0
	c0.039,0,0.077,0.02,0.135,0.02c0.039,0,0.096,0,0.135-0.02c0.019,0,0.019,0,0.039,0c0.038-0.02,0.077-0.02,0.115-0.038l0,0
	l3.786-1.769l3.786,1.769c0.096,0.038,0.191,0.058,0.288,0.058c0.134,0,0.211-0.039,0.308-0.115
	c0.191-0.135,0.269-0.347,0.269-0.577V2.696C17.849,2.427,17.752,2.196,17.503,2.081z M8.24,14.131l-2.498-1.269V1.87L8.24,3.138
	V14.131z M1.514,3.138l2.69-1.269v10.993l-2.69,1.269V3.138z M9.777,3.138l2.69-1.269v10.993l-2.69,1.269V3.138z M16.503,14.131
	l-2.69-1.269V1.87l2.69,1.269V14.131z"/>
</svg>
