<?xml version="1.0" encoding="utf-8"?>
<!-- Generator: Adobe Illustrator 16.0.0, SVG Export Plug-In . SVG Version: 6.00 Build 0)  -->
<!DOCTYPE svg PUBLIC "-//W3C//DTD SVG 1.1//EN" "http://www.w3.org/Graphics/SVG/1.1/DTD/svg11.dtd">
<svg version="1.1" id="Layer_1" xmlns="http://www.w3.org/2000/svg" xmlns:xlink="http://www.w3.org/1999/xlink" x="0px" y="0px"
	 width="28px" height="18px" viewBox="0 0 28 18" enable-background="new 0 0 28 18" xml:space="preserve">
<g>
	<path fill="#404141" d="M25.925,0.054H2.076c-1.045,0-1.895,0.849-1.895,1.896v6.947c0,1.737,1.414,3.152,3.152,3.152h21.336
		c1.735,0,3.151-1.415,3.151-3.152V1.95C27.818,0.904,26.969,0.054,25.925,0.054z M4.29,1.574h19.422v1.792
		c0,0.704-0.571,1.277-1.276,1.277H5.567c-0.703,0-1.277-0.573-1.277-1.277V1.574L4.29,1.574z M26.298,8.896
		c0,0.898-0.729,1.629-1.631,1.629H3.333c-0.899,0-1.63-0.729-1.63-1.629V1.95c0-0.207,0.167-0.375,0.374-0.375H2.77v1.792
		c0,1.543,1.255,2.797,2.796,2.797h16.87c1.541,0,2.797-1.254,2.797-2.797V1.574h0.69c0.206,0,0.374,0.169,0.374,0.375L26.298,8.896
		L26.298,8.896z"/>
	<path fill="#404141" d="M24.471,8.136H3.53c-0.421,0-0.761,0.342-0.761,0.761c0,0.42,0.34,0.762,0.761,0.762h20.941
		c0.422,0,0.762-0.341,0.762-0.762C25.23,8.478,24.893,8.136,24.471,8.136z"/>
	<path fill="#404141" d="M9.326,14.447c-0.024-0.016-0.048-0.026-0.071-0.041c0.358-0.152,0.546-0.559,0.423-0.936
		c-0.133-0.4-0.562-0.615-0.961-0.484c-0.188,0.063-1.136,0.414-1.218,1.262c-0.057,0.577,0.308,1.092,1.083,1.527
		c0.25,0.14,0.311,0.246,0.312,0.265c0.007,0.106-0.198,0.387-0.397,0.54c-0.335,0.252-0.402,0.729-0.149,1.063
		c0.149,0.2,0.377,0.305,0.607,0.305c0.159,0,0.321-0.049,0.458-0.152c0.11-0.083,1.067-0.838,0.999-1.854
		C10.382,15.521,10.172,14.923,9.326,14.447z"/>
	<path fill="#404141" d="M14.373,14.447c-0.026-0.016-0.048-0.026-0.071-0.041c0.358-0.152,0.544-0.559,0.421-0.936
		c-0.131-0.4-0.561-0.615-0.959-0.484c-0.188,0.063-1.136,0.414-1.218,1.262c-0.057,0.577,0.308,1.092,1.083,1.527
		c0.25,0.14,0.311,0.246,0.311,0.265c0.009,0.106-0.198,0.387-0.396,0.54c-0.335,0.252-0.403,0.729-0.148,1.063
		c0.148,0.2,0.375,0.305,0.606,0.305c0.159,0,0.321-0.049,0.457-0.152c0.108-0.083,1.067-0.838,1.001-1.854
		C15.428,15.521,15.219,14.923,14.373,14.447z"/>
	<path fill="#404141" d="M19.419,14.447c-0.026-0.016-0.052-0.026-0.071-0.041c0.356-0.152,0.547-0.559,0.422-0.936
		c-0.131-0.4-0.561-0.615-0.961-0.484c-0.189,0.063-1.135,0.414-1.218,1.262c-0.058,0.577,0.308,1.092,1.083,1.527
		c0.249,0.14,0.313,0.246,0.313,0.265c0.008,0.106-0.2,0.387-0.398,0.54c-0.335,0.252-0.402,0.729-0.146,1.063
		c0.148,0.2,0.377,0.305,0.605,0.305c0.159,0,0.321-0.049,0.457-0.152c0.111-0.083,1.066-0.838,1.001-1.854
		C20.477,15.521,20.262,14.923,19.419,14.447z"/>
</g>
</svg>
