<?xml version="1.0" encoding="utf-8"?>
<!-- Generator: Adobe Illustrator 16.0.0, SVG Export Plug-In . SVG Version: 6.00 Build 0)  -->
<!DOCTYPE svg PUBLIC "-//W3C//DTD SVG 1.1//EN" "http://www.w3.org/Graphics/SVG/1.1/DTD/svg11.dtd">
<svg version="1.1" id="Layer_1" xmlns="http://www.w3.org/2000/svg" xmlns:xlink="http://www.w3.org/1999/xlink" x="0px" y="0px"
	 width="22px" height="22px" viewBox="0 0 22 22" enable-background="new 0 0 22 22" xml:space="preserve">
<g opacity="0.45">
	<g>
		<path fill="none" d="M0.302,11.504c0-3.528,0.008-7.06-0.008-10.589C0.293,0.477,0.308,0.29,0.866,0.291
			c6.754,0.03,13.51,0.03,20.263,0c0.559-0.001,0.574,0.186,0.574,0.624c-0.019,3.531-0.013,7.061-0.013,10.589
			c-0.33-0.024-0.66-0.067-0.99-0.067c-5.729-0.006-11.458-0.013-17.189,0.007c-0.636,0.003-0.864-0.149-0.852-0.829
			c0.043-2.308,0.013-4.618,0.022-6.927c0.001-0.327,0.025-0.676,0.132-0.982c0.31-0.893,1.432-1.151,2.112-0.507
			c0.349,0.332,0.452,0.609-0.004,1.014C3.847,4.165,3.637,5.572,4.248,6.854C4.417,7.211,4.57,7.295,4.931,7.123
			c1.503-0.719,3.011-1.43,4.528-2.115C9.851,4.83,9.931,4.657,9.732,4.261C9.209,3.212,8.418,2.556,7.234,2.423
			C6.934,2.39,6.673,2.39,6.467,2.057c-0.846-1.373-1.931-1.87-3.174-1.521C2.01,0.896,1.304,1.955,1.303,3.543
			c-0.005,2.253-0.044,4.509,0.021,6.761C1.346,11.118,1.197,11.569,0.302,11.504z"/>
		<path d="M0.302,11.504c0.895,0.064,1.044-0.387,1.021-1.202c-0.064-2.25-0.025-4.506-0.021-6.759
			C1.306,1.955,2.01,0.896,3.295,0.536c1.242-0.349,2.327,0.148,3.172,1.521C6.673,2.39,6.934,2.39,7.234,2.423
			C8.417,2.556,9.209,3.21,9.732,4.259c0.2,0.396,0.118,0.571-0.273,0.749C7.941,5.694,6.433,6.404,4.931,7.123
			C4.57,7.295,4.417,7.211,4.248,6.854c-0.61-1.283-0.401-2.69,0.674-3.643c0.456-0.404,0.353-0.683,0.004-1.014
			c-0.68-0.644-1.802-0.387-2.112,0.507C2.707,3.012,2.683,3.362,2.681,3.688c-0.009,2.309,0.021,4.619-0.022,6.927
			c-0.012,0.68,0.216,0.833,0.852,0.829c5.73-0.02,11.46-0.014,17.191-0.007c0.33,0,0.66,0.046,0.99,0.067c0,0.448,0,0.893,0,1.339
			c-0.757-0.172-1.049,0.125-1.129,0.907c-0.175,1.714-0.846,3.219-2.243,4.313c-0.41,0.319-1.213,0.586-1.213,0.881
			c-0.001,0.467,0.53,0.925,0.813,1.4c0.1,0.164,0.352,0.29,0.138,0.568c-0.473,0.62-1.004,0.623-1.441-0.021
			c-0.252-0.365-0.519-0.724-0.745-1.107c-0.205-0.346-0.441-0.493-0.875-0.461c-2.137,0.165-4.293,0.232-6.413,0.032
			c-1.64-0.153-2.696,0.259-3.345,1.743c-0.197,0.445-0.434,0.396-0.829,0.164c-0.571-0.338-0.639-0.645-0.209-1.136
			c0.236-0.271,0.4-0.603,0.618-0.888c0.209-0.273,0.142-0.408-0.155-0.559c-2.026-1.016-2.981-2.769-3.229-4.931
			c-0.088-0.781-0.368-1.079-1.131-0.907C0.302,12.397,0.302,11.953,0.302,11.504z"/>
		<path fill="none" d="M0.302,12.844c0.762-0.172,1.042,0.126,1.131,0.907c0.249,2.162,1.203,3.914,3.229,4.931
			c0.299,0.15,0.366,0.285,0.157,0.559c-0.218,0.287-0.381,0.619-0.618,0.888c-0.429,0.491-0.361,0.798,0.21,1.136
			c0.395,0.23,0.633,0.281,0.828-0.164c0.649-1.484,1.704-1.896,3.346-1.743c2.119,0.2,4.274,0.136,6.413-0.032
			c0.432-0.032,0.671,0.115,0.873,0.461c0.228,0.384,0.493,0.742,0.747,1.107c0.436,0.643,0.97,0.64,1.441,0.021
			c0.213-0.279-0.038-0.404-0.137-0.568c-0.285-0.476-0.815-0.934-0.813-1.4c0-0.295,0.801-0.559,1.213-0.881
			c1.396-1.095,2.066-2.6,2.243-4.313c0.079-0.782,0.37-1.082,1.128-0.907c0,2.785-0.009,5.572,0.013,8.353
			c0.003,0.422-0.094,0.516-0.513,0.513c-6.796-0.016-13.591-0.016-20.386,0c-0.418,0.003-0.518-0.092-0.513-0.513
			C0.315,18.416,0.302,15.629,0.302,12.844z"/>
	</g>
</g>
</svg>
