<?xml version="1.0" encoding="utf-8"?>
<!-- Generator: Adobe Illustrator 16.0.0, SVG Export Plug-In . SVG Version: 6.00 Build 0)  -->
<!DOCTYPE svg PUBLIC "-//W3C//DTD SVG 1.1//EN" "http://www.w3.org/Graphics/SVG/1.1/DTD/svg11.dtd">
<svg version="1.1" id="Layer_1" xmlns="http://www.w3.org/2000/svg" xmlns:xlink="http://www.w3.org/1999/xlink" x="0px" y="0px"
	 width="30px" height="18px" viewBox="0 0 30 18" enable-background="new 0 0 30 18" xml:space="preserve">
<g>
	<path fill="#404141" d="M11.94,6.245C12.109,6.306,11.77,6.183,11.94,6.245L11.94,6.245z"/>
	<path fill="#404141" d="M12.543,6.245C12.713,6.183,12.373,6.306,12.543,6.245L12.543,6.245z"/>
	<path fill="#404141" d="M11.783,11.795C11.742,11.682,11.824,11.908,11.783,11.795L11.783,11.795z"/>
	<path fill="#404141" d="M11.477,8.992c0.049,0.234,0.187,0.435,0.416,0.521c0.206,0.078,0.463,0.079,0.672,0.01
		c0.229-0.079,0.376-0.268,0.433-0.499c0.137-0.56-0.172-1.088-0.495-1.522c-0.082-0.111-0.168-0.221-0.262-0.322
		c-0.263,0.289-0.501,0.625-0.66,0.984C11.465,8.431,11.417,8.705,11.477,8.992z M11.766,8.807c0.084-0.288,0.275-0.556,0.475-0.775
		c0.197,0.217,0.384,0.479,0.472,0.76c0.056,0.183,0.054,0.409-0.05,0.574c-0.091,0.145-0.258,0.196-0.422,0.196
		c-0.159,0-0.32-0.049-0.413-0.186C11.718,9.216,11.713,8.987,11.766,8.807z"/>
	<path fill="#404141" d="M11.684,10.355L11.684,10.355L11.684,10.355z"/>
	<path fill="#404141" d="M12.799,10.355L12.799,10.355c0,0,0,0-0.001,0.002C12.798,10.355,12.799,10.355,12.799,10.355z"/>
	<path fill="#404141" d="M6.435,6.245C6.604,6.306,6.264,6.183,6.435,6.245L6.435,6.245z"/>
	<path fill="#404141" d="M7.038,6.245C7.208,6.183,6.868,6.306,7.038,6.245L7.038,6.245z"/>
	<path fill="#404141" d="M7.159,11.795C7.118,11.908,7.2,11.682,7.159,11.795L7.159,11.795z"/>
	<path fill="#404141" d="M5.972,8.992c0.049,0.234,0.187,0.435,0.416,0.521c0.206,0.078,0.463,0.079,0.672,0.01
		c0.229-0.08,0.375-0.268,0.433-0.499C7.63,8.465,7.32,7.938,6.998,7.503C6.916,7.392,6.829,7.282,6.735,7.181
		C6.472,7.47,6.234,7.806,6.076,8.165C5.959,8.431,5.911,8.705,5.972,8.992z M6.26,8.807c0.084-0.288,0.275-0.555,0.475-0.775
		C6.933,8.248,7.12,8.51,7.207,8.791C7.263,8.974,7.262,9.2,7.157,9.365C7.065,9.51,6.899,9.563,6.735,9.563
		c-0.158,0-0.32-0.049-0.413-0.186C6.212,9.216,6.208,8.987,6.26,8.807z"/>
	<path fill="#404141" d="M17.451,6.245C17.621,6.306,17.282,6.183,17.451,6.245L17.451,6.245z"/>
	<path fill="#404141" d="M18.055,6.245C18.225,6.183,17.885,6.306,18.055,6.245L18.055,6.245z"/>
	<path fill="#404141" d="M17.295,11.795C17.254,11.682,17.336,11.908,17.295,11.795L17.295,11.795z"/>
	<path fill="#404141" d="M16.988,8.992c0.05,0.234,0.187,0.435,0.416,0.521c0.207,0.078,0.463,0.079,0.672,0.01
		c0.229-0.079,0.377-0.268,0.434-0.499c0.139-0.56-0.173-1.088-0.494-1.522c-0.084-0.111-0.168-0.221-0.263-0.322
		c-0.264,0.289-0.502,0.625-0.661,0.984C16.977,8.431,16.928,8.705,16.988,8.992z M17.275,8.807
		c0.086-0.288,0.276-0.556,0.478-0.775c0.196,0.217,0.383,0.479,0.472,0.76c0.057,0.183,0.055,0.409-0.051,0.574
		c-0.093,0.145-0.257,0.196-0.421,0.196c-0.159,0-0.319-0.049-0.414-0.186C17.229,9.216,17.225,8.987,17.275,8.807z"/>
	<path fill="#404141" d="M18.311,10.355c0.002,0,0.002,0,0.002,0s-0.002,0-0.002,0.002C18.311,10.355,18.311,10.355,18.311,10.355z"
		/>
	<path fill="#404141" d="M22.963,6.268C23.134,6.329,22.793,6.206,22.963,6.268L22.963,6.268z"/>
	<path fill="#404141" d="M23.566,6.268C23.734,6.206,23.396,6.329,23.566,6.268L23.566,6.268z"/>
	<path fill="#404141" d="M22.807,11.818C22.766,11.704,22.848,11.932,22.807,11.818L22.807,11.818z"/>
	<path fill="#404141" d="M22.5,9.015c0.05,0.235,0.186,0.436,0.415,0.522c0.207,0.078,0.465,0.08,0.673,0.009
		c0.229-0.078,0.376-0.266,0.434-0.497c0.138-0.561-0.174-1.089-0.494-1.523c-0.084-0.111-0.17-0.22-0.264-0.322
		C23,7.493,22.762,7.829,22.604,8.188C22.488,8.453,22.438,8.729,22.5,9.015z M22.789,8.829c0.083-0.287,0.275-0.555,0.475-0.775
		c0.198,0.217,0.385,0.479,0.471,0.76c0.058,0.183,0.058,0.409-0.047,0.574c-0.094,0.145-0.26,0.197-0.424,0.197
		c-0.158,0-0.32-0.049-0.414-0.186C22.742,9.239,22.736,9.011,22.789,8.829z"/>
	<path fill="#404141" d="M22.707,10.379L22.707,10.379C22.707,10.379,22.707,10.378,22.707,10.379
		C22.707,10.378,22.707,10.378,22.707,10.379z"/>
	<path fill="#404141" d="M23.822,10.379C23.822,10.378,23.822,10.378,23.822,10.379L23.822,10.379L23.822,10.379z"/>
	<path fill="#404141" d="M0.485,17.82h29.029c0-0.732-0.427-1.375-0.875-1.738V3.872c0.145-0.093,0.254-0.201,0.329-0.325
		c0.218-0.358,0.06-0.682,0.038-0.718l-0.578,0.304c0,0-0.003-0.004-0.006-0.014c0.006,0.018,0.012,0.053-0.02,0.099
		c-0.068,0.099-0.416,0.42-2.055,0.42c-0.01,0-0.019,0.003-0.027,0.003c-0.239-1.569-2.6-3.141-2.879-3.323l-0.18-0.115
		l-0.177,0.115c-0.231,0.149-1.86,1.234-2.573,2.486c-0.703-1.262-2.352-2.358-2.584-2.51L17.753,0.18l-0.179,0.114
		c-0.231,0.15-1.871,1.241-2.578,2.498c-0.707-1.257-2.346-2.348-2.578-2.498L12.241,0.18l-0.178,0.114
		c-0.232,0.15-1.866,1.238-2.575,2.493C8.779,1.532,7.145,0.444,6.914,0.294L6.735,0.18L6.558,0.294
		c-0.283,0.184-2.663,1.77-2.884,3.347c-0.008,0-0.015-0.003-0.023-0.003c-1.639,0-1.986-0.321-2.055-0.42
		C1.564,3.172,1.57,3.137,1.577,3.119C1.573,3.129,1.57,3.133,1.57,3.133L0.992,2.829C0.973,2.865,0.815,3.188,1.031,3.547
		c0.075,0.124,0.184,0.232,0.328,0.325v12.21C0.912,16.445,0.485,17.088,0.485,17.82z M5.482,9.984
		c0.071-0.26-0.105-0.562-0.399-0.521C5.227,9.492,5.35,9.609,5.355,9.762c0.007,0.172-0.128,0.327-0.299,0.344
		c-0.157,0.016-0.316-0.078-0.383-0.222C4.601,9.729,4.64,9.544,4.741,9.413C4.977,9.111,5.433,9.201,5.655,9.47
		C5.779,9.618,5.8,9.779,5.821,9.966s0.074,0.372,0.176,0.531c0.035,0.058,0.077,0.106,0.125,0.155
		c-0.212,0.097-0.317,0.361-0.224,0.589c0.074,0.188,0.268,0.265,0.45,0.315c-0.066,0.051-0.106,0.135-0.069,0.236
		c-0.01-0.027-0.02-0.057,0,0.001c0.021,0.056,0.011,0.028,0,0c0.066,0.183,0.279,0.168,0.376,0.058v0.002
		c0.003-0.006,0.008-0.013,0.011-0.02c0.019-0.027,0.032-0.059,0.036-0.094c0.008-0.041,0.007-0.086-0.009-0.127
		c-0.035-0.094-0.125-0.15-0.208-0.193c-0.128-0.064-0.362-0.117-0.411-0.273c-0.02-0.07-0.046-0.15-0.024-0.223
		c0.022-0.097,0.061-0.164,0.118-0.229c0.116,0.104,0.258,0.182,0.408,0.209c0.103,0.031,0.221,0.031,0.323,0
		c0.142-0.027,0.276-0.098,0.389-0.192c0.055,0.065,0.097,0.14,0.105,0.231c0.006,0.072-0.009,0.135-0.029,0.203
		c-0.051,0.164-0.298,0.215-0.43,0.285c-0.083,0.043-0.168,0.106-0.195,0.201c-0.011,0.039-0.01,0.079,0,0.119
		c0.004,0.029,0.016,0.057,0.033,0.08c0.003,0.008,0.008,0.016,0.012,0.021c0-0.002,0-0.004,0-0.004
		c0.097,0.111,0.311,0.125,0.376-0.057c0.038-0.104-0.001-0.188-0.069-0.238c0.002,0,0.003,0,0.006,0
		c0.184-0.051,0.373-0.132,0.447-0.322c0.084-0.217-0.009-0.465-0.204-0.569c0.053-0.052,0.099-0.106,0.136-0.167
		c0.101-0.159,0.155-0.346,0.176-0.533c0.02-0.184,0.04-0.345,0.164-0.493C8.039,9.201,8.495,9.111,8.73,9.413
		c0.102,0.131,0.141,0.315,0.069,0.471c-0.067,0.144-0.226,0.236-0.384,0.222c-0.17-0.019-0.306-0.172-0.3-0.346
		c0.007-0.15,0.13-0.268,0.274-0.295c-0.294-0.041-0.47,0.26-0.399,0.52c-0.063-0.01-0.131,0.021-0.189,0.039
		c0.184,0.033,0.311,0.183,0.466,0.272c0.195,0.114,0.426,0.085,0.611-0.04c0.148-0.1,0.243-0.247,0.284-0.408v5.916H4.311V9.848
		c0.04,0.161,0.135,0.31,0.283,0.408c0.186,0.125,0.417,0.154,0.612,0.04c0.155-0.091,0.281-0.239,0.465-0.272
		C5.613,10.004,5.545,9.975,5.482,9.984z M10.987,9.984c0.071-0.26-0.105-0.562-0.399-0.521c0.143,0.027,0.267,0.146,0.272,0.297
		c0.007,0.171-0.128,0.325-0.299,0.343c-0.157,0.017-0.317-0.078-0.384-0.221c-0.071-0.154-0.033-0.34,0.069-0.471
		c0.23-0.295,0.675-0.217,0.901,0.041c0.126,0.143,0.158,0.303,0.176,0.486c0.018,0.188,0.069,0.375,0.167,0.537
		c0.038,0.063,0.084,0.121,0.136,0.174c-0.212,0.1-0.317,0.363-0.224,0.59c0.074,0.188,0.268,0.265,0.45,0.314
		c-0.067,0.053-0.106,0.135-0.069,0.238c0.066,0.182,0.281,0.168,0.377,0.057c0,0,0,0.002,0,0.004
		c0.004-0.008,0.008-0.015,0.012-0.022c0.018-0.024,0.03-0.054,0.034-0.087c0.009-0.044,0.009-0.086-0.008-0.131
		c-0.035-0.094-0.125-0.15-0.208-0.193c-0.128-0.063-0.362-0.117-0.411-0.273c-0.02-0.07-0.047-0.15-0.024-0.223
		c0.022-0.097,0.061-0.164,0.117-0.229c0.117,0.104,0.258,0.182,0.409,0.209c0.103,0.031,0.222,0.031,0.324,0
		c0.142-0.027,0.276-0.098,0.388-0.192c0.056,0.065,0.098,0.14,0.106,0.231c0.006,0.072-0.009,0.135-0.029,0.203
		c-0.079,0.164-0.281,0.205-0.43,0.285c-0.083,0.043-0.168,0.106-0.195,0.201c-0.011,0.041-0.01,0.082,0,0.12
		c0.005,0.028,0.016,0.056,0.031,0.078c0.004,0.007,0.008,0.015,0.013,0.022c0-0.002,0-0.004,0-0.004
		c0.097,0.111,0.31,0.125,0.376-0.057c-0.01,0.027-0.02,0.057,0,0s0.01-0.029,0-0.003c0.036-0.103-0.002-0.185-0.069-0.235
		c0.002,0,0.003,0,0.006,0c0.184-0.051,0.373-0.132,0.446-0.322c0.084-0.217-0.008-0.465-0.203-0.569
		c0.058-0.058,0.108-0.119,0.147-0.187c0.099-0.162,0.149-0.351,0.167-0.537c0.018-0.185,0.049-0.344,0.176-0.486
		c0.226-0.258,0.67-0.336,0.9-0.041c0.102,0.131,0.141,0.314,0.069,0.471c-0.067,0.143-0.227,0.236-0.384,0.219
		c-0.17-0.016-0.305-0.17-0.299-0.34c0.006-0.152,0.13-0.271,0.273-0.298c-0.294-0.041-0.471,0.261-0.399,0.521
		c-0.063-0.012-0.131,0.02-0.189,0.039c0.184,0.031,0.311,0.182,0.466,0.271c0.195,0.114,0.427,0.085,0.612-0.04
		c0.148-0.101,0.243-0.247,0.283-0.407v5.914H9.816V9.848c0.04,0.161,0.135,0.31,0.283,0.408c0.185,0.125,0.416,0.154,0.612,0.04
		c0.155-0.091,0.281-0.239,0.466-0.272C11.118,10.004,11.05,9.975,10.987,9.984z M16.5,9.984c0.068-0.26-0.105-0.562-0.4-0.521
		c0.145,0.027,0.268,0.146,0.272,0.297c0.007,0.171-0.128,0.325-0.299,0.343c-0.158,0.017-0.316-0.078-0.384-0.221
		c-0.071-0.154-0.033-0.34,0.068-0.471c0.231-0.295,0.674-0.217,0.9,0.041c0.126,0.143,0.158,0.303,0.176,0.486
		c0.02,0.188,0.068,0.375,0.167,0.537c0.037,0.063,0.084,0.121,0.138,0.174c-0.212,0.1-0.318,0.363-0.226,0.59
		c0.073,0.188,0.271,0.265,0.451,0.314c-0.068,0.053-0.106,0.135-0.069,0.238c0.064,0.182,0.279,0.168,0.376,0.057
		c0.001,0,0.001,0.002,0.001,0.004c0.004-0.008,0.008-0.015,0.014-0.022c0.017-0.024,0.027-0.054,0.031-0.088
		c0.012-0.043,0.012-0.085-0.007-0.13c-0.035-0.094-0.125-0.15-0.21-0.193c-0.127-0.064-0.361-0.117-0.411-0.273
		c-0.021-0.07-0.046-0.15-0.022-0.223c0.021-0.097,0.061-0.164,0.117-0.229c0.115,0.104,0.258,0.182,0.407,0.209
		c0.103,0.031,0.222,0.031,0.323,0c0.143-0.027,0.277-0.098,0.389-0.192c0.057,0.065,0.098,0.14,0.106,0.231
		c0.007,0.072-0.011,0.135-0.03,0.203c-0.051,0.164-0.298,0.215-0.428,0.285c-0.084,0.043-0.17,0.104-0.195,0.201
		c-0.012,0.041-0.012,0.081,0,0.119c0.004,0.029,0.014,0.057,0.031,0.079c0.002,0.007,0.008,0.015,0.011,0.022
		c0-0.002,0.002-0.004,0.002-0.004c0.095,0.111,0.31,0.125,0.375-0.057c-0.01,0.027-0.021,0.055,0.002,0
		c0.021-0.057,0.011-0.031,0-0.003c0.035-0.103-0.003-0.187-0.069-0.235c0.002,0,0.004,0,0.006,0
		c0.185-0.051,0.373-0.133,0.447-0.322c0.082-0.217-0.01-0.465-0.203-0.569c0.053-0.052,0.098-0.106,0.136-0.167
		c0.103-0.159,0.155-0.346,0.176-0.533c0.021-0.184,0.041-0.346,0.165-0.494c0.225-0.269,0.68-0.358,0.914-0.057
		c0.102,0.131,0.141,0.314,0.068,0.469c-0.067,0.145-0.227,0.238-0.383,0.221c-0.173-0.016-0.308-0.17-0.301-0.343
		c0.006-0.149,0.131-0.268,0.271-0.295c-0.293-0.041-0.469,0.261-0.397,0.521c-0.063-0.012-0.132,0.02-0.188,0.039
		c0.186,0.031,0.311,0.182,0.466,0.271c0.196,0.113,0.427,0.085,0.612-0.04c0.146-0.101,0.242-0.247,0.283-0.407v5.914h-4.852V9.848
		c0.041,0.161,0.134,0.31,0.283,0.408c0.186,0.125,0.416,0.153,0.611,0.04c0.155-0.093,0.281-0.241,0.467-0.272
		C16.63,10.004,16.563,9.975,16.5,9.984z M22.011,10.007c0.071-0.26-0.104-0.561-0.399-0.519c0.146,0.028,0.269,0.145,0.273,0.296
		c0.008,0.173-0.129,0.327-0.299,0.343c-0.159,0.016-0.318-0.078-0.385-0.221c-0.072-0.153-0.032-0.34,0.068-0.47
		c0.229-0.295,0.676-0.217,0.9,0.041c0.126,0.143,0.157,0.302,0.174,0.486c0.02,0.188,0.071,0.376,0.168,0.539
		c0.038,0.061,0.086,0.12,0.139,0.173c-0.213,0.099-0.318,0.361-0.227,0.589c0.073,0.188,0.27,0.266,0.45,0.315
		c-0.065,0.051-0.106,0.136-0.067,0.237c0.064,0.182,0.279,0.168,0.375,0.056c0,0.002,0,0.004,0,0.004
		c0.006-0.007,0.01-0.015,0.014-0.022c0.018-0.024,0.027-0.054,0.033-0.084c0.01-0.043,0.01-0.088-0.008-0.134
		c-0.035-0.091-0.125-0.149-0.209-0.192c-0.129-0.063-0.361-0.117-0.41-0.274c-0.021-0.069-0.047-0.149-0.023-0.222
		c0.021-0.096,0.059-0.164,0.115-0.229c0.117,0.105,0.259,0.183,0.408,0.21c0.104,0.031,0.223,0.031,0.324,0
		c0.143-0.027,0.276-0.098,0.387-0.191c0.058,0.063,0.101,0.139,0.106,0.231c0.007,0.072-0.01,0.134-0.028,0.202
		c-0.053,0.163-0.299,0.214-0.43,0.285c-0.083,0.044-0.17,0.105-0.195,0.201c-0.012,0.041-0.01,0.08,0,0.119
		c0.004,0.031,0.014,0.057,0.031,0.08c0.004,0.008,0.01,0.017,0.014,0.021v-0.002c0.097,0.109,0.309,0.124,0.375-0.057
		c-0.009,0.027-0.019,0.055,0.002,0c0.02-0.059,0.01-0.03,0-0.004c0.035-0.103-0.004-0.185-0.069-0.234c0.003,0,0.004,0,0.006,0
		c0.185-0.053,0.372-0.132,0.446-0.323c0.084-0.217-0.008-0.465-0.203-0.569c0.057-0.058,0.107-0.119,0.146-0.185
		c0.101-0.163,0.15-0.353,0.168-0.539c0.018-0.185,0.051-0.344,0.176-0.486c0.228-0.258,0.67-0.336,0.901-0.041
		c0.101,0.131,0.14,0.316,0.067,0.47c-0.067,0.143-0.227,0.235-0.383,0.221c-0.172-0.017-0.307-0.17-0.301-0.343
		c0.006-0.151,0.131-0.27,0.273-0.296c-0.294-0.042-0.471,0.259-0.398,0.519c-0.063-0.01-0.133,0.02-0.188,0.039
		c0.185,0.033,0.31,0.182,0.465,0.271c0.195,0.115,0.429,0.086,0.612-0.039c0.146-0.1,0.242-0.245,0.283-0.408v5.893h-4.853V9.87
		c0.041,0.162,0.134,0.31,0.283,0.407c0.187,0.125,0.417,0.154,0.612,0.041c0.153-0.092,0.281-0.239,0.466-0.272
		C22.141,10.025,22.073,9.997,22.011,10.007z M27.986,4.134v11.63c-0.014,0-0.026,0-0.039,0h-1.604V4.291c0.003,0,0.005,0,0.007,0
		C27.021,4.291,27.564,4.239,27.986,4.134z M23.264,0.984c0.813,0.563,2.428,1.89,2.428,2.909v5.61
		c-0.006-0.02-0.01-0.038-0.018-0.057c-0.104-0.324-0.396-0.549-0.73-0.579c0.309-0.369,0.343-0.956,0.017-1.342
		c-0.254-0.302-0.646-0.397-1.009-0.498c-0.119-0.033-0.256-0.066-0.36-0.14c0.063,0.018,0.134,0.018,0.198-0.006
		c0.167-0.061,0.258-0.251,0.195-0.419c-0.061-0.167-0.25-0.258-0.416-0.196c-0.072,0.027-0.129,0.075-0.166,0.134
		c0-0.001,0-0.003,0-0.004c-0.096,0.159-0.152,0.339-0.094,0.522c0.07,0.21,0.264,0.344,0.45,0.44
		c0.21,0.11,0.437,0.186,0.642,0.307c0.088,0.052,0.175,0.116,0.236,0.198c0.023,0.033,0.047,0.068,0.064,0.105
		c0.002,0.005,0.021,0.047,0.01,0.02c0.074,0.215,0.1,0.424,0.03,0.646c-0.03,0.098-0.075,0.184-0.132,0.264
		c-0.225,0.06-0.426,0.199-0.561,0.391c-0.104,0.147-0.163,0.322-0.175,0.502c-0.007,0.104,0.006,0.204-0.001,0.307
		c-0.006,0.096-0.023,0.189-0.053,0.28c0.012-0.034,0.019-0.054,0,0.001c-0.055,0.16-0.021,0.063,0,0.002
		c-0.028,0.082-0.071,0.161-0.123,0.232c0.029-0.163-0.016-0.352-0.081-0.488c-0.091-0.188-0.214-0.361-0.354-0.516
		c-0.125,0.137-0.234,0.291-0.322,0.457c-0.082,0.154-0.146,0.361-0.112,0.545c-0.052-0.072-0.093-0.148-0.12-0.23
		c0.02,0.061,0.055,0.158-0.001-0.002c-0.019-0.055-0.013-0.035,0-0.001c-0.03-0.091-0.047-0.187-0.054-0.28
		c-0.006-0.103,0.007-0.203-0.002-0.307c-0.01-0.18-0.071-0.354-0.174-0.502c-0.136-0.191-0.338-0.331-0.562-0.392
		c-0.056-0.079-0.101-0.165-0.13-0.263c-0.068-0.223-0.046-0.431,0.027-0.646c-0.008,0.029,0.012-0.018,0.015-0.022
		c0.021-0.041,0.046-0.081,0.073-0.117c0.064-0.081,0.154-0.143,0.244-0.194c0.197-0.114,0.418-0.188,0.621-0.295
		c0.193-0.101,0.393-0.24,0.455-0.46c0.053-0.179-0.007-0.35-0.099-0.503c0,0.001,0,0.003,0,0.004
		c-0.037-0.06-0.093-0.107-0.162-0.133c-0.168-0.062-0.358,0.029-0.419,0.196c-0.063,0.168,0.027,0.358,0.195,0.419
		c0.063,0.022,0.129,0.023,0.188,0.009c-0.045,0.03-0.096,0.055-0.151,0.075c-0.174,0.063-0.354,0.1-0.532,0.155
		c-0.349,0.11-0.692,0.307-0.832,0.665c-0.103,0.262-0.103,0.554,0.006,0.813c0.043,0.098,0.099,0.188,0.166,0.268
		c-0.336,0.031-0.625,0.256-0.729,0.579c-0.006,0.02-0.012,0.038-0.016,0.057v-5.61C20.839,2.876,22.45,1.548,23.264,0.984z
		 M17.753,0.962c0.813,0.563,2.427,1.891,2.427,2.909V9.48c-0.006-0.019-0.012-0.037-0.018-0.056c-0.104-0.324-0.396-0.55-0.73-0.58
		c0.31-0.368,0.344-0.956,0.018-1.342c-0.254-0.301-0.646-0.397-1.01-0.497c-0.119-0.033-0.256-0.066-0.361-0.141
		c0.063,0.019,0.134,0.019,0.199-0.005c0.168-0.062,0.258-0.251,0.195-0.419c-0.06-0.168-0.25-0.258-0.418-0.196
		c-0.068,0.025-0.125,0.073-0.162,0.133c0-0.001,0-0.003,0-0.004c-0.098,0.159-0.154,0.338-0.095,0.522
		c0.071,0.209,0.265,0.343,0.451,0.44c0.21,0.109,0.437,0.185,0.642,0.306c0.088,0.053,0.172,0.116,0.235,0.199
		c0.024,0.033,0.047,0.068,0.063,0.105c0.002,0.005,0.021,0.047,0.012,0.019c0.074,0.215,0.098,0.424,0.027,0.646
		c-0.027,0.098-0.072,0.184-0.129,0.263c-0.226,0.061-0.427,0.199-0.562,0.392c-0.104,0.147-0.164,0.322-0.174,0.502
		c-0.007,0.102,0.006,0.203-0.003,0.306c-0.006,0.095-0.021,0.19-0.051,0.28c0.01-0.033,0.017-0.055-0.002,0.002
		c-0.055,0.16-0.021,0.061,0,0.002c-0.029,0.082-0.07,0.16-0.123,0.231c0.03-0.163-0.016-0.351-0.08-0.487
		c-0.09-0.188-0.215-0.362-0.354-0.518c-0.125,0.137-0.234,0.293-0.322,0.456c-0.082,0.155-0.147,0.364-0.113,0.547
		c-0.053-0.071-0.094-0.147-0.121-0.231c-0.031-0.092-0.047-0.187-0.055-0.282c-0.007-0.103,0.006-0.204,0-0.306
		c-0.011-0.181-0.072-0.354-0.176-0.502c-0.135-0.192-0.336-0.331-0.561-0.392c-0.057-0.079-0.103-0.165-0.131-0.263
		c-0.068-0.223-0.045-0.431,0.028-0.646c-0.01,0.028,0.011-0.018,0.013-0.023c0.021-0.041,0.047-0.08,0.076-0.116
		c0.064-0.081,0.152-0.143,0.243-0.194c0.198-0.115,0.418-0.188,0.621-0.295c0.192-0.101,0.394-0.24,0.456-0.46
		c0.053-0.179-0.009-0.351-0.1-0.503c0,0.001,0,0.003,0,0.004c-0.036-0.06-0.094-0.107-0.162-0.133
		c-0.168-0.062-0.359,0.028-0.42,0.196s0.029,0.357,0.197,0.419c0.063,0.022,0.127,0.023,0.188,0.009
		c-0.045,0.03-0.097,0.055-0.151,0.075c-0.175,0.063-0.356,0.1-0.533,0.155c-0.349,0.11-0.692,0.307-0.832,0.665
		c-0.102,0.261-0.102,0.553,0.006,0.813c0.043,0.098,0.099,0.188,0.164,0.267c-0.334,0.031-0.624,0.257-0.728,0.58
		c-0.006,0.019-0.012,0.037-0.016,0.056V3.871C15.326,2.854,16.939,1.525,17.753,0.962z M12.241,0.962
		c0.814,0.563,2.426,1.891,2.426,2.909V9.48c-0.004-0.019-0.01-0.037-0.016-0.056c-0.105-0.324-0.397-0.55-0.733-0.58
		c0.311-0.368,0.343-0.956,0.018-1.342c-0.253-0.301-0.646-0.397-1.008-0.497c-0.12-0.033-0.257-0.067-0.362-0.141
		c0.064,0.018,0.134,0.019,0.2-0.005c0.167-0.062,0.257-0.252,0.196-0.419c-0.061-0.168-0.251-0.258-0.419-0.196
		c-0.069,0.025-0.125,0.073-0.163,0.133c0-0.001,0-0.003,0-0.004c-0.096,0.159-0.155,0.338-0.093,0.522
		c0.069,0.209,0.262,0.343,0.45,0.44c0.21,0.109,0.438,0.185,0.641,0.306c0.088,0.053,0.174,0.116,0.236,0.199
		c0.025,0.032,0.047,0.068,0.064,0.105c0.003,0.005,0.021,0.047,0.012,0.019c0.074,0.215,0.097,0.424,0.029,0.646
		c-0.03,0.098-0.076,0.184-0.131,0.263c-0.224,0.061-0.426,0.199-0.561,0.392c-0.104,0.147-0.164,0.322-0.175,0.502
		c-0.006,0.102,0.006,0.203,0,0.306c-0.006,0.095-0.023,0.19-0.053,0.28c0.012-0.033,0.018-0.055,0,0.002
		c-0.055,0.16-0.021,0.061-0.001,0.002c-0.028,0.082-0.07,0.16-0.123,0.231c0.03-0.163-0.016-0.351-0.081-0.487
		c-0.089-0.188-0.214-0.362-0.354-0.518c-0.125,0.137-0.236,0.293-0.323,0.456c-0.083,0.155-0.147,0.364-0.112,0.546
		c-0.052-0.07-0.093-0.146-0.122-0.23c0.021,0.06,0.054,0.16,0-0.002c-0.02-0.056-0.012-0.033,0,0
		c-0.031-0.09-0.048-0.187-0.053-0.28c-0.007-0.103,0.005-0.204-0.001-0.306c-0.011-0.181-0.071-0.354-0.175-0.502
		c-0.135-0.192-0.337-0.331-0.561-0.392c-0.056-0.079-0.102-0.166-0.131-0.263c-0.069-0.223-0.044-0.431,0.029-0.646
		c-0.009,0.028,0.01-0.018,0.013-0.023c0.021-0.041,0.045-0.08,0.075-0.116c0.066-0.081,0.154-0.143,0.244-0.194
		c0.198-0.115,0.418-0.188,0.622-0.295c0.193-0.101,0.392-0.24,0.456-0.46c0.053-0.179-0.007-0.351-0.099-0.503
		c0,0.001,0,0.003,0,0.004c-0.038-0.06-0.093-0.107-0.162-0.133c-0.168-0.062-0.359,0.028-0.419,0.196
		c-0.061,0.168,0.029,0.359,0.196,0.42c0.063,0.022,0.128,0.023,0.189,0.008c-0.045,0.03-0.096,0.056-0.151,0.075
		c-0.174,0.063-0.356,0.101-0.533,0.156c-0.349,0.11-0.693,0.307-0.832,0.665c-0.101,0.261-0.102,0.553,0.006,0.813
		c0.041,0.098,0.097,0.188,0.165,0.267C10.227,8.875,9.936,9.1,9.832,9.424C9.826,9.443,9.82,9.462,9.816,9.48V3.871
		C9.816,2.854,11.428,1.525,12.241,0.962z M6.735,0.962c0.814,0.563,2.426,1.891,2.426,2.909V9.48
		c-0.004-0.019-0.01-0.037-0.016-0.056C9.04,9.1,8.748,8.874,8.412,8.844C8.723,8.476,8.755,7.888,8.43,7.502
		c-0.253-0.3-0.645-0.397-1.008-0.496C7.303,6.973,7.165,6.939,7.06,6.865c0.064,0.018,0.133,0.019,0.2-0.005
		c0.167-0.062,0.256-0.251,0.196-0.419s-0.25-0.257-0.418-0.196c-0.07,0.026-0.125,0.073-0.163,0.133c0-0.001,0-0.003,0-0.004
		C6.779,6.533,6.72,6.712,6.782,6.896c0.069,0.209,0.262,0.343,0.45,0.44c0.21,0.109,0.438,0.185,0.641,0.306
		c0.088,0.053,0.174,0.116,0.236,0.199C8.134,7.875,8.156,7.91,8.173,7.947c0.003,0.005,0.021,0.047,0.012,0.019
		C8.259,8.182,8.282,8.39,8.213,8.612c-0.03,0.098-0.075,0.184-0.13,0.263C7.859,8.936,7.657,9.074,7.522,9.267
		C7.419,9.414,7.358,9.589,7.347,9.77c-0.006,0.102,0.006,0.203,0,0.306c-0.006,0.095-0.023,0.19-0.053,0.28
		c-0.028,0.086-0.071,0.162-0.123,0.233c0.029-0.163-0.016-0.349-0.082-0.485C7,9.914,6.875,9.738,6.735,9.586
		C6.611,9.723,6.5,9.878,6.413,10.042C6.33,10.195,6.266,10.406,6.3,10.588c-0.052-0.07-0.093-0.148-0.122-0.232
		c-0.031-0.09-0.047-0.187-0.053-0.28c-0.007-0.103,0.006-0.205,0-0.306C6.113,9.589,6.053,9.413,5.95,9.267
		C5.815,9.074,5.613,8.936,5.389,8.875C5.333,8.796,5.288,8.71,5.258,8.612C5.189,8.39,5.213,8.182,5.287,7.966
		C5.278,7.994,5.297,7.948,5.3,7.942c0.021-0.041,0.045-0.08,0.075-0.116c0.066-0.081,0.154-0.143,0.244-0.194
		C5.818,7.517,6.037,7.443,6.24,7.337c0.193-0.101,0.392-0.24,0.457-0.46c0.052-0.179-0.008-0.351-0.1-0.503
		c0,0.001,0,0.003,0,0.004c-0.038-0.06-0.093-0.107-0.162-0.133C6.267,6.184,6.076,6.273,6.016,6.441
		C5.955,6.609,6.044,6.799,6.212,6.86C6.275,6.883,6.34,6.884,6.401,6.868C6.356,6.899,6.305,6.924,6.25,6.944
		C6.076,7.007,5.893,7.044,5.716,7.1C5.368,7.21,5.023,7.406,4.884,7.765c-0.101,0.26-0.102,0.552,0.007,0.813
		c0.041,0.098,0.097,0.188,0.165,0.267c-0.335,0.031-0.626,0.256-0.73,0.58C4.32,9.443,4.315,9.462,4.311,9.48V3.871
		C4.311,2.854,5.923,1.525,6.735,0.962z M2.013,4.134C2.435,4.239,2.978,4.291,3.65,4.291c0.002,0,0.004,0,0.006,0v11.473H2.054
		c-0.013,0-0.027,0-0.041,0V4.134z"/>
</g>
</svg>
