<?xml version="1.0" encoding="utf-8"?>
<!-- Generator: Adobe Illustrator 16.0.0, SVG Export Plug-In . SVG Version: 6.00 Build 0)  -->
<!DOCTYPE svg PUBLIC "-//W3C//DTD SVG 1.1//EN" "http://www.w3.org/Graphics/SVG/1.1/DTD/svg11.dtd">
<svg version="1.1" id="Layer_1" xmlns="http://www.w3.org/2000/svg" xmlns:xlink="http://www.w3.org/1999/xlink" x="0px" y="0px"
	 width="24px" height="34px" viewBox="0 0 24 34" enable-background="new 0 0 24 34" xml:space="preserve">
<g display="none">
	<g display="inline">
		<path fill="#7F535F" d="M10.122,8.601c0.059,0,0.107-0.035,0.113-0.079c0.003-0.024-0.002-0.053-0.012-0.081
			c-0.014-0.043,0.042-0.019,0.13,0.051c0.089,0.07,0.162,0.169,0.162,0.222s0.038,0.094,0.083,0.094h0.083h0.648
			c0,0,0.045,0,0.101,0c0.055,0,0.338,0,0.632,0c0.108,0,0.221,0,0.329,0c0.293,0,0.576,0,0.632,0c0.05,0,0.101,0,0.101,0h0.648
			c0,0,0.038,0,0.083,0c0.047,0,0.084-0.042,0.084-0.094c0-0.052,0.072-0.151,0.161-0.221c0.09-0.07,0.146-0.094,0.131-0.051
			c-0.01,0.028-0.016,0.057-0.013,0.082c0.006,0.044,0.055,0.079,0.113,0.079c0.037,0,0.073-0.014,0.101-0.039
			c0.031-0.027,0.04-0.061,0.039-0.091c-0.002-0.057-0.029-0.17-0.029-0.261c0-0.091-0.009-0.162-0.018-0.158l-0.018,0.008
			c0,0-0.119,0.046-0.319,0.046c-0.197,0-0.507-0.045-0.873-0.266C12.96,7.688,12.792,7.511,12.68,7.35
			c-0.166-0.242-0.169-0.479-0.118-0.477c0.033,0.001,0.063,0.002,0.093,0.002c0.319,0,0.392-0.095,0.399-0.105
			c0,0,0.004-0.005,0.01-0.013c0.002-0.007,0.001-0.015-0.008-0.019l-0.014-0.006c-0.113-0.049-0.212-0.109-0.294-0.167
			c-0.154-0.108-0.259-0.229-0.262-0.24c-0.003-0.01-0.032-0.255-0.073-0.546c-0.034-0.244-0.075-0.534-0.11-0.778
			c-0.042-0.291-0.11-0.291-0.152,0l-0.113,0.779c-0.042,0.291-0.071,0.534-0.071,0.545c0,0.011-0.106,0.132-0.26,0.24
			c-0.082,0.057-0.182,0.117-0.296,0.166c0,0-0.006,0.003-0.014,0.006s-0.01,0.011-0.005,0.019l0.008,0.013
			c0.007,0.01,0.08,0.105,0.399,0.105c0.03,0,0.06-0.001,0.092-0.002c0.051-0.003,0.048,0.235-0.118,0.477
			c-0.111,0.162-0.279,0.338-0.533,0.491c-0.366,0.221-0.677,0.266-0.873,0.266c-0.2,0-0.319-0.046-0.32-0.046
			c0,0-0.008-0.004-0.017-0.007c-0.01-0.004-0.017,0.067-0.017,0.158s-0.028,0.204-0.03,0.26c0,0.032,0.009,0.065,0.038,0.091
			C10.048,8.587,10.084,8.601,10.122,8.601z"/>
		<path fill="#7F535F" d="M8.311,11.122c0.038-0.003,0.084-0.031,0.114-0.067c0.026-0.033,0.037-0.069,0.032-0.105
			c-0.004-0.033-0.02-0.063-0.04-0.09c-0.032-0.043-0.067-0.079-0.067-0.091c0.001-0.012,0.112,0.085,0.273,0.183
			c0.161,0.098,0.316,0.149,0.316,0.186c0,0.035,0.035,0.065,0.078,0.065h0.077h5.886c0.294,0,0.531-0.03,0.531-0.065
			c0-0.037,0.156-0.088,0.316-0.186c0.161-0.098,0.272-0.194,0.273-0.183c0.001,0.011-0.035,0.048-0.067,0.091
			c-0.018,0.026-0.034,0.057-0.039,0.089c-0.005,0.037,0.007,0.073,0.033,0.105c0.028,0.037,0.075,0.064,0.113,0.067
			c0.087,0,0.2-0.038,0.206-0.143c0.004-0.037-0.004-0.067-0.018-0.091c-0.023-0.045-0.063-0.146-0.063-0.24
			c0-0.094-0.015-0.178-0.031-0.186c-0.019-0.009-0.079,0.017-0.137,0.057c-0.057,0.04-0.344,0.121-0.632,0.066
			c-0.155-0.029-0.334-0.086-0.523-0.192c-0.567-0.314-0.808-0.953-0.812-0.96c0,0-0.001-0.003-0.003-0.008
			c0-0.004-0.025-0.008-0.052-0.008c-0.029,0-0.051-0.022-0.051-0.049s-0.021-0.049-0.044-0.049c-0.026,0-0.282,0-0.576,0
			c-0.962,0-2.893,0-2.893,0s-0.019,0-0.044,0c-0.024,0-0.044,0.022-0.044,0.049c0,0.026-0.022,0.049-0.05,0.049
			c-0.029,0-0.052,0.003-0.054,0.008l-0.003,0.009c-0.002,0.006-0.243,0.645-0.81,0.959c-0.19,0.105-0.369,0.163-0.523,0.192
			c-0.289,0.055-0.575-0.026-0.633-0.066c-0.058-0.041-0.119-0.066-0.136-0.057c-0.018,0.008-0.031,0.092-0.031,0.186
			c0,0.095-0.04,0.194-0.063,0.24c-0.013,0.024-0.021,0.055-0.018,0.091C8.111,11.089,8.239,11.126,8.311,11.122z"/>
		<path fill="#7F535F" d="M16.33,13.342c-0.023-0.046-0.063-0.146-0.063-0.24s-0.015-0.178-0.031-0.186
			c-0.019-0.009-0.079,0.017-0.137,0.057c-0.057,0.04-0.344,0.121-0.632,0.066c-0.155-0.03-0.334-0.087-0.523-0.192
			c-0.567-0.314-0.808-0.953-0.812-0.959c0,0-0.001-0.003-0.003-0.009c0-0.004-0.025-0.008-0.052-0.008
			c-0.029,0-0.051-0.022-0.051-0.049c0-0.027-0.021-0.049-0.044-0.049c-0.026,0-0.282,0-0.576,0c-0.962,0-2.893,0-2.893,0
			s-0.019,0-0.044,0c-0.024,0-0.044,0.022-0.044,0.049c0,0.027-0.022,0.049-0.05,0.049c-0.029,0-0.052,0.003-0.054,0.008
			l-0.003,0.009c-0.002,0.005-0.243,0.645-0.81,0.958c-0.19,0.105-0.369,0.163-0.523,0.192c-0.289,0.056-0.575-0.026-0.633-0.066
			c-0.058-0.04-0.119-0.067-0.136-0.057c-0.018,0.008-0.031,0.092-0.031,0.186s-0.04,0.194-0.063,0.24
			c-0.013,0.025-0.021,0.055-0.018,0.092c0.007,0.11,0.135,0.148,0.207,0.143c0.038-0.003,0.084-0.031,0.114-0.066
			c0.026-0.033,0.037-0.069,0.032-0.106c-0.004-0.032-0.02-0.062-0.04-0.089c-0.032-0.044-0.068-0.08-0.067-0.092
			c0.001-0.011,0.112,0.086,0.273,0.184c0.161,0.098,0.317,0.148,0.317,0.185c0,0.036,0.035,0.064,0.078,0.064h0.077
			c0,0,0.056,0,0.125,0c0.069,0,0.125,0.036,0.125,0.08c0,0.043,0.113,0.078,0.253,0.078c0.14,0,0.25,0.03,0.244,0.065
			c-0.003,0.022-0.005,0.044-0.008,0.066c-0.028,0.211-0.063,0.456-0.092,0.718c-0.033,0.263-0.057,0.544-0.085,0.824
			c-0.022,0.281-0.091,0.562-0.096,0.825c0,0.021,0,0.042,0.001,0.064c0.002,0.035-0.046,0.064-0.107,0.064s-0.11,0.048-0.11,0.106
			c0,0.059-0.099,0.107-0.219,0.107c-0.122,0-0.22,0.238-0.22,0.531v0.015c0,0.294,0.23,0.531,0.515,0.531h0.515h0.08h2.171h0.08
			h2.164h0.08c0,0,0.226,0,0.502,0c0.275,0,0.5-0.237,0.5-0.531v-0.015c0-0.293-0.091-0.531-0.206-0.531
			c-0.112,0-0.204-0.048-0.204-0.107c0-0.058-0.05-0.106-0.11-0.106c-0.062,0-0.108-0.029-0.106-0.064c0-0.021,0-0.042,0-0.064
			c-0.005-0.263-0.072-0.544-0.097-0.825c-0.026-0.28-0.051-0.56-0.084-0.824c-0.028-0.262-0.063-0.507-0.092-0.718
			c-0.003-0.022-0.007-0.044-0.008-0.066c-0.006-0.035,0.104-0.065,0.244-0.065c0.139,0,0.254-0.035,0.254-0.078
			c0-0.044,0.091-0.08,0.205-0.08c0.113,0,0.204-0.028,0.204-0.064c0-0.037,0.157-0.087,0.316-0.185
			c0.161-0.098,0.272-0.194,0.273-0.184c0.001,0.012-0.035,0.049-0.067,0.092C16.017,13.34,16,13.37,15.995,13.402
			c-0.005,0.037,0.007,0.073,0.033,0.106c0.028,0.036,0.075,0.064,0.114,0.066c0.086,0.001,0.2-0.038,0.207-0.142
			C16.352,13.396,16.344,13.365,16.33,13.342z M12.085,13.943c-0.029,0.211-0.064,0.456-0.093,0.719
			c-0.033,0.263-0.057,0.543-0.084,0.824c-0.023,0.281-0.091,0.561-0.097,0.824c0,0.021,0.001,0.043,0.001,0.065
			c0.002,0.036-0.046,0.064-0.107,0.064s-0.11,0.047-0.11,0.106c0,0.059-0.222,0.106-0.495,0.106s-0.495-0.047-0.495-0.106
			c0-0.059-0.049-0.106-0.111-0.106c-0.061,0-0.108-0.029-0.107-0.064c0.001-0.021,0.002-0.043,0.002-0.065
			c-0.005-0.263-0.073-0.542-0.097-0.824c-0.028-0.281-0.051-0.561-0.084-0.824c-0.029-0.263-0.063-0.508-0.092-0.719
			c-0.004-0.022-0.007-0.043-0.009-0.064c-0.005-0.037,0.104-0.066,0.244-0.066s0.253-0.036,0.253-0.079
			c0-0.042,0.222-0.078,0.495-0.078s0.495,0.036,0.495,0.078c0,0.043,0.113,0.079,0.253,0.079c0.139,0,0.249,0.03,0.245,0.066
			C12.091,13.9,12.087,13.921,12.085,13.943z M14.328,13.943c-0.028,0.211-0.063,0.456-0.091,0.719
			c-0.034,0.263-0.058,0.543-0.085,0.824c-0.022,0.281-0.091,0.561-0.098,0.824c0,0.021,0.002,0.043,0.002,0.065
			c0.002,0.036-0.045,0.064-0.106,0.064s-0.111,0.047-0.111,0.106c0,0.059-0.218,0.106-0.49,0.106c-0.271,0-0.491-0.047-0.491-0.106
			c0-0.059-0.05-0.106-0.11-0.106c-0.061,0-0.109-0.029-0.107-0.064c0-0.021,0.001-0.043,0.001-0.065
			c-0.005-0.263-0.073-0.542-0.096-0.824c-0.027-0.281-0.051-0.561-0.085-0.824c-0.029-0.263-0.063-0.508-0.092-0.719
			c-0.003-0.022-0.006-0.043-0.009-0.064c-0.004-0.037,0.105-0.066,0.244-0.066c0.14,0,0.253-0.036,0.253-0.079
			c0-0.042,0.221-0.078,0.492-0.078c0.271,0,0.49,0.036,0.49,0.078c0,0.043,0.114,0.079,0.254,0.079s0.25,0.03,0.244,0.066
			C14.334,13.9,14.331,13.921,14.328,13.943z"/>
	</g>
</g>
<path display="none" fill="#1CA4BA" d="M23.724,11.83C23.724,18.305,12,33.894,12,33.894S0.276,18.305,0.276,11.83
	C0.276,5.355,5.525,0.106,12,0.106C18.476,0.106,23.724,5.355,23.724,11.83z"/>
<circle display="none" fill="#FFFFFF" cx="12" cy="11.937" r="9.42"/>
<g display="none">
	<path display="inline" fill="#1CA4BA" d="M13.33,11.294v-2.66h0.887l-1.773-1.773V5.974h0.887V5.087h-0.887V4.201h-0.887v0.887
		H10.67v0.887h0.887v0.887L9.783,8.634h0.887v2.66l-4.434,3.546H8.01v3.547h2.66v-2.217c0-0.734,0.595-1.33,1.33-1.33
		c0.734,0,1.33,0.596,1.33,1.33v2.217h2.66v-3.547h1.773L13.33,11.294z M12.443,10.408h-0.887v-1.33
		c0-0.245,0.198-0.443,0.443-0.443s0.443,0.198,0.443,0.443V10.408z"/>
</g>
<g display="none">
	<polygon display="inline" fill="#1CA4BA" points="14.883,13.823 14.883,17.459 17.476,17.459 17.476,15.322 	"/>
	<polygon display="inline" fill="#1CA4BA" points="13.841,11.792 13.841,9.19 10.159,9.19 10.159,11.792 12,10.703 	"/>
	<polygon display="inline" fill="#1CA4BA" points="6.524,17.459 9.118,17.459 9.118,13.82 6.524,15.322 	"/>
	<path display="inline" fill="#1CA4BA" d="M9.389,12.563v4.896h5.223v-4.896L12,11.018L9.389,12.563z M11.882,17.26h-0.974v-2.274
		h0.974V17.26z M13.092,17.26h-0.975v-2.274h0.975V17.26z M13.138,13.915h-2.275c0-0.628,0.51-1.138,1.138-1.138
		S13.138,13.287,13.138,13.915z"/>
	<polygon display="inline" fill="#1CA4BA" points="10.551,8.933 13.449,8.933 12.135,6.483 12.135,5.69 12.678,5.69 12.678,5.42 
		12.135,5.42 12.135,5 11.865,5 11.865,5.42 11.323,5.42 11.323,5.69 11.865,5.69 11.865,6.483 	"/>
</g>
<g display="none">
	<path display="inline" fill="#40B3DB" d="M18.446,13.941c-0.487,0-0.95-0.211-1.271-0.582c-0.085-0.1-0.21-0.158-0.342-0.158
		c-0.131,0-0.256,0.058-0.342,0.158c-0.319,0.371-0.782,0.582-1.27,0.582s-0.95-0.211-1.27-0.582c-0.086-0.1-0.21-0.158-0.342-0.158
		c-0.131,0-0.256,0.058-0.342,0.158c-0.319,0.37-0.782,0.582-1.27,0.582s-0.95-0.212-1.27-0.582c-0.085-0.1-0.21-0.158-0.342-0.158
		s-0.257,0.058-0.342,0.158c-0.32,0.371-0.783,0.582-1.27,0.582s-0.95-0.211-1.269-0.582c-0.086-0.1-0.211-0.158-0.343-0.158
		c-0.131,0-0.255,0.058-0.342,0.158c-0.319,0.371-0.782,0.582-1.269,0.582c-0.25,0-0.452,0.202-0.452,0.452s0.202,0.451,0.452,0.451
		c0.525,0,1.031-0.159,1.457-0.451c0.053-0.036,0.104-0.075,0.155-0.115c0.05,0.04,0.102,0.079,0.155,0.115
		c0.425,0.292,0.931,0.451,1.457,0.451c0.526,0,1.032-0.159,1.457-0.451c0.053-0.036,0.105-0.075,0.155-0.115
		c0.05,0.04,0.102,0.079,0.155,0.115c0.424,0.292,0.931,0.451,1.456,0.451s1.032-0.159,1.456-0.451
		c0.053-0.036,0.105-0.075,0.155-0.115c0.051,0.04,0.103,0.079,0.154,0.115c0.426,0.292,0.932,0.451,1.457,0.451
		s1.031-0.159,1.456-0.451c0.053-0.036,0.105-0.075,0.155-0.115c0.051,0.04,0.102,0.079,0.156,0.115
		c0.425,0.292,0.93,0.451,1.456,0.451c0.249,0,0.451-0.201,0.451-0.451S18.695,13.941,18.446,13.941z"/>
	<path display="inline" fill="#40B3DB" d="M18.446,11.538c-0.487,0-0.95-0.212-1.271-0.583c-0.085-0.099-0.21-0.157-0.342-0.157
		c-0.131,0-0.256,0.058-0.342,0.157c-0.319,0.37-0.782,0.583-1.27,0.583s-0.95-0.212-1.27-0.583
		c-0.086-0.099-0.21-0.157-0.342-0.157c-0.131,0-0.256,0.058-0.342,0.157c-0.319,0.37-0.782,0.583-1.27,0.583
		s-0.95-0.212-1.27-0.583c-0.085-0.099-0.21-0.157-0.342-0.157s-0.257,0.058-0.342,0.157c-0.32,0.37-0.783,0.583-1.27,0.583
		s-0.95-0.212-1.269-0.583c-0.086-0.099-0.211-0.157-0.343-0.157c-0.131,0-0.255,0.058-0.342,0.157
		c-0.319,0.37-0.782,0.583-1.269,0.583c-0.25,0-0.452,0.202-0.452,0.451c0,0.25,0.202,0.452,0.452,0.452
		c0.525,0,1.031-0.16,1.457-0.452c0.053-0.036,0.104-0.074,0.155-0.114c0.05,0.041,0.102,0.079,0.155,0.114
		c0.425,0.292,0.931,0.452,1.457,0.452c0.526,0,1.032-0.16,1.457-0.452c0.053-0.036,0.105-0.074,0.155-0.114
		c0.05,0.041,0.102,0.079,0.155,0.114c0.424,0.292,0.931,0.452,1.456,0.452s1.032-0.16,1.456-0.452
		c0.053-0.036,0.105-0.074,0.155-0.114c0.051,0.041,0.103,0.079,0.154,0.114c0.426,0.292,0.932,0.452,1.457,0.452
		s1.031-0.16,1.456-0.452c0.053-0.036,0.105-0.074,0.155-0.114c0.051,0.041,0.102,0.079,0.156,0.114
		c0.425,0.292,0.93,0.452,1.456,0.452c0.249,0,0.451-0.202,0.451-0.452C18.897,11.74,18.695,11.538,18.446,11.538z"/>
	<path display="inline" fill="#40B3DB" d="M5.554,10.039c0.525,0,1.031-0.161,1.457-0.452C7.063,9.55,7.115,9.512,7.166,9.472
		c0.05,0.04,0.102,0.078,0.155,0.114c0.425,0.292,0.931,0.452,1.457,0.452c0.526,0,1.032-0.161,1.457-0.452
		c0.053-0.036,0.105-0.074,0.155-0.114c0.05,0.04,0.102,0.078,0.155,0.114c0.424,0.292,0.931,0.452,1.456,0.452
		s1.032-0.161,1.456-0.452c0.053-0.036,0.105-0.074,0.155-0.114c0.051,0.04,0.103,0.078,0.154,0.114
		c0.426,0.292,0.932,0.452,1.457,0.452s1.031-0.161,1.456-0.452c0.053-0.036,0.105-0.074,0.155-0.114
		c0.051,0.04,0.102,0.078,0.156,0.114c0.425,0.292,0.93,0.452,1.456,0.452c0.249,0,0.451-0.202,0.451-0.452
		c0-0.25-0.202-0.452-0.451-0.452c-0.487,0-0.95-0.212-1.271-0.583c-0.085-0.099-0.21-0.156-0.342-0.156
		c-0.131,0-0.256,0.057-0.342,0.156c-0.319,0.37-0.782,0.583-1.27,0.583s-0.95-0.212-1.27-0.583
		c-0.085-0.099-0.21-0.156-0.342-0.156c-0.131,0-0.256,0.057-0.342,0.156C12.95,8.922,12.487,9.135,12,9.135s-0.95-0.212-1.27-0.583
		c-0.085-0.1-0.21-0.156-0.342-0.156s-0.256,0.057-0.342,0.156c-0.32,0.37-0.782,0.583-1.27,0.583c-0.487,0-0.95-0.212-1.269-0.583
		C7.421,8.453,7.297,8.396,7.166,8.396S6.91,8.453,6.823,8.552C6.504,8.923,6.042,9.135,5.554,9.135
		c-0.25,0-0.452,0.202-0.452,0.452C5.103,9.836,5.305,10.039,5.554,10.039z"/>
</g>
<g>
	<path fill="#40B3DB" d="M23.692,11.844C23.692,18.302,12,33.849,12,33.849S0.308,18.302,0.308,11.844
		C0.308,5.386,5.542,0.151,12,0.151C18.458,0.151,23.692,5.386,23.692,11.844z"/>
	<g>
		<circle fill="#FFFFFF" cx="12" cy="12.177" r="9.394"/>
	</g>
	<g>
		<path fill="#40B3DB" d="M7.658,9.851c1.032-0.886,1.846-1.586,4.056-0.337c1.063,0.6,1.919,0.827,2.632,0.826
			c1.248,0,2.058-0.694,2.757-1.296c0.249-0.214,0.282-0.594,0.071-0.85c-0.21-0.254-0.583-0.287-0.832-0.073
			c-1.03,0.886-1.845,1.586-4.056,0.337c-2.921-1.65-4.289-0.475-5.388,0.469c-0.25,0.214-0.282,0.595-0.072,0.85
			C7.036,10.032,7.408,10.065,7.658,9.851z M16.342,11.136c-1.03,0.886-1.845,1.585-4.056,0.337
			c-2.921-1.65-4.289-0.475-5.388,0.469c-0.25,0.214-0.282,0.594-0.072,0.85c0.21,0.255,0.583,0.288,0.832,0.073
			c1.032-0.886,1.846-1.586,4.056-0.337c1.063,0.6,1.919,0.827,2.632,0.827c1.248,0,2.058-0.694,2.757-1.296
			c0.249-0.214,0.282-0.594,0.071-0.85C16.964,10.954,16.592,10.921,16.342,11.136z M16.342,14.149
			c-1.03,0.886-1.845,1.586-4.056,0.337c-2.921-1.65-4.289-0.475-5.388,0.47c-0.25,0.214-0.282,0.595-0.072,0.849
			c0.21,0.255,0.583,0.288,0.832,0.073c1.032-0.887,1.846-1.586,4.056-0.337c1.063,0.6,1.919,0.827,2.632,0.827
			c1.248,0,2.058-0.694,2.757-1.295c0.249-0.214,0.282-0.595,0.071-0.85C16.964,13.968,16.592,13.936,16.342,14.149z"/>
	</g>
</g>
</svg>
