<?xml version="1.0" encoding="utf-8"?>
<!-- Generator: Adobe Illustrator 16.0.0, SVG Export Plug-In . SVG Version: 6.00 Build 0)  -->
<!DOCTYPE svg PUBLIC "-//W3C//DTD SVG 1.1//EN" "http://www.w3.org/Graphics/SVG/1.1/DTD/svg11.dtd">
<svg version="1.1" id="Layer_1" xmlns="http://www.w3.org/2000/svg" xmlns:xlink="http://www.w3.org/1999/xlink" x="0px" y="0px"
	 width="34px" height="19px" viewBox="0 0 34 19" enable-background="new 0 0 34 19" xml:space="preserve">
<path opacity="0.5" fill="#404141" d="M33.538,8.07l-0.068-0.35l-0.135-0.329l-0.158-0.329l-0.202-0.308l-0.27-0.264l-0.271-0.199
	l-0.315-0.199l-0.336-0.152L31.42,5.853L31.039,5.81h-0.362l-0.358,0.043l-0.203,0.044L24.805,7.39L23.79,7.061l-1.009-0.306
	l-1.013-0.264l-1.035-0.24L19.697,6.03l-1.034-0.197l-1.036-0.176l-1.078-0.15l-1.058-0.113l-1.035-0.086h-0.18V4.1l-0.022-0.351
	l-0.067-0.349l-0.135-0.352l-0.159-0.307L13.69,2.433L13.421,2.17l-0.292-0.241l-0.314-0.177l-0.249-0.11h0.022l-0.65-0.218
	l-0.677-0.199l-0.652-0.175L9.934,0.94L9.258,0.852l-0.72-0.043L7.864,0.788L7.166,0.83L6.467,0.897L5.792,1.006L5.119,1.161
	L4.442,1.337L3.813,1.555L3.16,1.796L2.529,2.104L2.462,2.146L2.125,2.345L1.764,2.608L1.45,2.871L1.182,3.2L0.933,3.549L0.73,3.923
	L0.573,4.341L0.482,4.713L0.438,5.13L0.416,5.439v7.022l1.282,0.348l0.45-0.128v-1.689l17.396,4.914v1.932l1.281,0.376l1.26-0.376
	v-1.934l9.722-2.722v1.669l0.495,0.134l1.283-0.352v-6.19L33.538,8.07z M6.875,6.758L6.658,7.079L6.601,7.257v0.178l0.018,0.178
	L6.474,7.664l-0.273,0.09L5.909,7.79H5.636H5.618H5.454L5.198,7.719l-0.236-0.09l-0.22-0.142L4.561,7.327L4.396,7.112L4.287,6.9
	L4.196,6.652L4.16,6.422V6.155l0.037-0.233l0.091-0.23l0.127-0.231l0.146-0.196l0.255-0.249l0.728-0.568l0.365-0.213L6.31,4.021
	l0.419-0.178l0.42-0.141l0.456-0.108l0.438-0.069L8.5,3.488l0.437-0.017l0.456,0.054l0.437,0.034l0.437,0.122l0.456,0.127
	l0.401,0.161l0.401,0.193l0.383,0.213h0.017l0.092,0.088l0.056,0.108l0.037,0.107v0.107L12.07,4.893L11.996,5l-0.089,0.054
	l-0.11,0.053l-0.11,0.018h-0.128L11.066,5.14l-0.491,0.054l-0.51,0.071L9.591,5.389L9.098,5.549L8.625,5.728L8.169,5.941
	l-0.437,0.23L7.312,6.456L6.93,6.74L6.875,6.758z M21.847,8.063l-0.328,0.141l-0.292,0.16L20.936,8.56L20.68,8.773l-0.236,0.25
	l-0.201,0.285L20.08,9.609l-0.146,0.302l-0.094,0.319l-0.053,0.337l-0.019,0.339v1.278L9.581,9.308L9.417,9.235L9.127,9.13
	L8.872,8.954H8.835L8.726,8.828l-0.11-0.141L8.58,8.526L8.561,8.366L8.58,8.188l0.035-0.161l0.109-0.143l0.111-0.125l0.51-0.356
	l0.401-0.229l0.401-0.213l0.437-0.178l0.456-0.142l0.091-0.033l0.491-0.108l0.528-0.105l0.511-0.054l0.51-0.035h0.528l0.53,0.035
	l0.51,0.054l-0.273-0.019l0.966,0.141l0.931,0.161l0.967,0.176l0.947,0.196l0.929,0.196l0.929,0.249l0.947,0.249l0.91,0.265
	L21.847,8.063z"/>
</svg>
