<?xml version="1.0" encoding="utf-8"?>
<!-- Generator: Adobe Illustrator 16.0.0, SVG Export Plug-In . SVG Version: 6.00 Build 0)  -->
<!DOCTYPE svg PUBLIC "-//W3C//DTD SVG 1.1//EN" "http://www.w3.org/Graphics/SVG/1.1/DTD/svg11.dtd">
<svg version="1.1" id="Layer_1" xmlns="http://www.w3.org/2000/svg" xmlns:xlink="http://www.w3.org/1999/xlink" x="0px" y="0px"
	 width="24px" height="21px" viewBox="0 0 24 21" enable-background="new 0 0 24 21" xml:space="preserve">
<g>
	<path fill="#404141" d="M23.177,1.558h-0.921l0.15-0.55c0.062-0.223,0.015-0.462-0.127-0.648c-0.143-0.185-0.358-0.292-0.594-0.292
		H0.823c-0.412,0-0.746,0.332-0.746,0.746V9.01c0,0.412,0.334,0.746,0.746,0.746h5.589l2.011,2.682
		c0.141,0.188,0.361,0.299,0.596,0.299h0.746v1.492c0,1.23-1.003,2.233-2.237,2.233H3.803v-0.746c0-0.247-0.125-0.479-0.332-0.616
		l-2.236-1.49c-0.228-0.154-0.523-0.17-0.765-0.039c-0.242,0.132-0.394,0.384-0.394,0.658v5.959c0,0.275,0.151,0.528,0.394,0.658
		c0.11,0.059,0.231,0.088,0.352,0.088c0.145,0,0.289-0.043,0.414-0.125l2.236-1.49c0.207-0.139,0.332-0.37,0.332-0.621v-0.743h3.724
		c2.056,0,3.727-1.673,3.727-3.726v-1.492H12c0.234,0,0.456-0.11,0.596-0.299l2.014-2.682h4.845c0.337,0,0.631-0.226,0.719-0.55
		l0.46-1.686h2.547c0.411,0,0.745-0.334,0.745-0.746V2.303C23.923,1.89,23.589,1.558,23.177,1.558z M2.313,18.298l-0.746,0.498
		v-3.179l0.746,0.499V18.298z M11.627,11.246H9.392L8.274,9.754h4.471L11.627,11.246z M18.882,8.264h-4.646H6.784H1.567V1.558
		h19.145L18.882,8.264z M22.434,6.029h-1.396l0.813-2.98h0.582v2.98H22.434z"/>
	<circle fill="#404141" cx="3.777" cy="3.772" r="0.748"/>
	<circle fill="#404141" cx="6.767" cy="3.772" r="0.748"/>
</g>
</svg>
