<?xml version="1.0" encoding="utf-8"?>
<!-- Generator: Adobe Illustrator 16.0.0, SVG Export Plug-In . SVG Version: 6.00 Build 0)  -->
<!DOCTYPE svg PUBLIC "-//W3C//DTD SVG 1.1//EN" "http://www.w3.org/Graphics/SVG/1.1/DTD/svg11.dtd">
<svg version="1.1" id="Layer_1" xmlns="http://www.w3.org/2000/svg" xmlns:xlink="http://www.w3.org/1999/xlink" x="0px" y="0px"
	 width="19px" height="19px" viewBox="0 0 19 19" enable-background="new 0 0 19 19" xml:space="preserve">
<g>
	<g>
		<g>
			<path fill="#404141" d="M0.5,0.5v18h3.591h10.818H18.5v-18H0.5z M8.965,17.431H5.161V6.292h3.805V17.431z M8.965,5.223H7.896
				V4.795c0-0.885,0.72-1.604,1.604-1.604c0.885,0,1.604,0.719,1.604,1.604v0.428h-1.068V3.975h-1.07V5.223L8.965,5.223z
				 M13.84,17.431h-3.805l0,0V6.292h3.805V17.431z M17.431,17.431h-2.521V5.223h-2.735V4.795c0-1.474-1.199-2.673-2.674-2.673
				c-1.474,0-2.673,1.199-2.673,2.673v0.428H4.091v12.208H1.569V1.569h15.861V17.431L17.431,17.431z"/>
		</g>
	</g>
	<g>
		<g>
			<rect x="16.528" y="8.109" fill="#404141" width="1.283" height="1.069"/>
		</g>
	</g>
	<g>
		<g>
			<rect x="16.528" y="9.891" fill="#404141" width="1.283" height="1.07"/>
		</g>
	</g>
</g>
</svg>
