<?xml version="1.0" encoding="utf-8"?>
<!-- Generator: Adobe Illustrator 16.0.0, SVG Export Plug-In . SVG Version: 6.00 Build 0)  -->
<!DOCTYPE svg PUBLIC "-//W3C//DTD SVG 1.1//EN" "http://www.w3.org/Graphics/SVG/1.1/DTD/svg11.dtd">
<svg version="1.1" id="Layer_1" xmlns="http://www.w3.org/2000/svg" xmlns:xlink="http://www.w3.org/1999/xlink" x="0px" y="0px"
	 width="29px" height="16px" viewBox="0 0 29 16" enable-background="new 0 0 29 16" xml:space="preserve">
<g>
	<g>
		<path fill="#404141" d="M26.011,3.645c-0.436,0-0.864,0.124-1.243,0.349V3.645c0-2.065-1.047-3.111-3.109-3.111H7.345
			c-2.066,0-3.112,1.046-3.112,3.111v0.349c-0.38-0.225-0.809-0.343-1.244-0.349C1.614,3.645,0.5,4.759,0.5,6.134v4.979
			c0,1.375,1.114,2.488,2.489,2.488h1.244v1.241c0,0.347,0.28,0.622,0.623,0.622c0.342,0,0.623-0.275,0.623-0.622v-1.241h18.044
			v1.241c0,0.347,0.277,0.622,0.621,0.622c0.342,0,0.623-0.275,0.623-0.622v-1.241h1.237c1.374,0,2.494-1.113,2.494-2.488V6.134
			C28.5,4.759,27.385,3.645,26.011,3.645z M5.478,3.645c0-1.375,0.485-1.867,1.867-1.867h14.312c1.375,0,1.866,0.492,1.866,1.867V8
			H5.478V3.645z M27.256,11.111c0,0.688-0.564,1.244-1.25,1.244H2.989c-0.684,0-1.244-0.562-1.244-1.244V6.134
			c0-0.684,0.56-1.245,1.244-1.245c0.685,0,1.244,0.561,1.244,1.245v3.111h20.535V6.134c0-0.684,0.562-1.245,1.243-1.245
			c0.685,0,1.245,0.561,1.245,1.245V11.111L27.256,11.111z"/>
	</g>
</g>
</svg>
