<?xml version="1.0" encoding="utf-8"?>
<!-- Generator: Adobe Illustrator 16.0.0, SVG Export Plug-In . SVG Version: 6.00 Build 0)  -->
<!DOCTYPE svg PUBLIC "-//W3C//DTD SVG 1.1//EN" "http://www.w3.org/Graphics/SVG/1.1/DTD/svg11.dtd">
<svg version="1.1" id="Layer_1" xmlns="http://www.w3.org/2000/svg" xmlns:xlink="http://www.w3.org/1999/xlink" x="0px" y="0px"
	 width="21px" height="21px" viewBox="0 0 21 21" enable-background="new 0 0 21 21" xml:space="preserve">
<g>
	<g id="Icons_2_">
		<g>
			<path fill="#404141" d="M20.625,3.437c0-1.864-1.515-3.38-3.38-3.38H3.754c-1.864,0-3.38,1.516-3.38,3.38
				c0,1.861,1.513,3.375,3.373,3.379L2.721,18.594c-0.052,0.603,0.151,1.203,0.56,1.649c0.409,0.444,0.99,0.7,1.594,0.7h11.252
				c0.604,0,1.184-0.256,1.594-0.701c0.407-0.445,0.611-1.046,0.558-1.648L17.253,6.816C19.112,6.812,20.625,5.298,20.625,3.437z
				 M16.643,19.255c-0.132,0.145-0.32,0.228-0.516,0.228H4.875c-0.196,0-0.384-0.083-0.516-0.228
				c-0.132-0.145-0.199-0.339-0.181-0.533l1.24-14.554L15.552,4.14l1.271,14.582C16.841,18.916,16.774,19.11,16.643,19.255z
				 M17.245,4.624h-0.184l-0.053-0.611c-0.065-0.746-0.677-1.308-1.426-1.308H5.417c-0.748,0-1.362,0.562-1.426,1.307L3.938,4.624
				H3.754c-0.654,0-1.188-0.533-1.188-1.188c0-0.655,0.533-1.188,1.188-1.188h13.491c0.655,0,1.188,0.533,1.188,1.188
				C18.433,4.091,17.9,4.624,17.245,4.624z"/>
			<path fill="#404141" d="M7.823,9.558c-0.392-0.017-0.749,0.286-0.771,0.689l-0.366,6.518c-0.022,0.403,0.287,0.748,0.689,0.771
				c0.014,0,0.027,0,0.041,0c0.385,0,0.708-0.301,0.729-0.689l0.365-6.516C8.535,9.926,8.227,9.581,7.823,9.558z"/>
			<path fill="#404141" d="M11.559,4.868c-0.403,0-0.731,0.327-0.731,0.731v11.815c0,0.404,0.328,0.73,0.731,0.73
				s0.73-0.326,0.73-0.73V5.599C12.289,5.195,11.962,4.868,11.559,4.868z"/>
		</g>
	</g>
</g>
</svg>
