<?xml version="1.0" encoding="utf-8"?>
<!-- Generator: Adobe Illustrator 16.0.0, SVG Export Plug-In . SVG Version: 6.00 Build 0)  -->
<!DOCTYPE svg PUBLIC "-//W3C//DTD SVG 1.1//EN" "http://www.w3.org/Graphics/SVG/1.1/DTD/svg11.dtd">
<svg version="1.1" id="Layer_1" xmlns="http://www.w3.org/2000/svg" xmlns:xlink="http://www.w3.org/1999/xlink" x="0px" y="0px"
	 width="15px" height="22px" viewBox="0 0 15 22" enable-background="new 0 0 15 22" xml:space="preserve">
<g>
	<g>
		<path fill="#404141" d="M12.814,0.388H2.183c-0.902,0-1.635,0.735-1.635,1.635v16.825c0,0.901,0.733,1.637,1.635,1.637H2.21
			c-0.016,0.068-0.027,0.138-0.027,0.214c0,0.506,0.411,0.915,0.916,0.915h0.506c0.506,0,0.916-0.409,0.916-0.915
			c0-0.076-0.011-0.146-0.028-0.214h6.132c-0.018,0.068-0.027,0.138-0.027,0.214c0,0.506,0.409,0.915,0.914,0.915h0.506
			c0.506,0,0.916-0.409,0.916-0.915c0-0.078-0.014-0.151-0.029-0.224c0.859-0.045,1.55-0.754,1.55-1.627V2.023
			C14.451,1.123,13.716,0.388,12.814,0.388z M2.183,1.789h10.631c0.129,0,0.232,0.105,0.232,0.234v5.862H1.95V2.023
			C1.95,1.894,2.055,1.789,2.183,1.789z M12.814,19.081H2.183c-0.128,0-0.233-0.106-0.233-0.233v-9.56h11.099v9.56
			C13.048,18.975,12.943,19.081,12.814,19.081z"/>
		<rect x="3.117" y="3.542" fill="#404141" width="1.403" height="2.045"/>
		<rect x="3.117" y="10.435" fill="#404141" width="1.403" height="3.102"/>
	</g>
</g>
</svg>
