<?xml version="1.0" encoding="utf-8"?>
<!-- Generator: Adobe Illustrator 16.0.0, SVG Export Plug-In . SVG Version: 6.00 Build 0)  -->
<!DOCTYPE svg PUBLIC "-//W3C//DTD SVG 1.1//EN" "http://www.w3.org/Graphics/SVG/1.1/DTD/svg11.dtd">
<svg version="1.1" id="Layer_1" xmlns="http://www.w3.org/2000/svg" xmlns:xlink="http://www.w3.org/1999/xlink" x="0px" y="0px"
	 width="30px" height="18px" viewBox="0 0 30 18" enable-background="new 0 0 30 18" xml:space="preserve">
<g>
	<g>
		<path fill="#404141" d="M29.828,6.755V4.032h-1.877V1.925l-2.27-1.664l-2.27,1.664v2.107H20.83V1.925l-2.271-1.664l-2.27,1.664
			v2.107h-2.582V1.925l-2.27-1.664l-2.27,1.664v2.107h-2.58V1.925l-2.27-1.664l-2.27,1.664v2.107H0.172v2.723h1.876v4.601H0.172
			v2.723h1.876v3.662h4.539v-3.662H9.17v3.662h4.539v-3.662h2.582v3.662h4.54v-3.662h2.582v3.662h4.538v-3.662h1.877v-2.723h-1.877
			V6.755H29.828z M27.951,4.939h0.97v0.909h-0.97V4.939z M2.048,13.171H1.08v-0.907h0.968V13.171L2.048,13.171z M2.048,5.848H1.08
			V4.939h0.968V5.848L2.048,5.848z M13.709,4.939h2.582v0.909h-2.582V4.939L13.709,4.939z M9.17,13.171H6.587v-0.907H9.17V13.171z
			 M9.17,11.354H6.587v-0.771H5.679v6.249H2.956V2.385l1.362-0.998l1.361,0.998v5.142h0.908V6.755H9.17V11.354z M9.17,5.848H6.587
			V4.939H9.17V5.848z M12.801,16.832h-2.723V2.385l1.361-0.998l1.362,0.998V16.832z M13.709,11.354v-4.6h2.582v4.6H13.709z
			 M16.291,13.171h-2.582v-0.907h2.582V13.171z M23.413,13.171h-2.582v-0.907h2.582V13.171z M23.413,11.354h-2.582v-0.771h-0.907
			v6.249h-2.726V2.385l1.362-0.998l1.362,0.998v5.142h0.907V6.755h2.582L23.413,11.354L23.413,11.354z M23.413,5.848h-2.582V4.939
			h2.582V5.848z M27.044,16.832H24.32V2.385l1.361-0.998l1.361,0.998L27.044,16.832L27.044,16.832z M28.921,12.264v0.907h-0.97
			v-0.907H28.921z"/>
	</g>
</g>
<g>
	<g>
		<rect x="6.454" y="8.598" fill="#404141" width="0.881" height="0.881"/>
	</g>
</g>
<g>
	<g>
		<rect x="20.277" y="8.598" fill="#404141" width="0.882" height="0.881"/>
	</g>
</g>
</svg>
