<?xml version="1.0" encoding="utf-8"?>
<!-- Generator: Adobe Illustrator 16.0.0, SVG Export Plug-In . SVG Version: 6.00 Build 0)  -->
<!DOCTYPE svg PUBLIC "-//W3C//DTD SVG 1.1//EN" "http://www.w3.org/Graphics/SVG/1.1/DTD/svg11.dtd">
<svg version="1.1" id="Layer_1" xmlns="http://www.w3.org/2000/svg" xmlns:xlink="http://www.w3.org/1999/xlink" x="0px" y="0px"
	 width="21px" height="20px" viewBox="0 0 21 20" enable-background="new 0 0 21 20" xml:space="preserve">
<g>
	<g>
		<path fill="#404141" d="M19.025,18.356L19.025,18.356V7.778h1.766V4.212L10.5,0.378L0.21,4.212v3.566h1.765v10.579H0.167v1.266
			h1.808h2.643h11.766h2.643h1.808v-1.266H19.025L19.025,18.356z M1.475,6.513L1.475,6.513V5.091L10.5,1.729l9.024,3.362v1.422
			h-0.499H1.975H1.475L1.475,6.513z M15.118,18.356H5.882v-1.032h9.236V18.356z M15.118,16.059H5.882v-1.032h9.236V16.059z
			 M15.118,13.762H5.882V12.73h9.236V13.762z M15.118,11.465L15.118,11.465H5.882v-1.088h9.236V11.465z M17.76,18.356h-1.377l0,0
			V9.111H4.617v9.246H3.24V7.778h14.52V18.356L17.76,18.356z"/>
	</g>
</g>
</svg>
