<?xml version="1.0" encoding="utf-8"?>
<!-- Generator: Adobe Illustrator 16.0.0, SVG Export Plug-In . SVG Version: 6.00 Build 0)  -->
<!DOCTYPE svg PUBLIC "-//W3C//DTD SVG 1.1//EN" "http://www.w3.org/Graphics/SVG/1.1/DTD/svg11.dtd">
<svg version="1.1" id="Layer_1" xmlns="http://www.w3.org/2000/svg" xmlns:xlink="http://www.w3.org/1999/xlink" x="0px" y="0px"
	 width="34px" height="17px" viewBox="0 0 34 17" enable-background="new 0 0 34 17" xml:space="preserve">
<g>
	<g>
		<path fill="#404141" d="M32.566,6.14h-1.813V3.693c0-0.285-0.235-0.521-0.522-0.521h-2.938V0.719c0-0.284-0.235-0.521-0.521-0.521
			h-3.463c-0.285,0-0.521,0.237-0.521,0.521V6.14H11.116V0.719c0-0.284-0.237-0.521-0.521-0.521H7.134
			c-0.286,0-0.521,0.237-0.521,0.521v2.447H3.671c-0.283,0-0.521,0.235-0.521,0.521v2.446H1.427c-0.285,0-0.521,0.236-0.521,0.522
			v3.599c0,0.286,0.236,0.521,0.521,0.521h1.731v2.537c0,0.285,0.235,0.521,0.521,0.521h2.94v2.447c0,0.285,0.235,0.521,0.521,0.521
			h3.462c0.285,0,0.521-0.235,0.521-0.521V10.77h11.67v5.514c0,0.285,0.234,0.521,0.523,0.521h3.459
			c0.287,0,0.521-0.236,0.521-0.521v-2.447h2.939c0.285,0,0.521-0.236,0.521-0.521v-2.537h1.813c0.285,0,0.521-0.235,0.521-0.521
			V6.655C33.089,6.369,32.852,6.14,32.566,6.14z M3.158,9.742h-1.21V9.734V7.183h1.21V9.742z M6.619,12.799h-2.42V4.214h2.42V12.799
			z M10.073,15.77H7.654V1.24h2.419V15.77z M22.788,9.742H11.116V9.734V7.183h11.672V9.742z M26.248,15.77h-2.419V1.24h2.419V15.77z
			 M29.709,12.799h-2.418V4.214h2.418V12.799z M32.045,9.734h-1.292V7.183h1.292V9.734z"/>
	</g>
</g>
</svg>
