<?xml version="1.0" encoding="utf-8"?>
<!-- Generator: Adobe Illustrator 16.0.0, SVG Export Plug-In . SVG Version: 6.00 Build 0)  -->
<!DOCTYPE svg PUBLIC "-//W3C//DTD SVG 1.1//EN" "http://www.w3.org/Graphics/SVG/1.1/DTD/svg11.dtd">
<svg version="1.1" id="Layer_1" xmlns="http://www.w3.org/2000/svg" xmlns:xlink="http://www.w3.org/1999/xlink" x="0px" y="0px"
	 width="34px" height="35px" viewBox="0 0 34 35" enable-background="new 0 0 34 35" xml:space="preserve">
<g>
	<path fill="#404141" d="M33.7,27.245L20.95,14.243l3.435-3.434l1.182,1.181l2.663-2.662l-8.871-8.873l-2.663,2.662l1.181,1.183
		l-9.761,9.761l-1.183-1.183L4.271,15.54l8.875,8.873l2.662-2.663l-1.183-1.182l3.368-3.366l12.75,13.003L33.7,27.245z M18.47,3.118
		l0.889-0.888l7.096,7.099l-0.888,0.888l-0.294-0.295l0,0l-6.508-6.508l0,0L18.47,3.118z M14.032,21.75l-0.886,0.888L6.047,15.54
		l0.886-0.886l0.297,0.295l6.506,6.507L14.032,21.75z M9.003,14.949l9.761-9.761l4.732,4.733l-3.426,3.426l0,0l-1.479,1.479
		l-4.855,4.854L9.003,14.949z M20.063,15.131l11.873,12.106l-1.184,1.182L18.878,16.314L20.063,15.131z"/>
	<path fill="#404141" d="M15.023,28.269H1.973v2.511H0.3v3.766h16.731v-3.766h-2.008V28.269z M3.228,29.523h10.54v1.256H3.228
		V29.523z M15.777,32.036v1.254H1.556v-1.254h0.417h13.051H15.777z"/>
</g>
</svg>
