<?xml version="1.0" encoding="utf-8"?>
<!-- Generator: Adobe Illustrator 16.0.0, SVG Export Plug-In . SVG Version: 6.00 Build 0)  -->
<!DOCTYPE svg PUBLIC "-//W3C//DTD SVG 1.1//EN" "http://www.w3.org/Graphics/SVG/1.1/DTD/svg11.dtd">
<svg version="1.1" id="Layer_1" xmlns="http://www.w3.org/2000/svg" xmlns:xlink="http://www.w3.org/1999/xlink" x="0px" y="0px"
	 width="26px" height="26px" viewBox="0 0 26 26" enable-background="new 0 0 26 26" xml:space="preserve">
<path opacity="0.6" fill="#404141" d="M25.854,13c0-7.088-5.766-12.854-12.854-12.854C5.912,0.146,0.146,5.912,0.146,13
	c0,3.743,1.609,7.118,4.172,9.468l-0.011,0.012l0.417,0.351c0.026,0.023,0.056,0.045,0.083,0.067
	c0.221,0.182,0.451,0.357,0.684,0.524c0.077,0.057,0.152,0.111,0.229,0.162c0.25,0.173,0.506,0.335,0.769,0.49
	c0.057,0.034,0.114,0.067,0.172,0.101c0.286,0.162,0.578,0.315,0.878,0.458c0.022,0.012,0.045,0.02,0.067,0.028
	c0.976,0.454,2.018,0.786,3.109,0.984c0.028,0.006,0.056,0.011,0.085,0.016c0.339,0.06,0.681,0.104,1.026,0.138
	c0.043,0.002,0.085,0.005,0.127,0.009c0.346,0.03,0.694,0.047,1.047,0.047c0.35,0,0.696-0.017,1.039-0.044
	c0.043-0.007,0.087-0.007,0.13-0.012c0.343-0.03,0.684-0.078,1.019-0.134c0.027-0.006,0.059-0.012,0.089-0.017
	c1.071-0.193,2.098-0.52,3.063-0.96c0.036-0.017,0.071-0.034,0.105-0.051c0.291-0.133,0.572-0.278,0.848-0.435
	c0.067-0.039,0.137-0.078,0.207-0.117c0.251-0.151,0.496-0.307,0.736-0.469c0.09-0.061,0.173-0.122,0.257-0.185
	c0.206-0.147,0.406-0.301,0.603-0.457c0.044-0.036,0.09-0.067,0.134-0.103l0.43-0.357l-0.015-0.012
	C24.23,20.152,25.854,16.763,25.854,13z M1.08,13C1.08,6.428,6.428,1.08,13,1.08S24.92,6.428,24.92,13
	c0,3.542-1.554,6.726-4.014,8.91c-0.14-0.095-0.276-0.179-0.419-0.251l-3.955-1.978c-0.357-0.176-0.578-0.533-0.578-0.933v-1.38
	c0.093-0.115,0.187-0.244,0.287-0.386c0.514-0.723,0.924-1.528,1.222-2.394c0.595-0.28,0.977-0.87,0.977-1.537v-1.657
	c0-0.404-0.15-0.798-0.413-1.107V8.107c0.022-0.243,0.109-1.611-0.882-2.741C16.283,4.383,14.889,3.885,13,3.885
	S9.717,4.383,8.854,5.366c-0.99,1.128-0.904,2.499-0.88,2.741v2.181C7.709,10.597,7.56,10.99,7.56,11.396v1.657
	c0,0.515,0.231,0.995,0.626,1.318c0.379,1.485,1.158,2.606,1.447,2.986v1.353c0,0.382-0.208,0.734-0.544,0.915l-3.696,2.017
	c-0.117,0.064-0.235,0.14-0.352,0.224C2.612,19.682,1.08,16.515,1.08,13z"/>
</svg>
