<?xml version="1.0" encoding="utf-8"?>
<!-- Generator: Adobe Illustrator 16.0.0, SVG Export Plug-In . SVG Version: 6.00 Build 0)  -->
<!DOCTYPE svg PUBLIC "-//W3C//DTD SVG 1.1//EN" "http://www.w3.org/Graphics/SVG/1.1/DTD/svg11.dtd">
<svg version="1.1" id="Layer_1" xmlns="http://www.w3.org/2000/svg" xmlns:xlink="http://www.w3.org/1999/xlink" x="0px" y="0px"
	 width="19px" height="22px" viewBox="0 0 19 22" enable-background="new 0 0 19 22" xml:space="preserve">
<g>
	<g>
		<g>
			<g>
				<path fill="#404141" d="M7.375,2.888c-0.35,0-0.631,0.283-0.631,0.631v2.809c0,0.917-0.603,1.696-1.432,1.963v-7.16
					C5.313,0.783,5.029,0.5,4.683,0.5C4.335,0.5,4.05,0.783,4.05,1.131v7.161c-0.309-0.099-0.591-0.27-0.826-0.506
					C2.833,7.396,2.62,6.879,2.62,6.328V1.131C2.62,0.783,2.337,0.5,1.988,0.5c-0.347,0-0.632,0.283-0.632,0.631v5.197
					c0,0.888,0.347,1.723,0.975,2.351c0.478,0.476,1.071,0.79,1.72,0.914v1.403c-0.806,0.266-1.389,1.025-1.389,1.918v6.566
					c0,1.11,0.905,2.02,2.021,2.02c1.114,0,2.021-0.906,2.021-2.02v-6.566c0-0.538-0.21-1.045-0.593-1.429
					c-0.229-0.227-0.5-0.393-0.797-0.49V9.593c1.531-0.296,2.692-1.647,2.692-3.264V3.52C8.006,3.171,7.724,2.888,7.375,2.888z
					 M5.438,12.914v6.566c0,0.416-0.34,0.756-0.757,0.756c-0.418,0-0.759-0.34-0.759-0.756v-6.566c0-0.417,0.341-0.757,0.759-0.757
					c0.201,0,0.394,0.079,0.534,0.221C5.359,12.521,5.438,12.713,5.438,12.914z"/>
			</g>
		</g>
		<g>
			<g>
				<path fill="#404141" d="M16.673,1.471C16.047,0.845,15.215,0.5,14.329,0.5c-0.349,0-0.631,0.283-0.631,0.631V8.58v2.416
					c-0.806,0.266-1.39,1.025-1.39,1.918v6.566c0,1.11,0.903,2.02,2.021,2.02c1.114,0,2.021-0.906,2.021-2.02v-6.566
					c0-0.538-0.209-1.045-0.592-1.428c-0.229-0.228-0.5-0.393-0.797-0.491V9.15c1.525-0.295,2.684-1.642,2.684-3.253V3.814
					C17.645,2.929,17.299,2.097,16.673,1.471z M15.087,12.914v6.566c0,0.416-0.34,0.756-0.758,0.756
					c-0.417,0-0.757-0.34-0.757-0.756v-6.566c0-0.417,0.34-0.757,0.757-0.757c0.202,0,0.394,0.079,0.536,0.221
					C15.008,12.521,15.087,12.713,15.087,12.914z M16.381,5.897c0,0.911-0.597,1.686-1.42,1.953V1.861
					c0.305,0.098,0.585,0.269,0.818,0.502c0.389,0.387,0.602,0.903,0.602,1.451V5.897z"/>
			</g>
		</g>
	</g>
	<g>
		<g>
			<path fill="#404141" d="M7.374,0.5c-0.35,0-0.631,0.283-0.631,0.631v0.357c0,0.349,0.283,0.631,0.631,0.631
				c0.349,0,0.631-0.283,0.631-0.631V1.131C8.005,0.783,7.723,0.5,7.374,0.5z"/>
		</g>
	</g>
</g>
</svg>
