<svg xmlns="http://www.w3.org/2000/svg" width="27" height="20" viewBox="0 0 52.75 40">
  <defs>
    <style>
      .cls-1 {
        fill: #606060;
        fill-rule: evenodd;
      }
    </style>
  </defs>
  <path id="sort" class="cls-1" d="M86.9,278.718H65.077a1.82,1.82,0,0,0,0,3.64l21.826-.053a1.778,1.778,0,0,0,1.821-1.766,1.816,1.816,0,0,0-1.821-1.821h0ZM64.509,268.3a1.82,1.82,0,0,0-2.576,0l-9.582,11.027v-32.4a0.986,0.986,0,0,0-.986-0.986H49.7a0.986,0.986,0,0,0-.986.986v32.465L39.076,268.3a1.831,1.831,0,0,0-2.585,2.594l12.628,14.526a2.079,2.079,0,0,0,2.762,0L64.509,270.9a1.83,1.83,0,0,0,0-2.594h0ZM86.9,245.942H61.445a1.812,1.812,0,1,0,0,3.624H86.9a1.812,1.812,0,1,0,0-3.624h0Zm0,10.923H61.445a1.823,1.823,0,0,0-1.821,1.819,1.794,1.794,0,0,0,1.821,1.793L86.9,260.505a1.82,1.82,0,1,0,0-3.64h0Zm0,10.921H72.358a1.825,1.825,0,0,0-1.821,1.83,1.785,1.785,0,0,0,1.821,1.775H86.9a1.785,1.785,0,0,0,1.821-1.775,1.825,1.825,0,0,0-1.821-1.83h0Zm0,0" transform="translate(-35.969 -245.938)"/>
</svg>
