<?xml version="1.0" encoding="utf-8"?>
<!-- Generator: Adobe Illustrator 16.0.0, SVG Export Plug-In . SVG Version: 6.00 Build 0)  -->
<!DOCTYPE svg PUBLIC "-//W3C//DTD SVG 1.1//EN" "http://www.w3.org/Graphics/SVG/1.1/DTD/svg11.dtd">
<svg version="1.1" id="Layer_1" xmlns="http://www.w3.org/2000/svg" xmlns:xlink="http://www.w3.org/1999/xlink" x="0px" y="0px"
	 width="25px" height="24px" viewBox="0 0 25 24" enable-background="new 0 0 25 24" xml:space="preserve">
<g>
	<g>
		<g>
			<path fill="#404141" d="M24.176,22.367c-0.316,0-0.453-0.131-0.734-0.426c-0.321-0.342-0.764-0.808-1.602-0.808
				s-1.281,0.468-1.604,0.808c-0.279,0.295-0.416,0.426-0.73,0.426c-0.316,0-0.455-0.131-0.734-0.426
				c-0.319-0.342-0.764-0.808-1.602-0.808s-1.277,0.468-1.602,0.808c-0.281,0.295-0.418,0.426-0.732,0.426
				c-0.316,0-0.453-0.131-0.734-0.426c-0.322-0.342-0.762-0.808-1.601-0.808s-1.279,0.468-1.602,0.808
				c-0.28,0.295-0.417,0.426-0.732,0.426s-0.453-0.131-0.733-0.426c-0.323-0.34-0.765-0.808-1.602-0.808s-1.281,0.468-1.602,0.808
				c-0.28,0.295-0.417,0.428-0.733,0.428s-0.453-0.133-0.733-0.428c-0.323-0.34-0.765-0.808-1.603-0.808s-1.279,0.468-1.602,0.808
				c-0.279,0.295-0.417,0.428-0.732,0.428c-0.34,0-0.614,0.287-0.614,0.645c0,0.361,0.274,0.65,0.614,0.65
				c0.838,0,1.28-0.467,1.603-0.807c0.28-0.295,0.416-0.426,0.732-0.426s0.453,0.131,0.733,0.426
				c0.322,0.34,0.763,0.807,1.601,0.807s1.28-0.467,1.602-0.807c0.28-0.295,0.417-0.426,0.734-0.426
				c0.315,0,0.453,0.131,0.733,0.426c0.323,0.34,0.764,0.807,1.602,0.807c0.837,0,1.279-0.467,1.601-0.807
				c0.281-0.295,0.418-0.426,0.733-0.426c0.316,0,0.453,0.131,0.731,0.426c0.322,0.34,0.765,0.807,1.604,0.807
				c0.838,0,1.279-0.467,1.603-0.807c0.278-0.295,0.418-0.426,0.731-0.426c0.315,0,0.453,0.131,0.731,0.426
				c0.322,0.34,0.767,0.807,1.604,0.807c0.839,0,1.279-0.467,1.603-0.807c0.279-0.295,0.418-0.426,0.733-0.426
				c0.313,0,0.451,0.131,0.73,0.426c0.319,0.34,0.764,0.807,1.604,0.807c0.341,0,0.613-0.289,0.613-0.65
				C24.789,22.656,24.516,22.367,24.176,22.367z"/>
		</g>
	</g>
	<g>
		<g>
			<path fill="#404141" d="M24.176,19.709c-0.316,0-0.453-0.127-0.734-0.424c-0.321-0.342-0.764-0.805-1.602-0.805
				s-1.281,0.465-1.604,0.805c-0.279,0.297-0.416,0.424-0.73,0.424c-0.316,0-0.455-0.127-0.734-0.424
				c-0.037-0.041-0.084-0.086-0.127-0.129V4.223c0-1.429,1.103-2.591,2.457-2.591c1.355,0,2.459,1.162,2.459,2.591
				c0,0.36,0.273,0.649,0.613,0.649s0.615-0.289,0.615-0.649c0-2.145-1.654-3.887-3.688-3.887c-2.035,0-3.687,1.743-3.687,3.887
				v3.889H8.813V4.223c0-1.429,1.102-2.591,2.458-2.591c1.355,0,2.458,1.162,2.458,2.591c0,0.36,0.274,0.649,0.614,0.649
				c0.339,0,0.613-0.289,0.613-0.649c0-2.145-1.651-3.887-3.687-3.887c-2.035,0-3.686,1.742-3.686,3.887v14.291
				c-0.671,0.084-1.069,0.471-1.356,0.771c-0.28,0.297-0.417,0.424-0.733,0.424s-0.453-0.127-0.733-0.424
				C4.439,18.943,3.998,18.48,3.16,18.48c-0.838,0-1.279,0.465-1.602,0.805c-0.28,0.297-0.417,0.424-0.733,0.424
				c-0.34,0-0.614,0.291-0.614,0.648c0,0.358,0.274,0.649,0.614,0.649c0.838,0,1.28-0.469,1.603-0.809
				c0.28-0.294,0.417-0.427,0.732-0.427c0.316,0,0.453,0.133,0.733,0.427c0.322,0.342,0.763,0.809,1.601,0.809
				c0.839,0,1.281-0.469,1.603-0.809c0.28-0.294,0.417-0.427,0.733-0.427c0.315,0,0.453,0.133,0.733,0.427
				c0.323,0.342,0.764,0.809,1.602,0.809c0.837,0,1.279-0.469,1.601-0.809c0.281-0.294,0.418-0.427,0.733-0.427
				c0.316,0,0.453,0.133,0.731,0.427c0.322,0.342,0.765,0.809,1.604,0.809c0.838,0,1.276-0.469,1.603-0.809
				c0.278-0.294,0.418-0.427,0.731-0.427c0.315,0,0.453,0.133,0.729,0.427c0.324,0.342,0.769,0.809,1.605,0.809
				c0.836,0,1.277-0.469,1.6-0.809c0.279-0.294,0.418-0.427,0.732-0.427c0.316,0,0.453,0.133,0.732,0.427
				c0.322,0.342,0.766,0.809,1.604,0.809c0.34,0,0.615-0.291,0.615-0.649C24.789,20,24.516,19.709,24.176,19.709z M17.416,18.514
				c-0.084-0.012-0.154-0.033-0.246-0.033c-0.838,0-1.279,0.465-1.602,0.806c-0.281,0.297-0.418,0.424-0.732,0.424
				c-0.316,0-0.453-0.127-0.734-0.424c-0.322-0.343-0.762-0.806-1.601-0.806s-1.279,0.465-1.602,0.806
				c-0.28,0.297-0.417,0.424-0.733,0.424s-0.453-0.127-0.733-0.424c-0.163-0.172-0.359-0.377-0.619-0.537v-1.563h8.603
				L17.416,18.514L17.416,18.514z M17.416,15.887H8.813v-2.592h8.603V15.887z M17.416,12H8.813V9.406h8.603V12z"/>
		</g>
	</g>
</g>
</svg>
