<?xml version="1.0" encoding="utf-8"?>
<!-- Generator: Adobe Illustrator 16.0.0, SVG Export Plug-In . SVG Version: 6.00 Build 0)  -->
<!DOCTYPE svg PUBLIC "-//W3C//DTD SVG 1.1//EN" "http://www.w3.org/Graphics/SVG/1.1/DTD/svg11.dtd">
<svg version="1.1" id="Layer_1" xmlns="http://www.w3.org/2000/svg" xmlns:xlink="http://www.w3.org/1999/xlink" x="0px" y="0px"
	 width="17px" height="16px" viewBox="0 0 17 16" enable-background="new 0 0 17 16" xml:space="preserve">
<g>
	<g>
		<path fill="#51BF5B" d="M11.855,4.415h1.448l-2.149-3.688c-0.173-0.299-0.558-0.401-0.856-0.225
			C10,0.675,9.897,1.059,10.074,1.357L11.855,4.415z"/>
		<path fill="#51BF5B" d="M6.933,1.357c0.173-0.299,0.075-0.683-0.224-0.856C6.41,0.329,6.025,0.427,5.853,0.726l-2.15,3.691h1.45
			L6.933,1.357z"/>
		<path fill="#51BF5B" d="M15.704,5.545H1.292c-0.587,0-1.063,0.476-1.063,1.063v1.179c0,0.587,0.476,1.063,1.063,1.063h0.333
			l1.025,5.561c0.129,0.654,0.727,1.175,1.349,1.175h0.407h2.677c0.272,0,0.625,0,0.984,0l0,0h0.327h0.326l0,0
			c0.36,0,0.713,0,0.985,0h2.677h0.407c0.622,0,1.219-0.521,1.349-1.175l1.031-5.564h0.54c0.588,0,1.063-0.475,1.063-1.063V6.605
			C16.768,6.021,16.292,5.545,15.704,5.545z M6.097,11.102v2.396c0,0.346-0.278,0.603-0.601,0.603c-0.343,0-0.601-0.279-0.601-0.603
			v-1.004v-2.356c0-0.344,0.278-0.603,0.601-0.603c0.343,0,0.601,0.279,0.601,0.603V11.102z M8.026,11.102v2.396
			c0,0.346-0.278,0.603-0.601,0.603c-0.343,0-0.602-0.279-0.602-0.603v-1.004v-2.356c0-0.344,0.279-0.603,0.602-0.603
			s0.601,0.279,0.601,0.603V11.102z M9.966,12.494v1.004c0,0.323-0.258,0.603-0.601,0.603c-0.323,0-0.603-0.257-0.603-0.603v-2.396
			v-0.964c0-0.323,0.279-0.603,0.603-0.603c0.322,0,0.601,0.259,0.601,0.603V12.494z M11.895,12.494v1.004
			c0,0.323-0.258,0.603-0.602,0.603c-0.322,0-0.601-0.257-0.601-0.603v-2.396v-0.964c0-0.323,0.258-0.603,0.601-0.603
			c0.323,0,0.602,0.259,0.602,0.603V12.494z"/>
	</g>
</g>
</svg>
