<?xml version="1.0" encoding="utf-8"?>
<!-- Generator: Adobe Illustrator 19.0.0, SVG Export Plug-In . SVG Version: 6.00 Build 0)  -->
<svg version="1.1" id="Layer_1" xmlns="http://www.w3.org/2000/svg" xmlns:xlink="http://www.w3.org/1999/xlink" x="0px" y="0px"
	 viewBox="0 0 512 512" style="enable-background:new 0 0 512 512;" xml:space="preserve">
<g>
	<path fill="#686868" d="M512,129.3V-0.4H382.2v56.9H129.3V-0.4H-0.4v129.7h56.9v252.9H-0.4V512h129.7v-56.9h252.9V512H512V382.2h-56.9
		V129.3H512z M398.1,15.5h98v97.9h-98V15.5z M15.5,113.4V15.5h97.9v98L15.5,113.4L15.5,113.4z M113.5,496.1h-98v-98h98V496.1z
		 M496.1,398.1v98h-98v-98H496.1z M439.2,382.2h-56.9v56.9H129.3v-56.9H72.4V129.3h56.9V72.4h252.9v56.9h56.9V382.2z M439.2,382.2"
		/>
</g>
</svg>
