<?xml version="1.0" encoding="utf-8"?>
<!-- Generator: Adobe Illustrator 16.0.0, SVG Export Plug-In . SVG Version: 6.00 Build 0)  -->
<!DOCTYPE svg PUBLIC "-//W3C//DTD SVG 1.1//EN" "http://www.w3.org/Graphics/SVG/1.1/DTD/svg11.dtd">
<svg version="1.1" id="Layer_1" xmlns="http://www.w3.org/2000/svg" xmlns:xlink="http://www.w3.org/1999/xlink" x="0px" y="0px"
	 width="27px" height="22px" viewBox="0 0 27 22" enable-background="new 0 0 27 22" xml:space="preserve">
<g>
	<path fill="#404141" d="M24.438,0.793V0.758h-0.119H2.672h-0.12v0.036C1.844,0.843,1.313,1.408,1.229,2.09v0.12v14.264
		c0,0.277,0.072,0.51,0.192,0.721c0.274,0.486,0.685,0.73,1.249,0.73h7.898v1.994h-1.5c-0.373,0-0.658,0.289-0.658,0.66
		s0.288,0.662,0.658,0.662h8.85c0.372,0,0.673-0.291,0.673-0.662s-0.301-0.66-0.673-0.66h-1.501v-1.994h7.899
		c0.563,0,0.977-0.244,1.25-0.73c0.121-0.221,0.203-0.455,0.203-0.721V2.209v-0.12C25.688,1.408,25.124,0.843,24.438,0.793z
		 M24.438,2.209v14.265c0,0.084-0.035,0.121-0.119,0.121H2.672c-0.084,0-0.12-0.037-0.12-0.121V2.209v-0.12h21.887V2.209
		L24.438,2.209z"/>
</g>
</svg>
