<?xml version="1.0" encoding="utf-8"?>
<!-- Generator: Adobe Illustrator 16.0.0, SVG Export Plug-In . SVG Version: 6.00 Build 0)  -->
<!DOCTYPE svg PUBLIC "-//W3C//DTD SVG 1.1//EN" "http://www.w3.org/Graphics/SVG/1.1/DTD/svg11.dtd">
<svg version="1.1" id="Capa_1" xmlns="http://www.w3.org/2000/svg" xmlns:xlink="http://www.w3.org/1999/xlink" x="0px" y="0px"
	 width="25px" height="18px" viewBox="0 0 25 18" enable-background="new 0 0 25 18" xml:space="preserve">
<g>
	<path fill="#404141" d="M24.393,5.353C21.221,2.181,16.996,0.435,12.5,0.435c-4.497,0-8.72,1.746-11.891,4.918
		c-0.171,0.171-0.171,0.447,0,0.619c0.171,0.171,0.448,0.171,0.619,0C4.233,2.964,8.236,1.31,12.5,1.31
		c4.264,0,8.266,1.654,11.273,4.661C23.857,6.057,23.971,6.1,24.081,6.1c0.112,0,0.226-0.043,0.312-0.128
		C24.563,5.799,24.563,5.522,24.393,5.353z"/>
	<path fill="#404141" d="M3.182,7.925c-0.171,0.172-0.171,0.448,0,0.619c0.085,0.085,0.197,0.128,0.309,0.128
		c0.113,0,0.224-0.043,0.31-0.128c4.796-4.796,12.6-4.796,17.398,0c0.171,0.171,0.447,0.171,0.617,0
		c0.174-0.171,0.174-0.447,0-0.619C16.682,2.787,8.319,2.786,3.182,7.925z"/>
	<path fill="#404141" d="M12.5,7.709c-2.55,0-4.945,0.991-6.744,2.79c-0.171,0.17-0.171,0.446,0,0.618
		c0.171,0.171,0.448,0.171,0.619,0c1.633-1.632,3.809-2.532,6.125-2.532c2.316,0,4.493,0.9,6.125,2.532
		c0.086,0.086,0.198,0.129,0.311,0.129c0.111,0,0.225-0.043,0.311-0.129c0.171-0.172,0.171-0.448,0-0.618
		C17.445,8.7,15.051,7.709,12.5,7.709z"/>
	<path fill="#404141" d="M12.5,11.828c-1.581,0-2.868,1.287-2.868,2.869c0,1.58,1.287,2.867,2.868,2.867
		c1.583,0,2.869-1.287,2.869-2.867C15.368,13.115,14.082,11.828,12.5,11.828z M12.5,16.688c-1.099,0-1.993-0.894-1.993-1.994
		c0-1.098,0.895-1.989,1.993-1.989c1.098,0,1.993,0.896,1.993,1.989C14.492,15.796,13.6,16.688,12.5,16.688z"/>
</g>
</svg>
