<?xml version="1.0" encoding="utf-8"?>
<!-- Generator: Adobe Illustrator 16.0.0, SVG Export Plug-In . SVG Version: 6.00 Build 0)  -->
<!DOCTYPE svg PUBLIC "-//W3C//DTD SVG 1.1//EN" "http://www.w3.org/Graphics/SVG/1.1/DTD/svg11.dtd">
<svg version="1.1" id="Layer_1" xmlns="http://www.w3.org/2000/svg" xmlns:xlink="http://www.w3.org/1999/xlink" x="0px" y="0px"
	 width="14px" height="14px" viewBox="0 0 14 14" enable-background="new 0 0 14 14" xml:space="preserve">
<g opacity="0.4">
	<g>
		<path fill-rule="evenodd" clip-rule="evenodd" fill="none" d="M0.197,7.321c0-2.245,0.005-4.491-0.005-6.736
			C0.191,0.306,0.2,0.187,0.555,0.188c4.296,0.019,8.593,0.019,12.889,0c0.355-0.001,0.365,0.118,0.364,0.397
			c-0.011,2.246-0.007,4.491-0.007,6.736c-0.21-0.016-0.42-0.044-0.63-0.044C9.527,7.273,5.883,7.269,2.238,7.282
			C1.833,7.284,1.688,7.188,1.696,6.755C1.723,5.287,1.704,3.818,1.71,2.349c0.001-0.208,0.016-0.43,0.084-0.625
			c0.197-0.568,0.911-0.732,1.343-0.322c0.222,0.211,0.288,0.387-0.002,0.645C2.451,2.652,2.318,3.547,2.706,4.363
			c0.108,0.227,0.205,0.28,0.435,0.17c0.956-0.457,1.915-0.909,2.88-1.345c0.249-0.113,0.3-0.223,0.174-0.475
			C5.862,2.046,5.359,1.629,4.606,1.544C4.415,1.523,4.249,1.523,4.118,1.311C3.58,0.438,2.89,0.122,2.099,0.344
			C1.283,0.573,0.834,1.246,0.833,2.257C0.83,3.69,0.805,5.125,0.846,6.557C0.861,7.074,0.766,7.362,0.197,7.321z"/>
		<path fill-rule="evenodd" clip-rule="evenodd" d="M0.197,7.321c0.569,0.041,0.664-0.247,0.649-0.765
			C0.805,5.125,0.83,3.69,0.833,2.257c0.002-1.011,0.45-1.684,1.267-1.913C2.89,0.122,3.58,0.438,4.118,1.311
			c0.131,0.212,0.297,0.212,0.488,0.233c0.752,0.085,1.256,0.501,1.589,1.168C6.322,2.964,6.27,3.075,6.021,3.188
			c-0.966,0.437-1.925,0.888-2.88,1.345c-0.23,0.11-0.327,0.057-0.435-0.17C2.318,3.547,2.451,2.652,3.135,2.046
			c0.29-0.257,0.224-0.434,0.002-0.645c-0.432-0.41-1.146-0.246-1.343,0.322C1.726,1.919,1.711,2.141,1.71,2.349
			C1.704,3.818,1.723,5.287,1.696,6.755C1.688,7.188,1.833,7.284,2.238,7.282c3.645-0.013,7.29-0.009,10.934-0.005
			c0.21,0,0.42,0.029,0.63,0.044c0,0.284,0,0.567,0,0.851c-0.482-0.11-0.667,0.079-0.718,0.577c-0.112,1.09-0.538,2.047-1.427,2.743
			c-0.261,0.204-0.771,0.373-0.771,0.561c-0.001,0.297,0.336,0.588,0.517,0.891c0.063,0.104,0.223,0.184,0.087,0.361
			c-0.3,0.394-0.639,0.396-0.917-0.014c-0.16-0.233-0.33-0.46-0.474-0.704c-0.13-0.22-0.281-0.313-0.556-0.293
			c-1.359,0.105-2.731,0.147-4.079,0.021c-1.043-0.098-1.715,0.164-2.128,1.108c-0.125,0.283-0.276,0.252-0.527,0.104
			c-0.363-0.215-0.406-0.41-0.133-0.722c0.15-0.172,0.254-0.383,0.393-0.565c0.133-0.174,0.09-0.26-0.099-0.355
			c-1.289-0.646-1.896-1.761-2.054-3.136C0.86,8.252,0.682,8.062,0.197,8.172C0.197,7.889,0.197,7.605,0.197,7.321z"/>
		<path fill-rule="evenodd" clip-rule="evenodd" fill="none" d="M0.197,8.172c0.484-0.11,0.663,0.08,0.719,0.577
			c0.158,1.375,0.765,2.489,2.054,3.136C3.16,11.98,3.203,12.066,3.07,12.24c-0.139,0.183-0.243,0.394-0.393,0.565
			c-0.273,0.312-0.23,0.507,0.133,0.722c0.251,0.147,0.403,0.179,0.527-0.104c0.413-0.944,1.084-1.206,2.128-1.108
			c1.348,0.127,2.719,0.085,4.079-0.021c0.274-0.021,0.426,0.073,0.556,0.293c0.144,0.244,0.313,0.471,0.474,0.704
			c0.278,0.409,0.617,0.407,0.917,0.014c0.136-0.178-0.024-0.257-0.087-0.361c-0.181-0.303-0.518-0.594-0.517-0.891
			c0-0.188,0.51-0.356,0.771-0.561c0.889-0.696,1.314-1.653,1.427-2.743c0.051-0.498,0.235-0.688,0.718-0.577
			c0,1.771-0.006,3.544,0.008,5.313c0.002,0.268-0.06,0.327-0.326,0.326c-4.323-0.01-8.645-0.01-12.967,0
			c-0.266,0.001-0.329-0.059-0.326-0.326C0.205,11.716,0.197,9.943,0.197,8.172z"/>
	</g>
</g>
</svg>
