<?xml version="1.0" encoding="utf-8"?>
<!-- Generator: Adobe Illustrator 16.0.0, SVG Export Plug-In . SVG Version: 6.00 Build 0)  -->
<!DOCTYPE svg PUBLIC "-//W3C//DTD SVG 1.1//EN" "http://www.w3.org/Graphics/SVG/1.1/DTD/svg11.dtd">
<svg version="1.1" id="Layer_1" xmlns="http://www.w3.org/2000/svg" xmlns:xlink="http://www.w3.org/1999/xlink" x="0px" y="0px"
	 width="21px" height="12px" viewBox="0 0 21 12" enable-background="new 0 0 21 12" xml:space="preserve">
<path fill="#959595" d="M20.806,5.11l-0.042-0.218L20.68,4.687l-0.099-0.205L20.455,4.29l-0.168-0.164l-0.169-0.124l-0.196-0.124
	l-0.21-0.095l-0.225-0.055l-0.238-0.027h-0.225l-0.224,0.027l-0.126,0.028l-3.31,0.93l-0.632-0.205L14.103,4.29l-0.63-0.164
	l-0.646-0.15l-0.645-0.137l-0.645-0.123l-0.645-0.11L10.22,3.512L9.561,3.442L8.916,3.388H8.804V2.636L8.79,2.417L8.748,2.199
	L8.664,1.98L8.565,1.789L8.439,1.597L8.271,1.433l-0.182-0.15L7.893,1.173L7.738,1.104h0.014L7.346,0.968L6.925,0.844L6.518,0.735
	l-0.42-0.068L5.677,0.612L5.228,0.585l-0.42-0.013L4.373,0.598L3.938,0.64L3.517,0.708l-0.42,0.096l-0.421,0.11L2.284,1.05
	l-0.407,0.15L1.484,1.392L1.442,1.418l-0.21,0.124L1.007,1.706L0.811,1.87L0.644,2.075L0.489,2.293L0.363,2.526l-0.098,0.26
	L0.208,3.018l-0.028,0.26L0.167,3.47v4.376l0.799,0.217l0.28-0.081V6.929l10.839,3.063v1.204l0.799,0.233l0.785-0.233V9.991
	l6.058-1.696v1.04l0.308,0.083l0.8-0.219V5.342L20.806,5.11z M4.192,4.292l-0.136,0.2L4.021,4.603v0.111l0.011,0.111L3.942,4.857
	l-0.17,0.056L3.59,4.935h-0.17H3.408H3.306L3.147,4.891L3,4.835L2.863,4.747L2.75,4.647L2.647,4.513L2.579,4.381L2.522,4.226
	L2.5,4.083V3.916l0.023-0.145L2.58,3.628l0.079-0.144L2.75,3.362l0.159-0.155l0.454-0.354L3.59,2.72l0.25-0.133l0.261-0.111
	l0.262-0.088l0.284-0.067l0.273-0.043l0.284-0.023l0.272-0.011L5.76,2.278l0.272,0.021l0.272,0.076l0.284,0.079l0.25,0.1l0.25,0.121
	l0.238,0.133h0.011l0.057,0.055L7.429,2.93l0.023,0.067v0.067L7.429,3.13L7.383,3.197L7.327,3.23L7.259,3.263L7.19,3.274h-0.08
	l-0.307,0.01L6.497,3.318L6.179,3.362L5.884,3.439l-0.307,0.1L5.282,3.65L4.998,3.783L4.726,3.927L4.464,4.104L4.226,4.281
	L4.192,4.292z M13.521,5.105l-0.204,0.088l-0.182,0.1l-0.182,0.122l-0.159,0.133l-0.147,0.155l-0.125,0.178l-0.102,0.188
	L12.33,6.257l-0.058,0.199l-0.034,0.21l-0.012,0.211v0.797L5.878,5.881L5.776,5.836L5.595,5.77L5.436,5.66H5.413L5.345,5.582
	L5.277,5.494l-0.023-0.1l-0.012-0.1l0.012-0.111l0.022-0.1l0.068-0.089l0.069-0.078l0.318-0.222l0.25-0.143l0.25-0.133l0.272-0.111
	l0.284-0.088l0.057-0.021L7.15,4.131l0.329-0.066l0.318-0.034l0.318-0.021h0.329l0.33,0.021l0.318,0.034l-0.17-0.012l0.602,0.088
	l0.58,0.1l0.602,0.11l0.59,0.122l0.579,0.122l0.579,0.155l0.59,0.155l0.568,0.165L13.521,5.105z"/>
</svg>
