<?xml version="1.0" encoding="utf-8"?>
<!-- Generator: Adobe Illustrator 16.0.0, SVG Export Plug-In . SVG Version: 6.00 Build 0)  -->
<!DOCTYPE svg PUBLIC "-//W3C//DTD SVG 1.1//EN" "http://www.w3.org/Graphics/SVG/1.1/DTD/svg11.dtd">
<svg version="1.1" id="Layer_1" xmlns="http://www.w3.org/2000/svg" xmlns:xlink="http://www.w3.org/1999/xlink" x="0px" y="0px"
	 width="10px" height="10px" viewBox="0 0 10 10" enable-background="new 0 0 10 10" xml:space="preserve">
<path fill="#404141" d="M6.438,5.16c-0.091-0.092-0.091-0.229,0-0.32l3.425-3.425C9.954,1.324,10,1.187,10,1.096
	S9.954,0.868,9.863,0.776l-0.64-0.639C9.133,0.046,8.996,0,8.904,0c-0.137,0-0.229,0.046-0.32,0.137L5.16,3.562
	c-0.091,0.091-0.228,0.091-0.319,0L1.416,0.137C1.324,0.046,1.187,0,1.096,0S0.868,0.046,0.776,0.137L0.137,0.776
	C0.046,0.868,0,1.004,0,1.096s0.046,0.229,0.137,0.32L3.562,4.84c0.091,0.091,0.091,0.228,0,0.32L0.137,8.584
	C0.046,8.676,0,8.813,0,8.904s0.046,0.229,0.137,0.319l0.639,0.64C0.868,9.954,1.004,10,1.096,10s0.229-0.046,0.32-0.137L4.84,6.438
	c0.091-0.091,0.228-0.091,0.319,0l3.424,3.425C8.676,9.954,8.813,10,8.904,10s0.229-0.046,0.319-0.137l0.64-0.64
	C9.954,9.133,10,8.996,10,8.904s-0.046-0.229-0.137-0.32L6.438,5.16z"/>
</svg>
