<?xml version="1.0" encoding="utf-8"?>
<!-- Generator: Adobe Illustrator 16.0.0, SVG Export Plug-In . SVG Version: 6.00 Build 0)  -->
<!DOCTYPE svg PUBLIC "-//W3C//DTD SVG 1.1//EN" "http://www.w3.org/Graphics/SVG/1.1/DTD/svg11.dtd">
<svg version="1.1" id="Layer_1" xmlns="http://www.w3.org/2000/svg" xmlns:xlink="http://www.w3.org/1999/xlink" x="0px" y="0px"
	 width="16px" height="10px" viewBox="0 0 16 10" enable-background="new 0 0 16 10" xml:space="preserve">
<g opacity="0.75">
	<path fill="#404141" d="M8,0.234C4.674,0.234,1.792,2.171,0.375,5C1.792,7.829,4.674,9.766,8,9.766
		c3.326,0,6.208-1.937,7.625-4.766C14.208,2.171,11.326,0.234,8,0.234z M11.76,2.762C12.655,3.333,13.415,4.099,13.985,5
		c-0.57,0.901-1.33,1.667-2.226,2.238C10.634,7.956,9.334,8.336,8,8.336s-2.634-0.38-3.76-1.098C3.344,6.667,2.585,5.901,2.015,5
		c0.57-0.901,1.329-1.667,2.225-2.238c0.059-0.037,0.118-0.073,0.177-0.109C4.269,3.06,4.188,3.499,4.188,3.958
		C4.188,6.063,5.895,7.77,8,7.77s3.813-1.706,3.813-3.812c0-0.458-0.081-0.897-0.229-1.305C11.643,2.688,11.701,2.725,11.76,2.762z
		 M8,3.481c0,0.79-0.64,1.43-1.43,1.43s-1.43-0.64-1.43-1.43s0.64-1.43,1.43-1.43S8,2.691,8,3.481z"/>
</g>
</svg>
