<?xml version="1.0" encoding="utf-8"?>
<!-- Generator: Adobe Illustrator 16.0.0, SVG Export Plug-In . SVG Version: 6.00 Build 0)  -->
<!DOCTYPE svg PUBLIC "-//W3C//DTD SVG 1.1//EN" "http://www.w3.org/Graphics/SVG/1.1/DTD/svg11.dtd">
<svg version="1.1" id="Layer_1" xmlns="http://www.w3.org/2000/svg" xmlns:xlink="http://www.w3.org/1999/xlink" x="0px" y="0px"
	 width="15px" height="15px" viewBox="0 0 15 15" enable-background="new 0 0 15 15" xml:space="preserve">
<path fill="#404141" d="M10.745,0.39C9.478,0.39,8.29,0.965,7.5,1.927C6.709,0.964,5.523,0.39,4.254,0.39
	c-2.317,0-4.203,1.886-4.203,4.203c0,1.814,1.082,3.914,3.216,6.238c1.642,1.789,3.428,3.175,3.937,3.557L7.5,14.61l0.295-0.223
	c0.508-0.382,2.294-1.768,3.936-3.557c2.136-2.323,3.217-4.424,3.217-6.238C14.948,2.275,13.063,0.39,10.745,0.39z M11.009,10.167
	c-1.351,1.473-2.806,2.661-3.509,3.21c-0.705-0.549-2.158-1.737-3.508-3.21C2.057,8.06,1.034,6.131,1.034,4.593
	c0-1.776,1.445-3.22,3.221-3.22c1.169,0,2.248,0.637,2.815,1.661L7.5,3.81l0.43-0.775c0.567-1.024,1.647-1.661,2.815-1.661
	c1.776,0,3.222,1.443,3.222,3.22C13.967,6.131,12.943,8.06,11.009,10.167z"/>
</svg>
