<?xml version="1.0" encoding="utf-8"?>
<!-- Generator: Adobe Illustrator 21.1.0, SVG Export Plug-In . SVG Version: 6.00 Build 0)  -->
<svg version="1.1" id="Layer_1" xmlns="http://www.w3.org/2000/svg" xmlns:xlink="http://www.w3.org/1999/xlink" x="0px" y="0px"
	 viewBox="0 0 512 321.2" style="enable-background:new 0 0 512 321.2;" xml:space="preserve">
<style type="text/css">
	.st0{fill:#686868;}
</style>
<g>
	<path class="st0" d="M505.3,321.2h-38.2c-3.7,0-6.7-3-6.7-6.7v-49.2H54.7v49.2c0,3.7-3,6.7-6.7,6.7H6.7c-3.7,0-6.7-3-6.7-6.7V6.7
		C0,3,3,0,6.7,0H48c3.7,0,6.7,3,6.7,6.7v91.5c4.9-3.4,10.9-5.4,17.3-5.4h82.7c16.9,0,30.7,13.8,30.7,30.7v8.9c0,6.4-2,12.4-5.4,17.4
		h280.4V88.9c0-3.7,3-6.7,6.7-6.7h38.2c3.7,0,6.7,3,6.7,6.7v225.6C512,318.2,509,321.2,505.3,321.2L505.3,321.2z M473.8,307.9h24.9
		V95.6h-24.9V307.9z M13.3,307.9h28V13.3h-28C13.3,13.3,13.3,307.9,13.3,307.9z M54.7,252h405.8v-23.6H54.7V252z M54.7,215.1h405.8
		v-52H54.7V215.1z M72,149.7h82.7c9.6,0,17.3-7.8,17.3-17.3v-8.9c0-9.6-7.8-17.3-17.3-17.3H72c-9.6,0-17.3,7.8-17.3,17.3v8.9
		C54.7,141.9,62.5,149.7,72,149.7L72,149.7z"/>
</g>
</svg>
