<?xml version="1.0" encoding="utf-8"?>
<!-- Generator: Adobe Illustrator 19.0.0, SVG Export Plug-In . SVG Version: 6.00 Build 0)  -->
<svg version="1.1" id="Layer_1" xmlns="http://www.w3.org/2000/svg" xmlns:xlink="http://www.w3.org/1999/xlink" x="0px" y="0px"
	 viewBox="-49 141 512 512" style="enable-background:new -49 141 512 512;" xml:space="preserve">
<path fill="#686868" d="M437.4,386.6H-23.4c-14.5,0-25.6-11.1-25.6-25.6c0-14.5,11.1-25.6,25.6-25.6h460.8c14.5,0,25.6,11.1,25.6,25.6
	C463,375.5,451.9,386.6,437.4,386.6z M-23.4,352.4c-5.1,0-8.5,3.4-8.5,8.5s3.4,8.5,8.5,8.5h460.8c5.1,0,8.5-3.4,8.5-8.5
	c0-5.1-3.4-8.5-8.5-8.5H-23.4z"/>
<path fill="#686868" d="M346.1,523.1H67.9c-27.3,0-51.2-18.8-58-45.2l-24.7-98.1c-0.9-2.6,0-5.1,1.7-7.7c1.7-1.7,4.3-2.6,6.8-2.6h426.7
	c2.6,0,5.1,0.9,6.8,3.4c1.7,1.7,2.6,5.1,1.7,7.7l-24.7,98.1C397.3,504.3,373.4,523.1,346.1,523.1z M4.8,386.6l22.2,87
	c5.1,18.8,22.2,32.4,41.8,32.4h278.2c19.6,0,36.7-13.7,41.8-32.4l20.5-87H4.8z"/>
<path fill="#686868" d="M70.5,557.2c-0.9,0-2.6,0-3.4-0.9c-4.3-1.7-6-6.8-3.4-11.1l17.1-34.1c1.7-4.3,6.8-6,11.1-3.4
	c4.3,1.7,6,6.8,3.4,11.1L78.1,553C76.4,555.5,73.9,557.2,70.5,557.2z"/>
<path fill="#686868" d="M352.1,557.2c-3.4,0-6-1.7-7.7-5.1L327.3,518c-1.7-4.3,0-9.4,3.4-11.1c4.3-1.7,9.4,0,11.1,3.4l17.1,34.1
	c1.7,4.3,0,9.4-3.4,11.1C354.6,557.2,353.8,557.2,352.1,557.2z"/>
<path fill="#686868" d="M428.9,336.5h-17.1V211.1c0-30.4-26.5-54.6-59.7-54.6c-35,0-51.2,27.3-51.2,54.6h-17.1
	c0-41.3,28.2-70.1,68.3-70.1c42.7,0,76.8,31.2,76.8,70.1V336.5z"/>
<path fill="#686868" d="M258.2,283.2c-5.1,0-8.5-3.1-8.5-7.8v-3.9c0-4.7,3.4-7.8,8.5-7.8c5.1,0,8.5,3.1,8.5,7.8v3.9
	C266.7,280.1,263.3,283.2,258.2,283.2z"/>
<path fill="#686868" d="M258.2,319c-5.1,0-8.5-3.1-8.5-7.8v-8.6c0-4.7,3.4-7.8,8.5-7.8c5.1,0,8.5,3.1,8.5,7.8v8.6
	C266.7,315.1,263.3,319,258.2,319z"/>
<path fill="#686868" d="M292.3,283.2c-5.1,0-8.5-3.1-8.5-7.8v-3.9c0-4.7,3.4-7.8,8.5-7.8c5.1,0,8.5,3.1,8.5,7.8v3.9
	C300.9,280.1,297.5,283.2,292.3,283.2z"/>
<path fill="#686868" d="M292.3,319c-5.1,0-8.5-3.1-8.5-7.8v-8.6c0-4.7,3.4-7.8,8.5-7.8c5.1,0,8.5,3.1,8.5,7.8v8.6
	C300.9,315.1,297.5,319,292.3,319z"/>
<path fill="#686868" d="M326.5,283.2c-5.1,0-8.5-3.1-8.5-7.8v-3.9c0-4.7,3.4-7.8,8.5-7.8c5.1,0,8.5,3.1,8.5,7.8v3.9
	C335,280.1,331.6,283.2,326.5,283.2z"/>
<path fill="#686868" d="M326.5,319c-5.1,0-8.5-3.1-8.5-7.8v-8.6c0-4.7,3.4-7.8,8.5-7.8c5.1,0,8.5,3.1,8.5,7.8v8.6
	C335,315.1,331.6,319,326.5,319z"/>
<path fill="#686868" d="M326.5,248.1h-68.3c-5.1,0-8.5-3.1-8.5-7.8c0-21.8,18.8-39,42.7-39c23.9,0,42.7,17.1,42.7,39
	C335,245,331.6,248.1,326.5,248.1z M268.4,232.5h48.6c-3.4-9.4-12.8-15.6-23.9-15.6S271.9,223.2,268.4,232.5z"/>
</svg>
