<svg xmlns="http://www.w3.org/2000/svg" width="20.56" height="13.031" viewBox="0 0 20.56 13.031">
  <metadata><?xpacket begin="﻿" id="W5M0MpCehiHzreSzNTczkc9d"?>
<x:xmpmeta xmlns:x="adobe:ns:meta/" x:xmptk="Adobe XMP Core 5.6-c138 79.159824, 2016/09/14-01:09:01        ">
   <rdf:RDF xmlns:rdf="http://www.w3.org/1999/02/22-rdf-syntax-ns#">
      <rdf:Description rdf:about=""/>
   </rdf:RDF>
</x:xmpmeta>
                                                                                                    
                                                                                                    
                                                                                                    
                                                                                                    
                                                                                                    
                                                                                                    
                                                                                                    
                                                                                                    
                                                                                                    
                                                                                                    
                                                                                                    
                                                                                                    
                                                                                                    
                                                                                                    
                                                                                                    
                                                                                                    
                                                                                                    
                                                                                                    
                                                                                                    
                                                                                                    
                           
<?xpacket end="w"?></metadata>
<defs>
    <style>
      .cls-1 {
        fill: #ed1c24;
        fill-rule: evenodd;
      }
    </style>
  </defs>
  <path id="eye" class="cls-1" d="M2369.96,739.935a13.114,13.114,0,0,0-4.32-3.948,11.451,11.451,0,0,0-5.47-1.472h-0.31a11.451,11.451,0,0,0-5.47,1.472,13.114,13.114,0,0,0-4.32,3.948,1.9,1.9,0,0,0,0,2.16,13.124,13.124,0,0,0,4.32,3.948,11.461,11.461,0,0,0,5.47,1.471c0.05,0,.26,0,0.31,0a11.461,11.461,0,0,0,5.47-1.471,13.124,13.124,0,0,0,4.32-3.948A1.9,1.9,0,0,0,2369.96,739.935Zm-9.95,6.648c-2.75,0-4.99-2.5-4.99-5.568s2.24-5.569,4.99-5.569A5.6,5.6,0,0,1,2360.01,746.583Zm-5.25-1.375a12.206,12.206,0,0,1-4.03-3.687,0.892,0.892,0,0,1,0-1.012,12.2,12.2,0,0,1,4.03-3.688,11.8,11.8,0,0,1,1.36-.642,7.023,7.023,0,0,0,0,9.671A11.8,11.8,0,0,1,2354.76,745.208Zm14.54-3.687a12.206,12.206,0,0,1-4.03,3.687,11.618,11.618,0,0,1-1.36.64,7.02,7.02,0,0,0,0-9.669,11.8,11.8,0,0,1,1.36.642,12.2,12.2,0,0,1,4.03,3.688A0.892,0.892,0,0,1,2369.3,741.521Zm-9.31-2.89a2.384,2.384,0,1,0,2.39,2.384A2.386,2.386,0,0,0,2359.99,738.631Zm0,3.834a1.45,1.45,0,1,1,1.45-1.45A1.452,1.452,0,0,1,2359.99,742.465Z" transform="translate(-2349.75 -734.5)"/>
</svg>
