<svg xmlns="http://www.w3.org/2000/svg" width="56" height="41">
    <path fill="#464646" fill-rule="evenodd" d="M54.416 40.779a.803.803 0 0 1-.808-.798v-6.603c0-.783-.533-1.48-1.295-1.695l-3.34-.942a1.98 1.98 0 0 1-.344-.134l-2.051 2.023v7.351a.803.803 0 0 1-.809.798.804.804 0 0 1-.809-.798V32.63l-2.064-2.038a4.449 4.449 0 0 1-.753.269l-.2.056a4.19 4.19 0 0 1 1.196 2.92v6.144a.803.803 0 0 1-.808.798.803.803 0 0 1-.809-.798v-6.144a2.626 2.626 0 0 0-1.745-2.458l-5.246-1.883-2.184 3.234a1.67 1.67 0 0 1-1.394.735c-.442 0-.865-.171-1.181-.484l-1.333-1.315v8.315c0 .44-.362.798-.809.798a.804.804 0 0 1-.808-.798v-8.315l-1.333 1.315a1.677 1.677 0 0 1-1.348.476 1.67 1.67 0 0 1-1.227-.727l-2.184-3.234-5.247 1.883a2.626 2.626 0 0 0-1.744 2.458v6.144c0 .44-.362.798-.809.798a.804.804 0 0 1-.809-.798v-6.144c0-.805.236-1.573.651-2.228l-.881-.435-.94.881a3.418 3.418 0 0 1-2.345.925 3.417 3.417 0 0 1-2.344-.925l-.94-.881-2.702 1.333a1.751 1.751 0 0 0-.987 1.576v5.897a.804.804 0 0 1-.809.799.804.804 0 0 1-.809-.799v-5.897c0-1.28.721-2.431 1.881-3.004l2.171-1.071c-2.331-1-3.066-2.403-3.102-2.472a.794.794 0 0 1 0-.714c.583-1.151.654-3.26.711-4.955a43.16 43.16 0 0 1 .071-1.572c.275-3.829 3.224-6.716 6.859-6.716s6.584 2.887 6.86 6.716c.034.474.052 1.007.071 1.572.057 1.694.128 3.804.71 4.955a.788.788 0 0 1 0 .714c-.035.07-.772 1.475-3.098 2.474l.782.386a4.21 4.21 0 0 1 1-.517l4.975-1.786a.795.795 0 0 1 .221-.611l1.506-1.562v-2.684a9.703 9.703 0 0 1-3.458-7.444V13.99a9.126 9.126 0 0 1-.865-3.88V8.403c0-4.205 3.466-7.626 7.726-7.626h12.106c.447 0 .809.358.809.798v8.535a9.126 9.126 0 0 1-.865 3.88v2.094a9.308 9.308 0 0 1-3.458 7.213v2.623l1.506 1.562a.795.795 0 0 1 .221.611l4.714 1.692 1.63-.46c.668-.188.668-.262.668-.44l-.001-1.153a6.203 6.203 0 0 1-2.594-5.035v-1.304l-.414-.818a4.182 4.182 0 0 1-.451-1.883v-.048c0-2.793 2.303-5.065 5.133-5.065h7.782c.447 0 .809.357.809.798v4.113c0 .782-.187 1.566-.542 2.266l-.323.637v1.518a5.833 5.833 0 0 1-1.82 4.248 6.04 6.04 0 0 1-.774.626v1.101c0 .148.101.279.245.32l3.34.942c1.453.41 2.468 1.738 2.468 3.23v6.603a.803.803 0 0 1-.809.798zM7.377 30.898c.689.647 1.77.647 2.46 0l.752-.705a1.636 1.636 0 0 1-.197-.78v-.85a6.091 6.091 0 0 1-3.571 0v.85c0 .279-.07.545-.197.78l.753.705zm-4.769-3.805c.324.392 1.083 1.108 2.596 1.645v-.957a5.958 5.958 0 0 1-2.135-2.599c-.097.689-.24 1.342-.461 1.911zm11.313-5.174c-.019-.548-.036-1.067-.068-1.511-.103-1.434-.684-2.756-1.635-3.722a5.033 5.033 0 0 0-3.611-1.511c-1.37 0-2.652.537-3.612 1.511-.951.966-1.531 2.288-1.635 3.722-.032.444-.049.963-.067 1.512a13.57 13.57 0 0 0-.007.205.804.804 0 0 1 .941.787c0 2.383 1.965 4.322 4.38 4.322 2.172 0 3.996-1.556 4.326-3.651-1.309-2.844-4.673-3.23-5.718-3.28L6 21.545a.815.815 0 0 1-1.143.021.79.79 0 0 1-.021-1.129l1.459-1.493a.813.813 0 0 1 .56-.244c.059-.002 1.454-.033 3.076.481 1.756.557 3.115 1.543 3.995 2.881a7.076 7.076 0 0 1-.005-.143zm.684 5.175c-.22-.569-.363-1.22-.46-1.907a5.926 5.926 0 0 1-2.136 2.602v.952c1.512-.537 2.274-1.26 2.596-1.647zm16.31 4.758c.006.006.019.02.045.016.027-.002.037-.017.042-.024l2.515-3.724-.81-.839-3.815 2.574 2.023 1.997zm-3.285-3.08l4.38-2.955v-1.458a9.46 9.46 0 0 1-5.007 1.037 9.186 9.186 0 0 1-3.752-1.069v1.49l4.379 2.955zm-3.371 3.072c.005.006.015.022.042.024.026.003.039-.01.045-.016l2.023-1.997-3.815-2.574-.81.839 2.515 3.724zm11.21-15.76v-2.273c0-.12.028-.239.08-.347a7.564 7.564 0 0 0 .785-3.354V2.374H25.036c-3.368 0-6.109 2.704-6.109 6.029v1.707c0 1.162.264 2.291.784 3.354a.789.789 0 0 1 .081.347v1.981c0 4.23 3.213 7.749 7.315 8.011a7.842 7.842 0 0 0 5.248-1.545l.014-.01c.214-.161.421-.334.621-.519a7.613 7.613 0 0 0 2.479-5.645zm10.3 15.087l1.844-1.82a1.893 1.893 0 0 1-.058-.465v-.322a6.076 6.076 0 0 1-1.783.266c-.063 0-.124 0-.187-.002a5.757 5.757 0 0 1-1.601-.28v.337c0 .174-.018.331-.05.474l1.835 1.812zm4.38-8.259v-1.707c0-.124.029-.246.085-.357l.409-.806a3.46 3.46 0 0 0 .371-1.552v-3.315H44.04c-1.938 0-3.515 1.556-3.515 3.469v.048c0 .404.097.808.28 1.17l.499.986a.79.79 0 0 1 .086.357v1.492c0 2.431 1.904 4.466 4.244 4.535a4.379 4.379 0 0 0 3.185-1.218 4.26 4.26 0 0 0 1.33-3.102zm-1.786-2.616a.816.816 0 0 1-.361-.084c-1.279-.631-3.918-.77-4.827-.77a.804.804 0 0 1-.809-.798c0-.441.363-.798.809-.798.149 0 3.671.011 5.55.938.4.197.562.676.362 1.071a.812.812 0 0 1-.724.441zM27.683 9.671c-2.144-.141-4.212.098-5.255.253-.024.003-.042.027-.042.054v1.839a.803.803 0 0 1-.809.798.803.803 0 0 1-.808-.798V9.978c0-.824.596-1.51 1.418-1.632 2.61-.389 9.01-.966 12.068 2.053a.79.79 0 0 1 0 1.129.817.817 0 0 1-1.143 0c-1.081-1.067-2.908-1.692-5.429-1.857z"/>
</svg>
