<svg xmlns="http://www.w3.org/2000/svg" width="30" height="40">
    <path fill="#464646" fill-rule="evenodd" d="M26.663 39.994H3.337a3.336 3.336 0 0 1-3.332-3.333V15.835c0-.461.372-.833.833-.833h2.499v-3.333C3.337 5.238 8.569.006 15 .006s11.663 5.232 11.663 11.663v3.333h2.499c.461 0 .833.372.833.833v20.826a3.336 3.336 0 0 1-3.332 3.333zm-1.666-28.325c0-5.512-4.484-9.996-9.997-9.996s-9.997 4.484-9.997 9.996v3.333h1.666v-3.333c0-4.593 3.738-8.33 8.331-8.33s8.331 3.737 8.331 8.33v3.333h1.666v-3.333zm-16.661 0v3.333h13.329v-3.333A6.672 6.672 0 0 0 15 5.005a6.672 6.672 0 0 0-6.664 6.664zm19.993 4.999H1.671v19.993c0 .919.748 1.666 1.666 1.666h23.326c.918 0 1.666-.747 1.666-1.666V16.668zm-11.36 11.01l.525 4.726a.836.836 0 0 1-.828.925h-3.332a.835.835 0 0 1-.828-.925l.525-4.726a3.296 3.296 0 0 1-1.363-2.68A3.335 3.335 0 0 1 15 21.666a3.335 3.335 0 0 1 3.332 3.332c0 1.078-.51 2.059-1.363 2.68zM15 23.332c-.919 0-1.666.748-1.666 1.666 0 .639.363 1.211.947 1.494a.834.834 0 0 1 .465.842l-.481 4.329h1.47l-.481-4.329a.834.834 0 0 1 .465-.842c.584-.283.947-.855.947-1.494 0-.918-.748-1.666-1.666-1.666z"/>
</svg>
