<svg xmlns="http://www.w3.org/2000/svg" width="17.4" height="15" viewBox="0 0 17.4 15">
  <metadata><?xpacket begin="﻿" id="W5M0MpCehiHzreSzNTczkc9d"?>
<x:xmpmeta xmlns:x="adobe:ns:meta/" x:xmptk="Adobe XMP Core 5.6-c138 79.159824, 2016/09/14-01:09:01        ">
   <rdf:RDF xmlns:rdf="http://www.w3.org/1999/02/22-rdf-syntax-ns#">
      <rdf:Description rdf:about=""/>
   </rdf:RDF>
</x:xmpmeta>
                                                                                                    
                                                                                                    
                                                                                                    
                                                                                                    
                                                                                                    
                                                                                                    
                                                                                                    
                                                                                                    
                                                                                                    
                                                                                                    
                                                                                                    
                                                                                                    
                                                                                                    
                                                                                                    
                                                                                                    
                                                                                                    
                                                                                                    
                                                                                                    
                                                                                                    
                                                                                                    
                           
<?xpacket end="w"?></metadata>
<defs>
    <style>
      .cls-1 {
        fill: #fff;
        fill-rule: evenodd;
      }
    </style>
  </defs>
  <path class="cls-1" d="M2347.44,147.832a0.844,0.844,0,0,0,.6.764l6.38,1.929,0.24,4.4a0.437,0.437,0,0,0,.43.408,0.44,0.44,0,0,0,.33-0.145l2.25-2.5,3.2,2.213a0.83,0.83,0,0,0,.48.153,0.86,0.86,0,0,0,.84-0.682l2.65-13.522a0.443,0.443,0,0,0-.15-0.42,0.432,0.432,0,0,0-.44-0.067L2347.95,147a0.858,0.858,0,0,0-.51.835h0Zm8.03,6-0.15-2.774,1.63,1.13Zm5.87,0.338-5.82-4.028,8.16-7.893Zm1.45-12.269-8.07,7.8-6.37-1.925Zm0,0" transform="translate(-2347.44 -140.344)"/>
</svg>
