<?xml version="1.0" encoding="utf-8"?>
<!-- Generator: Adobe Illustrator 16.0.0, SVG Export Plug-In . SVG Version: 6.00 Build 0)  -->
<!DOCTYPE svg PUBLIC "-//W3C//DTD SVG 1.1//EN" "http://www.w3.org/Graphics/SVG/1.1/DTD/svg11.dtd">
<svg version="1.1" id="Layer_1" xmlns="http://www.w3.org/2000/svg" xmlns:xlink="http://www.w3.org/1999/xlink" x="0px" y="0px"
	 width="16px" height="16px" viewBox="0 0 16 16" enable-background="new 0 0 16 16" xml:space="preserve">
	<g>
		<path d="M12.533,9.866c-0.32-0.334-0.706-0.513-1.114-0.513c-0.405,0-0.793,0.176-1.127,0.509L9.25,10.9
			c-0.085-0.046-0.17-0.089-0.253-0.131c-0.119-0.062-0.231-0.116-0.326-0.176c-0.976-0.62-1.862-1.428-2.713-2.472
			C5.546,7.601,5.27,7.163,5.068,6.718c0.271-0.248,0.521-0.505,0.765-0.752c0.092-0.092,0.185-0.188,0.277-0.28
			c0.692-0.692,0.692-1.589,0-2.28l-0.9-0.9C5.108,2.404,5.003,2.298,4.904,2.193C4.706,1.989,4.499,1.777,4.285,1.58
			c-0.32-0.316-0.703-0.484-1.104-0.484c-0.403,0-0.792,0.168-1.121,0.484C2.057,1.583,2.057,1.583,2.053,1.587l-1.12,1.13
			C0.51,3.139,0.27,3.653,0.217,4.25C0.138,5.211,0.422,6.108,0.639,6.695C1.173,8.135,1.97,9.47,3.161,10.9
			c1.443,1.724,3.18,3.085,5.164,4.044c0.758,0.36,1.771,0.784,2.901,0.857c0.068,0.003,0.142,0.006,0.207,0.006
			c0.761,0,1.401-0.274,1.901-0.817c0.003-0.006,0.01-0.009,0.013-0.017c0.172-0.208,0.369-0.396,0.578-0.597
			c0.142-0.134,0.286-0.277,0.428-0.425c0.326-0.341,0.497-0.733,0.497-1.14c0-0.408-0.174-0.802-0.506-1.132L12.533,9.866z
			 M13.712,13.336C13.709,13.336,13.709,13.339,13.712,13.336c-0.128,0.139-0.259,0.264-0.4,0.402
			c-0.215,0.204-0.432,0.418-0.636,0.659c-0.333,0.354-0.727,0.522-1.24,0.522c-0.05,0-0.103,0-0.15-0.003
			c-0.979-0.061-1.889-0.445-2.571-0.771c-1.866-0.903-3.504-2.185-4.865-3.811C2.725,8.982,1.974,7.73,1.477,6.385
			C1.17,5.564,1.058,4.925,1.107,4.322C1.14,3.937,1.289,3.617,1.562,3.343L2.686,2.22c0.162-0.152,0.333-0.234,0.501-0.234
			c0.208,0,0.376,0.125,0.481,0.23c0.004,0.004,0.007,0.007,0.01,0.01c0.201,0.188,0.393,0.383,0.593,0.59
			c0.102,0.105,0.208,0.211,0.313,0.319l0.9,0.9c0.349,0.349,0.349,0.672,0,1.021C5.389,5.153,5.296,5.248,5.2,5.34
			C4.923,5.624,4.66,5.887,4.373,6.145C4.367,6.151,4.36,6.155,4.357,6.161c-0.284,0.283-0.231,0.56-0.171,0.748
			c0.003,0.01,0.007,0.02,0.01,0.03C4.429,7.506,4.759,8.04,5.26,8.675l0.003,0.004c0.91,1.121,1.869,1.994,2.927,2.664
			c0.135,0.085,0.273,0.154,0.405,0.22c0.119,0.06,0.232,0.115,0.326,0.175c0.014,0.007,0.028,0.017,0.04,0.023
			c0.112,0.056,0.216,0.082,0.326,0.082c0.274,0,0.445-0.171,0.5-0.228l1.129-1.127c0.111-0.112,0.289-0.247,0.497-0.247
			c0.204,0,0.372,0.129,0.474,0.241c0.005,0.003,0.005,0.003,0.008,0.006l1.814,1.815C14.05,12.641,14.05,12.986,13.712,13.336z"/>
		<path d="M8.631,3.907c0.863,0.145,1.647,0.553,2.274,1.179c0.626,0.626,1.032,1.411,1.18,2.274
			C12.12,7.578,12.31,7.73,12.522,7.73c0.028,0,0.051-0.004,0.077-0.007c0.243-0.04,0.405-0.27,0.365-0.514
			c-0.178-1.045-0.672-1.998-1.427-2.752C10.783,3.703,9.83,3.208,8.787,3.03c-0.245-0.04-0.472,0.122-0.515,0.362
			C8.229,3.633,8.387,3.867,8.631,3.907z"/>
		<path d="M15.789,7.081c-0.293-1.72-1.104-3.286-2.35-4.531c-1.246-1.246-2.811-2.057-4.531-2.35
			C8.667,0.156,8.44,0.321,8.397,0.562c-0.04,0.244,0.122,0.471,0.366,0.515c1.537,0.26,2.936,0.988,4.049,2.099
			c1.115,1.114,1.839,2.514,2.1,4.05c0.037,0.218,0.225,0.369,0.438,0.369c0.027,0,0.05-0.003,0.076-0.006
			C15.667,7.552,15.832,7.321,15.789,7.081z"/>
	</g>
</svg>
