<?xml version="1.0" encoding="utf-8"?>
<!-- Generator: Adobe Illustrator 16.0.0, SVG Export Plug-In . SVG Version: 6.00 Build 0)  -->
<!DOCTYPE svg PUBLIC "-//W3C//DTD SVG 1.1//EN" "http://www.w3.org/Graphics/SVG/1.1/DTD/svg11.dtd">
<svg version="1.1" id="Layer_1" xmlns="http://www.w3.org/2000/svg" xmlns:xlink="http://www.w3.org/1999/xlink" x="0px" y="0px"
	 width="16px" height="16px" viewBox="0 0 16 16" enable-background="new 0 0 16 16" xml:space="preserve">
<g>
	<g>
		<path fill="#E54A4F" d="M12.533,9.866c-0.32-0.334-0.706-0.513-1.114-0.513c-0.405,0-0.793,0.176-1.127,0.508L9.25,10.9
			c-0.085-0.047-0.17-0.09-0.253-0.131c-0.119-0.063-0.231-0.117-0.326-0.177c-0.976-0.62-1.862-1.428-2.713-2.472
			c-0.412-0.52-0.688-0.958-0.89-1.403C5.339,6.47,5.589,6.213,5.833,5.966c0.092-0.092,0.185-0.188,0.277-0.28
			c0.692-0.692,0.692-1.589,0-2.28l-0.9-0.9C5.108,2.404,5.003,2.298,4.904,2.193C4.706,1.989,4.499,1.777,4.285,1.58
			c-0.32-0.316-0.703-0.484-1.104-0.484c-0.403,0-0.792,0.168-1.121,0.484C2.057,1.583,2.057,1.583,2.053,1.587l-1.12,1.13
			C0.51,3.139,0.27,3.653,0.217,4.25C0.138,5.211,0.422,6.108,0.639,6.695C1.173,8.135,1.97,9.471,3.161,10.9
			c1.443,1.724,3.18,3.084,5.164,4.043c0.758,0.361,1.771,0.785,2.901,0.857c0.067,0.004,0.142,0.006,0.207,0.006
			c0.76,0,1.4-0.273,1.9-0.816c0.003-0.006,0.01-0.01,0.014-0.018c0.172-0.207,0.368-0.396,0.577-0.597
			c0.142-0.134,0.286-0.276,0.429-0.425c0.326-0.342,0.496-0.733,0.496-1.141c0-0.408-0.174-0.802-0.506-1.131L12.533,9.866z
			 M13.712,13.336C13.709,13.336,13.709,13.339,13.712,13.336c-0.128,0.139-0.259,0.264-0.399,0.402
			c-0.215,0.203-0.433,0.418-0.637,0.658c-0.333,0.354-0.727,0.522-1.24,0.522c-0.05,0-0.103,0-0.149-0.003
			c-0.979-0.061-1.89-0.445-2.571-0.771c-1.866-0.902-3.504-2.185-4.865-3.811C2.725,8.982,1.974,7.73,1.477,6.385
			c-0.307-0.821-0.419-1.46-0.37-2.063C1.14,3.937,1.289,3.617,1.562,3.343L2.686,2.22c0.162-0.152,0.333-0.234,0.501-0.234
			c0.208,0,0.376,0.125,0.481,0.23c0.004,0.004,0.007,0.007,0.01,0.01c0.201,0.188,0.393,0.383,0.593,0.59
			c0.102,0.105,0.208,0.211,0.313,0.319l0.9,0.9c0.349,0.349,0.349,0.672,0,1.021C5.389,5.153,5.296,5.248,5.2,5.34
			C4.923,5.624,4.66,5.887,4.373,6.145C4.367,6.151,4.36,6.155,4.357,6.161c-0.284,0.283-0.231,0.56-0.171,0.748
			c0.003,0.01,0.007,0.02,0.01,0.03C4.429,7.506,4.759,8.04,5.26,8.675L5.263,8.68c0.91,1.12,1.869,1.993,2.927,2.663
			c0.135,0.085,0.273,0.154,0.406,0.22c0.118,0.061,0.231,0.115,0.325,0.176c0.015,0.007,0.028,0.017,0.04,0.022
			c0.112,0.056,0.216,0.082,0.326,0.082c0.273,0,0.445-0.171,0.5-0.228l1.129-1.127c0.111-0.112,0.289-0.247,0.497-0.247
			c0.204,0,0.372,0.129,0.474,0.241c0.006,0.002,0.006,0.002,0.008,0.006l1.814,1.814C14.05,12.641,14.05,12.986,13.712,13.336z"/>
		<path fill="#E54A4F" d="M8.631,3.907c0.863,0.145,1.646,0.553,2.273,1.179s1.033,1.411,1.181,2.274
			c0.035,0.218,0.226,0.37,0.437,0.37c0.028,0,0.052-0.004,0.078-0.007c0.242-0.04,0.404-0.27,0.364-0.514
			c-0.178-1.045-0.672-1.998-1.427-2.752C10.783,3.703,9.83,3.208,8.787,3.03C8.542,2.99,8.315,3.152,8.272,3.392
			C8.229,3.633,8.387,3.867,8.631,3.907z"/>
		<path fill="#E54A4F" d="M15.789,7.081c-0.293-1.72-1.104-3.286-2.35-4.531c-1.246-1.246-2.812-2.057-4.531-2.35
			C8.667,0.156,8.44,0.321,8.397,0.562C8.357,0.806,8.52,1.033,8.764,1.077c1.536,0.26,2.936,0.988,4.049,2.099
			c1.114,1.114,1.838,2.514,2.1,4.05c0.037,0.218,0.225,0.369,0.438,0.369c0.027,0,0.051-0.003,0.076-0.006
			C15.667,7.552,15.832,7.321,15.789,7.081z"/>
	</g>
</g>
</svg>
