<?xml version="1.0" encoding="utf-8"?>
<!-- Generator: Adobe Illustrator 16.0.0, SVG Export Plug-In . SVG Version: 6.00 Build 0)  -->
<!DOCTYPE svg PUBLIC "-//W3C//DTD SVG 1.1//EN" "http://www.w3.org/Graphics/SVG/1.1/DTD/svg11.dtd">
<svg version="1.1" id="Layer_1" xmlns="http://www.w3.org/2000/svg" xmlns:xlink="http://www.w3.org/1999/xlink" x="0px" y="0px"
	 width="18px" height="18px" viewBox="0 0 18 18" enable-background="new 0 0 18 18" xml:space="preserve">
<path fill="#606060" d="M17.297,16.282l-4.22-4.388c1.085-1.29,1.68-2.912,1.68-4.6c0-3.946-3.21-7.157-7.156-7.157
	s-7.157,3.21-7.157,7.157c0,3.946,3.21,7.156,7.157,7.156c1.481,0,2.893-0.446,4.1-1.295l4.251,4.421
	c0.178,0.184,0.416,0.287,0.673,0.287c0.241,0,0.472-0.093,0.646-0.262C17.641,17.245,17.653,16.653,17.297,16.282z M7.601,2.004
	c2.916,0,5.289,2.373,5.289,5.29c0,2.917-2.373,5.289-5.289,5.289c-2.917,0-5.29-2.372-5.29-5.289
	C2.311,4.377,4.684,2.004,7.601,2.004z"/>
</svg>
