<?xml version="1.0" encoding="utf-8"?>
<!-- Generator: Adobe Illustrator 19.0.0, SVG Export Plug-In . SVG Version: 6.00 Build 0)  -->
<svg version="1.1" id="Layer_1" xmlns="http://www.w3.org/2000/svg" xmlns:xlink="http://www.w3.org/1999/xlink" x="0px" y="0px"
	 viewBox="0 0 12 12" style="enable-background:new 0 0 12 12;" xml:space="preserve">
<path fill="#686868" d="M255.5,111.5c-35.2,0-63.8,28.6-63.8,63.8c0,35.2,28.6,63.8,63.8,63.8c35.1,0,63.8-28.6,63.8-63.8
	C319.3,140.1,290.7,111.5,255.5,111.5L255.5,111.5z M255.5,220.8c-25.1,0-45.6-20.4-45.6-45.6c0-25.1,20.4-45.6,45.6-45.6
	c25.1,0,45.6,20.5,45.6,45.6C301.1,200.4,280.6,220.8,255.5,220.8L255.5,220.8z M255.5,220.8"/>
<path fill="#686868" d="M377.5,53.3c-33-33-76.9-51.2-123.5-51.2c-46.7,0-90.6,18.2-123.6,51.2c-61,61.1-68.6,175.9-16.4,245.6
	l140,202.1l139.7-201.9C446.1,229.3,438.5,114.4,377.5,53.3L377.5,53.3z M378.9,288.5l-125,180.5L128.7,288.3
	c-47.3-63.2-40.6-166.9,14.5-222c29.6-29.5,68.9-45.8,110.7-45.8c41.8,0,81.1,16.3,110.6,45.8C419.7,121.4,426.5,225.1,378.9,288.5
	L378.9,288.5z M378.9,288.5"/>
</svg>
