<?xml version="1.0" encoding="utf-8"?>
<!-- Generator: Adobe Illustrator 16.0.0, SVG Export Plug-In . SVG Version: 6.00 Build 0)  -->
<!DOCTYPE svg PUBLIC "-//W3C//DTD SVG 1.1//EN" "http://www.w3.org/Graphics/SVG/1.1/DTD/svg11.dtd">
<svg version="1.1" id="Layer_1" xmlns="http://www.w3.org/2000/svg" xmlns:xlink="http://www.w3.org/1999/xlink" x="0px" y="0px"
	 width="116px" height="40px" viewBox="0 0 116 40" enable-background="new 0 0 116 40" xml:space="preserve">
<path fill="#414042" d="M48.274,18.273V4.814h1.344v1.473c0.452-0.615,0.957-1.072,1.514-1.371c0.557-0.299,1.174-0.449,1.853-0.449
	c0.702,0,1.308,0.166,1.816,0.497c0.509,0.332,0.88,0.804,1.114,1.419c0.452-0.646,0.962-1.127,1.531-1.443
	c0.569-0.315,1.205-0.473,1.907-0.473c1.098,0,1.899,0.34,2.403,1.018c0.504,0.679,0.756,1.76,0.756,3.246v9.543h-1.44V9.196
	c0-1.437-0.156-2.362-0.466-2.778c-0.311-0.415-0.857-0.623-1.641-0.623c-0.702,0-1.35,0.229-1.943,0.688
	c-0.594,0.459-0.89,0.932-0.89,1.419v10.37h-1.441V9.196c0-1.444-0.153-2.373-0.46-2.784c-0.307-0.411-0.856-0.617-1.646-0.617
	c-0.71,0-1.358,0.233-1.943,0.7c-0.585,0.467-0.878,0.96-0.878,1.479v10.298H48.274z"/>
<path fill="#414042" d="M66,4.814v9.089c0,1.421,0.149,2.345,0.448,2.772c0.298,0.427,0.835,0.641,1.61,0.641
	c0.718,0,1.368-0.235,1.95-0.707c0.581-0.471,0.872-0.978,0.872-1.521V4.814h1.489v13.459h-1.332v-1.473
	c-0.46,0.623-0.958,1.082-1.495,1.377c-0.537,0.295-1.148,0.443-1.834,0.443c-1.114,0-1.925-0.336-2.434-1.006
	c-0.508-0.67-0.762-1.752-0.762-3.245V4.814H66z"/>
<path fill="#414042" d="M82.709,18.321c-0.227,0.048-0.416,0.08-0.569,0.096s-0.303,0.024-0.448,0.024
	c-0.363,0-0.668-0.094-0.914-0.282s-0.438-0.477-0.575-0.868c-0.387,0.455-0.831,0.798-1.332,1.03
	c-0.5,0.231-1.058,0.347-1.67,0.347c-1.002,0-1.784-0.329-2.349-0.988s-0.848-1.574-0.848-2.748c0-1.03,0.252-1.858,0.757-2.485
	c0.504-0.626,1.377-1.18,2.622-1.658c0.258-0.096,0.608-0.22,1.053-0.372c1.194-0.407,1.792-0.946,1.792-1.617V7.676
	c0-0.718-0.157-1.241-0.472-1.569c-0.314-0.327-0.828-0.491-1.538-0.491c-0.751,0-1.322,0.211-1.713,0.635
	c-0.392,0.423-0.6,1.054-0.624,1.892h-1.404V7.855c0-1.03,0.343-1.848,1.029-2.455c0.686-0.607,1.606-0.91,2.761-0.91
	c0.686,0,1.263,0.083,1.73,0.251c0.469,0.167,0.844,0.427,1.127,0.778c0.193,0.239,0.332,0.521,0.417,0.844s0.127,0.792,0.127,1.407
	v0.694v7.304c0,0.679,0.061,1.098,0.182,1.257c0.121,0.16,0.359,0.24,0.715,0.24h0.146V18.321z M80.178,11.064
	c-2.099,0.807-3.399,1.458-3.904,1.952c-0.504,0.496-0.756,1.134-0.756,1.917c0,0.758,0.177,1.357,0.532,1.796
	c0.356,0.439,0.841,0.659,1.454,0.659c0.92,0,1.596-0.33,2.027-0.988c0.432-0.659,0.647-1.694,0.647-3.107V11.064z"/>
<path fill="#414042" d="M86.697,18.273V0h1.44v6.059c0.331-0.551,0.734-0.961,1.211-1.233c0.476-0.271,1.029-0.407,1.658-0.407
	c1.405,0,2.452,0.591,3.143,1.772c0.689,1.182,1.035,2.978,1.035,5.389c0,2.459-0.329,4.251-0.987,5.376
	c-0.657,1.126-1.693,1.688-3.105,1.688c-0.613,0-1.158-0.144-1.634-0.431c-0.477-0.288-0.917-0.734-1.32-1.341v1.401H86.697z
	 M88.137,11.532c0,2.124,0.216,3.634,0.647,4.532s1.141,1.347,2.125,1.347c0.952,0,1.643-0.455,2.07-1.365
	c0.428-0.91,0.642-2.399,0.642-4.467c0-2.02-0.224-3.503-0.672-4.449c-0.447-0.946-1.144-1.419-2.088-1.419
	c-0.969,0-1.665,0.443-2.089,1.329C88.349,7.927,88.137,9.424,88.137,11.532"/>
<path fill="#414042" d="M105.149,18.321c-0.227,0.048-0.416,0.08-0.569,0.096s-0.303,0.024-0.448,0.024
	c-0.362,0-0.667-0.094-0.914-0.282c-0.246-0.188-0.438-0.477-0.574-0.868c-0.388,0.455-0.832,0.798-1.332,1.03
	c-0.501,0.231-1.058,0.347-1.671,0.347c-1.002,0-1.784-0.329-2.349-0.988c-0.565-0.659-0.848-1.574-0.848-2.748
	c0-1.03,0.252-1.858,0.757-2.485c0.504-0.626,1.377-1.18,2.621-1.658c0.258-0.096,0.608-0.22,1.053-0.372
	c1.194-0.407,1.792-0.946,1.792-1.617V7.676c0-0.718-0.157-1.241-0.472-1.569c-0.315-0.327-0.828-0.491-1.538-0.491
	c-0.751,0-1.321,0.211-1.713,0.635s-0.6,1.054-0.624,1.892h-1.404V7.855c0-1.03,0.343-1.848,1.029-2.455
	c0.686-0.607,1.605-0.91,2.761-0.91c0.686,0,1.263,0.083,1.73,0.251c0.469,0.167,0.844,0.427,1.127,0.778
	c0.193,0.239,0.333,0.521,0.417,0.844c0.085,0.323,0.127,0.792,0.127,1.407v0.694v7.304c0,0.679,0.061,1.098,0.182,1.257
	c0.121,0.16,0.359,0.24,0.715,0.24h0.146V18.321z M102.619,11.064c-2.1,0.807-3.4,1.458-3.905,1.952
	c-0.504,0.496-0.757,1.134-0.757,1.917c0,0.758,0.178,1.357,0.533,1.796c0.355,0.439,0.839,0.659,1.453,0.659
	c0.92,0,1.596-0.33,2.027-0.988c0.432-0.659,0.648-1.694,0.648-3.107V11.064z"/>
<path fill="#414042" d="M112.632,18.273V9.196c0-1.421-0.15-2.347-0.448-2.778c-0.299-0.431-0.835-0.646-1.61-0.646
	c-0.719,0-1.368,0.235-1.949,0.707s-0.872,0.978-0.872,1.521v10.274h-1.489V4.814h1.345v1.473c0.451-0.63,0.945-1.092,1.482-1.383
	c0.537-0.292,1.148-0.438,1.835-0.438c1.113,0,1.925,0.338,2.434,1.012c0.508,0.675,0.763,1.758,0.763,3.251v9.543H112.632z"/>
<path fill="#414042" d="M48.056,39.605V25.75h3.669v1.641c0.428-0.655,0.916-1.138,1.465-1.449s1.191-0.467,1.925-0.467
	c1.082,0,1.872,0.357,2.373,1.072c0.5,0.714,0.75,1.846,0.75,3.395v9.664h-3.886v-8.562c0-1.11-0.073-1.8-0.218-2.072
	c-0.145-0.271-0.403-0.407-0.774-0.407c-0.436,0-0.777,0.21-1.023,0.629c-0.247,0.419-0.369,1.004-0.369,1.754v8.658H48.056z"/>
<path fill="#414042" d="M59.777,39.605V21.164h3.898v6.06c0.331-0.583,0.757-1.02,1.277-1.311c0.521-0.292,1.145-0.438,1.871-0.438
	c1.082,0,1.873,0.357,2.373,1.072s0.751,1.846,0.751,3.395v9.664h-3.887v-8.562c0-1.11-0.073-1.8-0.218-2.072
	c-0.146-0.271-0.404-0.407-0.775-0.407c-0.436,0-0.777,0.21-1.023,0.629c-0.247,0.419-0.369,1.004-0.369,1.754v8.658H59.777z"/>
<path fill="#414042" d="M78.157,39.605l-0.229-1.27c-0.492,0.511-1.031,0.896-1.616,1.155c-0.585,0.26-1.221,0.39-1.908,0.39
	c-1.097,0-1.967-0.352-2.609-1.054c-0.642-0.703-0.962-1.652-0.962-2.85c0-1.046,0.272-1.908,0.817-2.586
	c0.545-0.678,1.438-1.266,2.682-1.761c0.298-0.111,0.703-0.259,1.211-0.443c1.46-0.527,2.191-1.122,2.191-1.784
	c0-0.407-0.104-0.717-0.314-0.928c-0.21-0.212-0.513-0.318-0.908-0.318c-0.477,0-0.829,0.142-1.059,0.425
	c-0.23,0.284-0.345,0.721-0.345,1.311v0.096h-3.922c0-1.564,0.439-2.728,1.319-3.49c0.88-0.762,2.216-1.144,4.007-1.144
	c0.808,0,1.527,0.074,2.162,0.222c0.633,0.147,1.164,0.361,1.592,0.641c0.548,0.367,0.934,0.811,1.156,1.329
	c0.222,0.519,0.332,1.465,0.332,2.838v0.419v4.921c0,1.086,0.038,1.914,0.116,2.484c0.076,0.571,0.203,1.036,0.381,1.396H78.157z
	 M77.661,32.935c-1.009,0.279-1.745,0.626-2.209,1.042c-0.464,0.416-0.696,0.934-0.696,1.557c0,0.439,0.115,0.791,0.345,1.054
	c0.23,0.264,0.539,0.395,0.926,0.395c0.573,0,0.988-0.191,1.247-0.574c0.259-0.383,0.388-1.026,0.388-1.928V32.935z"/>
<path fill="#414042" d="M96.081,21.164v18.441h-3.596v-1.521c-0.371,0.622-0.825,1.097-1.361,1.425
	C90.586,39.836,89.991,40,89.337,40c-0.549,0-1.047-0.099-1.495-0.294s-0.826-0.473-1.133-0.832
	c-0.347-0.431-0.591-1.008-0.732-1.73c-0.141-0.722-0.212-2.078-0.212-4.065c0-3.129,0.267-5.187,0.8-6.173
	c0.532-0.985,1.489-1.479,2.869-1.479c0.589,0,1.105,0.13,1.55,0.389c0.444,0.26,0.844,0.661,1.198,1.204v-5.856H96.081z
	 M90.996,28.72c-0.492,0-0.829,0.251-1.011,0.754s-0.272,1.617-0.272,3.341c0,1.796,0.085,2.916,0.254,3.359
	c0.17,0.444,0.48,0.665,0.933,0.665c0.517,0,0.874-0.267,1.071-0.802c0.198-0.535,0.297-1.944,0.297-4.228
	c0-1.173-0.095-1.981-0.284-2.425C91.792,28.941,91.464,28.72,90.996,28.72"/>
<path fill="#414042" d="M104.521,39.605l-0.23-1.27c-0.492,0.511-1.031,0.896-1.616,1.155c-0.585,0.26-1.221,0.39-1.907,0.39
	c-1.098,0-1.967-0.352-2.608-1.054c-0.642-0.703-0.963-1.652-0.963-2.85c0-1.046,0.272-1.908,0.817-2.586
	c0.545-0.678,1.438-1.266,2.682-1.761c0.299-0.111,0.702-0.259,1.211-0.443c1.461-0.527,2.191-1.122,2.191-1.784
	c0-0.407-0.104-0.717-0.314-0.928c-0.21-0.212-0.513-0.318-0.908-0.318c-0.477,0-0.829,0.142-1.06,0.425
	c-0.23,0.284-0.345,0.721-0.345,1.311v0.096h-3.923c0-1.564,0.439-2.728,1.319-3.49s2.216-1.144,4.008-1.144
	c0.807,0,1.527,0.074,2.161,0.222c0.634,0.147,1.164,0.361,1.592,0.641c0.549,0.367,0.935,0.811,1.156,1.329
	c0.222,0.519,0.333,1.465,0.333,2.838v0.419v4.921c0,1.086,0.038,1.914,0.115,2.484c0.077,0.571,0.204,1.036,0.382,1.396H104.521z
	 M104.025,32.935c-1.01,0.279-1.746,0.626-2.21,1.042c-0.465,0.416-0.696,0.934-0.696,1.557c0,0.439,0.115,0.791,0.345,1.054
	c0.23,0.264,0.539,0.395,0.927,0.395c0.573,0,0.988-0.191,1.247-0.574c0.259-0.383,0.388-1.026,0.388-1.928V32.935z"/>
<path fill="#414042" d="M116,39.557c-0.476,0.088-0.892,0.153-1.247,0.197s-0.657,0.065-0.907,0.065c-0.775,0-1.436-0.123-1.98-0.37
	c-0.545-0.248-0.946-0.604-1.204-1.066c-0.17-0.319-0.289-0.72-0.357-1.203s-0.103-1.22-0.103-2.209v-1.712v-4.646h-1.514V25.75
	h1.514v-3.832h3.935v3.832H116v2.862h-1.864v5.652c0,1.206,0.089,1.948,0.267,2.228c0.178,0.279,0.521,0.419,1.029,0.419
	c0.089,0,0.234-0.012,0.436-0.036c0.057-0.008,0.101-0.012,0.133-0.012V39.557z"/>
<path fill="#ED1C24" d="M34.707,0H5.339C2.403,0,0,2.376,0,5.281v29.046c0,2.904,2.403,5.281,5.339,5.281h2.67V14.752l12.014-6.86
	l12.014,6.86v24.855h2.67c2.937,0,5.339-2.377,5.339-5.281V5.281C40.046,2.376,37.644,0,34.707,0"/>
<path fill="#ED1C24" d="M13.349,17.786v20.502c0,0.729,0.598,1.32,1.335,1.32h10.679c0.737,0,1.335-0.592,1.335-1.32V17.786
	l-6.675-3.811L13.349,17.786z"/>
</svg>
