<?xml version="1.0" encoding="utf-8"?>
<!-- Generator: Adobe Illustrator 16.0.0, SVG Export Plug-In . SVG Version: 6.00 Build 0)  -->
<!DOCTYPE svg PUBLIC "-//W3C//DTD SVG 1.1//EN" "http://www.w3.org/Graphics/SVG/1.1/DTD/svg11.dtd">
<svg version="1.1" id="Layer_1" xmlns="http://www.w3.org/2000/svg" xmlns:xlink="http://www.w3.org/1999/xlink" x="0px" y="0px"
	 width="31px" height="36px" viewBox="0 0 31 36" enable-background="new 0 0 31 36" xml:space="preserve">
<g>
	<path fill="#BF392C" d="M30.458,0.272h-9.972L6.082,21.324h9.971L30.458,0.272z"/>
	<path fill="#E2574C" d="M0.542,0.272h9.972l14.403,21.052h-9.972L0.542,0.272z"/>
	<path fill="#E4E7E7" d="M16.054,11.352c6.758,0,12.187,5.429,12.187,12.187c0,6.759-5.429,12.188-12.187,12.188
		c-6.759,0-12.188-5.43-12.188-12.188C3.866,16.781,9.295,11.352,16.054,11.352z"/>
	<path fill="#CDCFCF" d="M16.054,14.676c-4.875,0-8.863,3.989-8.863,8.863c0,4.876,3.988,8.864,8.863,8.864
		c4.876,0,8.864-3.988,8.864-8.864C24.918,18.665,20.93,14.676,16.054,14.676z M16.054,30.188c-3.656,0-6.647-2.992-6.647-6.648
		c0-3.655,2.991-6.647,6.647-6.647s6.648,2.992,6.648,6.647C22.702,27.195,19.71,30.188,16.054,30.188z"/>
</g>
</svg>
