<?xml version="1.0" encoding="utf-8"?>
<!-- Generator: Adobe Illustrator 16.0.0, SVG Export Plug-In . SVG Version: 6.00 Build 0)  -->
<!DOCTYPE svg PUBLIC "-//W3C//DTD SVG 1.1//EN" "http://www.w3.org/Graphics/SVG/1.1/DTD/svg11.dtd">
<svg version="1.1" id="Layer_1" xmlns="http://www.w3.org/2000/svg" xmlns:xlink="http://www.w3.org/1999/xlink" x="0px" y="0px"
	 width="30px" height="35px" viewBox="0 0 30 35" enable-background="new 0 0 30 35" xml:space="preserve">
<g>
	<g>
		<g>
			<path d="M29.47,28.888l-5.011-8.803c0.509-0.237,0.813-0.778,0.779-1.388l-0.373-3.115l2.134-2.235
				c0.474-0.474,0.507-1.287,0.033-1.862l-2.134-2.302l0.44-3.149c0.067-0.677-0.405-1.354-1.083-1.49l-3.081-0.609l-1.489-2.743
				c-0.306-0.644-1.05-0.914-1.727-0.644h-0.034L15.081,1.87l-2.776-1.354C12,0.346,11.627,0.312,11.288,0.414
				c-0.338,0.102-0.609,0.338-0.778,0.644L8.986,3.799L5.905,4.341C5.194,4.477,4.72,5.12,4.788,5.865L5.16,8.98l-2.133,2.234
				c-0.474,0.474-0.507,1.287-0.034,1.862l2.133,2.302l-0.439,3.148c-0.068,0.609,0.304,1.186,0.88,1.423l-5.045,8.938
				c-0.135,0.203-0.101,0.474,0,0.677c0.136,0.204,0.339,0.34,0.576,0.34h5.417l2.471,4.299c0.136,0.203,0.338,0.339,0.576,0.339
				c0.237,0,0.474-0.136,0.575-0.339l4.842-8.261l4.841,8.363c0.136,0.203,0.339,0.338,0.576,0.338c0.236,0,0.474-0.135,0.574-0.338
				l2.473-4.401h5.417c0.238,0,0.474-0.136,0.576-0.34C29.605,29.361,29.605,29.091,29.47,28.888z M9.596,32.511l-2.099-3.623
				c-0.135-0.203-0.339-0.339-0.576-0.339H2.248l4.672-8.261l1.93,0.339l1.49,2.742c0.304,0.644,1.049,0.914,1.726,0.644h0.034
				l1.388-0.644l0.677,1.185L9.596,32.511z M11.56,22.794c-0.034,0-0.034,0-0.034,0l-1.49-2.811
				c-0.203-0.339-0.542-0.609-0.948-0.644l-3.115-0.575l0.44-3.115c0.068-0.406-0.068-0.846-0.339-1.117L3.975,12.23l2.133-2.234
				c0.305-0.305,0.44-0.711,0.373-1.117L6.108,5.797c0,0,0-0.034,0.034-0.068l3.081-0.542C9.596,5.12,9.968,4.883,10.171,4.51
				l1.524-2.743l2.776,1.355c0.373,0.203,0.846,0.203,1.219,0l2.81-1.287c0.033,0,0.033,0,0.033,0l1.49,2.81
				c0.203,0.338,0.542,0.609,0.915,0.643l3.081,0.61l-0.44,3.115c-0.068,0.406,0.067,0.846,0.338,1.117l2.133,2.302l-2.166,2.234
				c-0.305,0.305-0.44,0.711-0.373,1.117l0.373,3.116l-3.048,0.507c-0.372,0.067-0.744,0.306-0.947,0.678l-1.523,2.742l-2.777-1.354
				c-0.373-0.202-0.847-0.202-1.219,0L11.56,22.794z M23.071,28.549c-0.237,0-0.475,0.136-0.576,0.339l-2.099,3.725l-4.774-8.261
				c-0.034-0.103-0.068-0.17-0.136-0.238l-0.745-1.319l0.237-0.102l2.776,1.354c0.204,0.103,0.407,0.136,0.61,0.136
				c0.474,0,0.947-0.236,1.185-0.677l1.523-2.743l2.031-0.372l4.639,8.159H23.071z"/>
			<path d="M21.75,12.298c0-3.725-3.047-6.772-6.771-6.772c-3.725,0-6.772,3.047-6.772,6.772s3.047,6.771,6.772,6.771
				C18.703,19.069,21.75,16.022,21.75,12.298z M14.979,17.715c-2.979,0-5.417-2.438-5.417-5.417S12,6.881,14.979,6.881
				c2.98,0,5.417,2.438,5.417,5.417S17.959,17.715,14.979,17.715z"/>
		</g>
	</g>
</g>
</svg>
