<?xml version="1.0" encoding="utf-8"?>
<!-- Generator: Adobe Illustrator 16.0.0, SVG Export Plug-In . SVG Version: 6.00 Build 0)  -->
<!DOCTYPE svg PUBLIC "-//W3C//DTD SVG 1.1//EN" "http://www.w3.org/Graphics/SVG/1.1/DTD/svg11.dtd">
<svg version="1.1" id="Layer_1" xmlns="http://www.w3.org/2000/svg" xmlns:xlink="http://www.w3.org/1999/xlink" x="0px" y="0px"
	 width="32px" height="36px" viewBox="0 0 32 36" enable-background="new 0 0 32 36" xml:space="preserve">
<g>
	<circle fill="#FF4B4E" cx="2.154" cy="25.089" r="1.045"/>
	<circle fill="#FFCA54" cx="6.991" cy="12.968" r="1.045"/>
	<circle fill="#00CDB3" cx="21.317" cy="10.451" r="1.045"/>
	<g>
		<circle fill="#57BAE5" cx="30.157" cy="25.089" r="1.045"/>
		<circle fill="#57BAE5" cx="11.13" cy="5.163" r="1.045"/>
	</g>
	<path fill="#FFCA54" d="M29.06,17.871c-0.518-0.075-8.373-1.217-8.855-1.287l-3.96-8.024c-0.363-0.736-1.417-0.737-1.78,0
		l-3.96,8.024l-8.855,1.287c-0.374,0.054-0.684,0.316-0.801,0.675c-0.117,0.359-0.02,0.754,0.251,1.018l6.408,6.246L5.993,34.63
		c-0.139,0.81,0.713,1.429,1.44,1.047l7.921-4.164c8.618,4.53,8.036,4.277,8.382,4.277c0.611,0,1.084-0.551,0.979-1.16l-1.512-8.819
		l6.406-6.246C30.196,18.991,29.872,17.989,29.06,17.871z"/>
	<path fill="#F99830" d="M5.802,10.059c-0.6-0.115-1.642-0.866-1.287-2.885c0.129-0.737-0.03-0.798-0.897-0.995
		C2.77,5.986,1.489,5.696,1.396,3.903C1.38,3.588,1.622,3.321,1.936,3.305c0.315-0.017,0.582,0.226,0.598,0.54
		C2.58,4.736,3,4.871,3.87,5.068c0.781,0.178,2.088,0.475,1.768,2.303C5.394,8.757,6.01,8.939,6.016,8.94
		c0.309,0.059,0.511,0.357,0.452,0.667S6.11,10.118,5.802,10.059z"/>
	<circle fill="#57BAE5" cx="2.5" cy="11.496" r="0.74"/>
	<circle fill="#00CDB3" cx="26.948" cy="26.568" r="0.74"/>
	<circle fill="#FFCA54" cx="3.159" cy="31.164" r="0.74"/>
	<g>
		<path fill="#FF4B4E" d="M24.897,10.542c-0.225-0.219-0.23-0.58-0.012-0.806l0.793-0.814c0.219-0.226,0.578-0.23,0.805-0.011
			c0.225,0.219,0.23,0.58,0.012,0.805l-0.791,0.814C25.483,10.756,25.124,10.76,24.897,10.542z"/>
		<path fill="#FF4B4E" d="M9.5,10.229L8.448,9.803c-0.292-0.118-0.433-0.45-0.314-0.741c0.118-0.292,0.45-0.433,0.741-0.315
			l1.053,0.426c0.292,0.118,0.432,0.45,0.314,0.742C10.124,10.205,9.792,10.347,9.5,10.229z"/>
	</g>
	<path fill="#00CDB3" d="M4.301,28.932l-1.052-0.426c-0.292-0.118-0.433-0.45-0.315-0.741c0.118-0.292,0.45-0.433,0.742-0.315
		l1.053,0.426c0.292,0.118,0.432,0.45,0.314,0.742C4.924,28.91,4.591,29.049,4.301,28.932z"/>
	<path fill="#57BAE5" d="M28.321,30.877l-1.053-0.426c-0.291-0.118-0.432-0.45-0.314-0.741c0.119-0.292,0.451-0.433,0.742-0.314
		l1.053,0.425c0.291,0.118,0.432,0.45,0.314,0.742C28.946,30.852,28.616,30.995,28.321,30.877z"/>
	<g>
		<path fill="#F99830" d="M21.558,0.678c-0.055-0.31-0.35-0.516-0.66-0.462c-0.311,0.055-0.518,0.35-0.461,0.66
			c0.154,0.879-0.225,1.104-1.027,1.492c-0.723,0.348-1.93,0.93-1.207,2.64c0.551,1.301-0.018,1.614-0.018,1.614
			c-0.158,0.106-0.663,0.293-0.448,0.806c0.372,0.886,2.679-0.11,1.517-2.863c-0.293-0.689-0.15-0.784,0.65-1.171
			C20.687,3.017,21.87,2.446,21.558,0.678z"/>
		<path fill="#F99830" d="M30.235,8.978c-0.258-0.18-0.613-0.117-0.793,0.142c-0.418,0.598-0.498,1.309-0.57,1.936
			c-0.123,1.081-0.168,1.486-1.299,1.414c-1.244-0.08-2.174,0.188-2.764,0.792c-0.727,0.746-0.701,1.773-0.016,1.785
			c0.568,0.009,0.607-0.598,0.607-0.598s0.119-0.968,2.1-0.842c3.121,0.199,2.123-2.756,2.875-3.835
			C30.556,9.513,30.493,9.158,30.235,8.978z"/>
		<path fill="#F99830" d="M13.019,15.439l3.31-6.707L16.244,8.56c-0.363-0.736-1.417-0.736-1.78,0l-3.96,8.025l1.34-0.238
			C11.938,16.329,12.658,16.171,13.019,15.439z"/>
		<path fill="#F99830" d="M8.131,34.251l1.347-7.854c0.159-0.926-0.404-1.521-0.406-1.523l-5.836-5.688
			c-0.471-0.459-0.374-1.247,0.203-1.574l-1.791,0.26c-0.374,0.054-0.684,0.316-0.801,0.675c-0.117,0.359-0.019,0.754,0.251,1.018
			l6.408,6.246L5.993,34.63c-0.139,0.809,0.713,1.429,1.44,1.047l1.005-0.528C8.191,34.922,8.073,34.585,8.131,34.251z"/>
	</g>
</g>
</svg>
