<?xml version="1.0" encoding="utf-8"?>
<!-- Generator: Adobe Illustrator 16.0.0, SVG Export Plug-In . SVG Version: 6.00 Build 0)  -->
<!DOCTYPE svg PUBLIC "-//W3C//DTD SVG 1.1//EN" "http://www.w3.org/Graphics/SVG/1.1/DTD/svg11.dtd">
<svg version="1.1" id="Layer_1" xmlns="http://www.w3.org/2000/svg" xmlns:xlink="http://www.w3.org/1999/xlink" x="0px" y="0px"
	 width="30px" height="34px" viewBox="0 0 30 34" enable-background="new 0 0 30 34" xml:space="preserve">
<g>
	<polygon fill="#E02E00" points="14.229,19.952 8.544,33.677 7.186,31.211 10.949,17.57 	"/>
	<polygon fill="#FF4719" points="7.723,15.009 1.244,30.653 6.103,29.244 7.186,31.211 12.418,18.576 	"/>
	<polygon fill="#C20035" points="15.771,19.952 21.456,33.677 22.814,31.211 19.051,17.57 	"/>
	<polygon fill="#FF0F47" points="22.276,15.009 17.582,18.576 22.814,31.211 23.896,29.244 28.757,30.653 	"/>
	<path fill="#E89330" d="M15,0.323l-3.666,10.528L15,21.38c5.814,0,10.528-4.714,10.528-10.528C25.528,5.037,20.814,0.323,15,0.323z
		"/>
	<path fill="#FFBE35" d="M4.472,10.852C4.472,16.666,9.186,21.38,15,21.38V0.323C9.186,0.323,4.472,5.037,4.472,10.852z"/>
	<path fill="#FFDB8A" d="M15,2.522v16.658c4.592,0,8.329-3.737,8.329-8.329C23.329,6.259,19.592,2.522,15,2.522z"/>
	<path fill="#FFEAB5" d="M15,2.522c-4.593,0-8.329,3.736-8.329,8.329c0,4.592,3.736,8.329,8.329,8.329
		c3.784,0,6.862-3.737,6.862-8.329C21.862,6.259,18.784,2.522,15,2.522z"/>
	<polygon fill="#E89330" points="15,4.721 16.86,8.291 20.83,8.957 18.01,11.829 18.604,15.81 15,14.016 11.397,15.81 11.99,11.829 
		9.17,8.957 13.14,8.291 	"/>
</g>
</svg>
