<?xml version="1.0" encoding="utf-8"?>
<!-- Generator: Adobe Illustrator 16.0.0, SVG Export Plug-In . SVG Version: 6.00 Build 0)  -->
<!DOCTYPE svg PUBLIC "-//W3C//DTD SVG 1.1//EN" "http://www.w3.org/Graphics/SVG/1.1/DTD/svg11.dtd">
<svg version="1.1" id="Layer_1" xmlns="http://www.w3.org/2000/svg" xmlns:xlink="http://www.w3.org/1999/xlink" x="0px" y="0px"
	 width="12px" height="11px" viewBox="0 0 12 11" enable-background="new 0 0 12 11" xml:space="preserve">
<g opacity="0.7">
	<g>
		<g>
			<path fill="#404141" d="M11.057,0H7.686C7.439,0,7.24,0.199,7.24,0.444c0,0.245,0.199,0.444,0.445,0.444h2.926v2.926
				c0,0.245,0.199,0.444,0.443,0.444c0.243,0,0.443-0.198,0.443-0.443V0.444C11.5,0.199,11.301,0,11.057,0z"/>
		</g>
	</g>
	<g>
		<g>
			<path fill="#404141" d="M4.315,10.111H1.389V7.186c0-0.246-0.199-0.442-0.444-0.442C0.7,6.741,0.5,6.939,0.5,7.186v3.371
				C0.5,10.801,0.699,11,0.944,11h3.371c0.245,0,0.444-0.199,0.444-0.443C4.759,10.311,4.56,10.111,4.315,10.111z"/>
		</g>
	</g>
	<g>
		<g>
			<path fill="#404141" d="M11.37,0.13c-0.175-0.174-0.455-0.174-0.628,0L6.809,4.063c-0.173,0.173-0.173,0.455,0,0.628
				c0.088,0.086,0.201,0.13,0.314,0.13s0.229-0.043,0.314-0.13l3.933-3.932C11.543,0.585,11.543,0.304,11.37,0.13z"/>
		</g>
	</g>
	<g>
		<g>
			<path fill="#404141" d="M5.191,6.309c-0.174-0.173-0.455-0.173-0.628,0L0.63,10.241c-0.174,0.174-0.174,0.454,0,0.628
				C0.717,10.957,0.831,11,0.944,11c0.113,0,0.228-0.043,0.314-0.131L5.19,6.938C5.364,6.764,5.364,6.482,5.191,6.309z"/>
		</g>
	</g>
</g>
</svg>
