<?xml version="1.0" encoding="utf-8"?>
<!-- Generator: Adobe Illustrator 16.0.0, SVG Export Plug-In . SVG Version: 6.00 Build 0)  -->
<!DOCTYPE svg PUBLIC "-//W3C//DTD SVG 1.1//EN" "http://www.w3.org/Graphics/SVG/1.1/DTD/svg11.dtd">
<svg version="1.1" id="Layer_1" xmlns="http://www.w3.org/2000/svg" xmlns:xlink="http://www.w3.org/1999/xlink" x="0px" y="0px"
	 width="23px" height="19px" viewBox="0 0 23 19" enable-background="new 0 0 23 19" xml:space="preserve">
<g opacity="0.7">
	<path d="M21.099,8.292h-0.515v-3.09c0-1.264-1.028-2.288-2.287-2.288h-0.475l0.005-1.148c0-0.852-0.691-1.543-1.544-1.543H2.567
		c-1.024,0-1.862,0.825-1.875,1.849c0,0.01,0,0.019,0,0.027v15.136c0,0.852,0.692,1.543,1.543,1.543h16.067
		c1.263,0,2.287-1.029,2.287-2.287v-3.095h0.515c0.664,0,1.205-0.541,1.205-1.207v-2.69C22.304,8.833,21.764,8.292,21.099,8.292z
		 M2.567,1.287h13.716c0.263,0,0.479,0.213,0.479,0.474l-0.005,1.153H2.567c-0.448,0-0.812-0.363-0.812-0.812
		C1.755,1.655,2.119,1.287,2.567,1.287z M19.521,16.485c0,0.674-0.55,1.223-1.224,1.223H2.23c-0.262,0-0.479-0.212-0.479-0.478
		V3.792C2,3.912,2.273,3.979,2.567,3.979h15.73c0.674,0,1.224,0.549,1.224,1.224v3.09h-3.632c-0.664,0-1.206,0.541-1.206,1.206v2.69
		c0,0.666,0.542,1.207,1.206,1.207h3.632V16.485L19.521,16.485z M21.241,12.188c0,0.081-0.063,0.143-0.143,0.143h-5.205
		c-0.08,0-0.142-0.062-0.142-0.143v-2.69c0-0.074,0.062-0.142,0.142-0.142h5.205c0.075,0,0.143,0.062,0.143,0.142V12.188
		L21.241,12.188z"/>
</g>
</svg>
