<?xml version="1.0" standalone="no"?>
<!DOCTYPE svg PUBLIC "-//W3C//DTD SVG 20010904//EN"
 "http://www.w3.org/TR/2001/REC-SVG-20010904/DTD/svg10.dtd">
<svg version="1.0" xmlns="http://www.w3.org/2000/svg"
 width="300.000000pt" height="300.000000pt" viewBox="0 0 300.000000 300.000000"
 preserveAspectRatio="xMidYMid meet">
<metadata>
Created by potrace 1.11, written by Peter Selinger 2001-2013
</metadata>
<g transform="translate(0.000000,300.000000) scale(0.100000,-0.100000)"
fill="#000000" stroke="none">
<path d="M323 2989 c-114 -21 -233 -116 -287 -229 l-31 -65 -3 -1160 c-3
-1286 -6 -1214 63 -1320 57 -88 127 -140 224 -169 57 -17 310 -24 312 -8 0 4
1 422 2 930 l2 923 25 15 c14 7 66 37 115 65 50 28 108 62 130 74 22 13 101
58 175 100 74 43 155 89 180 103 25 14 95 54 157 89 108 62 113 64 140 50 20
-11 672 -382 853 -486 13 -7 15 -124 18 -941 l2 -932 148 4 c123 3 156 8 205
27 81 32 168 114 209 199 l33 67 2 1171 c3 1139 2 1172 -17 1228 -37 110 -128
204 -238 248 l-57 22 -1160 1 c-638 1 -1179 -2 -1202 -6z"/>
<path d="M1248 1807 l-248 -142 0 -778 c0 -554 3 -785 11 -800 30 -58 15 -57
492 -57 l439 0 29 29 c20 20 29 40 30 63 3 118 1 1539 -2 1542 -7 7 -480 277
-492 281 -7 2 -123 -60 -259 -138z"/>
</g>
</svg>
