<?xml version="1.0" encoding="utf-8"?>
<!-- Generator: Adobe Illustrator 19.0.0, SVG Export Plug-In . SVG Version: 6.00 Build 0)  -->
<svg version="1.1" id="Layer_1" xmlns="http://www.w3.org/2000/svg" xmlns:xlink="http://www.w3.org/1999/xlink" x="0px" y="0px"
	 viewBox="0 0 512 512" style="enable-background:new 0 0 512 512;" xml:space="preserve">

<path d="M469.8,41.9c-26.8-26.8-62.2-41.4-100-41.4C332,0.5,296.5,15.3,269.7,42l-14,14l-14.2-14.2
	C214.8,15.1,179.1,0.2,141.3,0.2c-37.7,0-73.2,14.7-99.9,41.4C14.6,68.4-0.1,103.9,0,141.7c0,37.8,14.8,73.2,41.6,100l203.5,203.5
	c2.8,2.8,6.6,4.3,10.3,4.3c3.7,0,7.5-1.4,10.3-4.2l203.9-203.2c26.8-26.8,41.5-62.3,41.5-100.1C511.2,104.2,496.6,68.7,469.8,41.9
	L469.8,41.9z M449,221.5L255.4,414.4L62.2,221.2c-21.2-21.2-32.9-49.4-32.9-79.4c0-30,11.6-58.2,32.8-79.3
	c21.1-21.1,49.3-32.8,79.2-32.8c30,0,58.3,11.7,79.5,32.9L245.3,87c5.7,5.7,15,5.7,20.7,0l24.3-24.3c21.2-21.2,49.5-32.9,79.4-32.9
	c29.9,0,58.1,11.7,79.3,32.8c21.2,21.2,32.8,49.4,32.8,79.4C482,172.1,470.3,200.2,449,221.5L449,221.5z M449,221.5"/>
</svg>
