<?xml version="1.0" encoding="utf-8"?>
<!-- Generator: Adobe Illustrator 19.0.0, SVG Export Plug-In . SVG Version: 6.00 Build 0)  -->
<svg version="1.1" id="Layer_1" xmlns="http://www.w3.org/2000/svg" xmlns:xlink="http://www.w3.org/1999/xlink" x="0px" y="0px"
	 viewBox="0 0 512 512" style="enable-background:new 0 0 512 512;" xml:space="preserve">
<style type="text/css">
	.st0{clip-path:url(#SVGID_2_);fill:#686868;}
</style>
<g>
	<g>
		<defs>
			<rect id="SVGID_1_" x="0" y="0.5" width="372.5" height="512"/>
		</defs>
		<clipPath id="SVGID_2_">
			<use xlink:href="#SVGID_1_"  style="overflow:visible;"/>
		</clipPath>
		<path class="st0" d="M285.4,0.5H31c-17.1,0-31,13.9-31,31V475c0,17.1,13.9,31,31,31h311.7c17.1,0,31-13.9,31-31V96.3L285.4,0.5z
			 M292.7,46.9l38.7,42h-38.7V46.9z M347.6,475c0,2.8-2.2,5-5,5H31c-2.7,0-4.9-2.2-4.9-5V31.5c0-2.7,2.2-4.9,4.9-4.9h235.7v75.4
			c0,7.2,5.9,13,13.1,13h67.9V475z M72,138.9H293c5.4,0,9.7,4.4,9.7,9.7c0,5.4-4.4,9.8-9.7,9.8H72c-5.4,0-9.8-4.4-9.8-9.8
			C62.2,143.3,66.6,138.9,72,138.9L72,138.9z M302.8,214.2c0,5.4-4.4,9.7-9.7,9.7H72c-5.4,0-9.8-4.4-9.8-9.7c0-5.4,4.4-9.8,9.8-9.8
			H293C298.4,204.5,302.8,208.9,302.8,214.2L302.8,214.2z M302.8,277.6c0,5.4-4.4,9.8-9.7,9.8H72c-5.4,0-9.8-4.4-9.8-9.8
			c0-5.4,4.4-9.8,9.8-9.8H293C298.4,267.9,302.8,272.2,302.8,277.6L302.8,277.6z M302.8,342.1c0,5.4-4.4,9.8-9.7,9.8H72
			c-5.4,0-9.8-4.4-9.8-9.8c0-5.4,4.4-9.7,9.8-9.7H293C298.4,332.3,302.8,336.7,302.8,342.1L302.8,342.1z M302.8,342.1"/>
	</g>
</g>
</svg>
