<?xml version="1.0" encoding="utf-8"?>
<!-- Generator: Adobe Illustrator 19.0.0, SVG Export Plug-In . SVG Version: 6.00 Build 0)  -->
<svg version="1.1" id="Layer_1" xmlns="http://www.w3.org/2000/svg" xmlns:xlink="http://www.w3.org/1999/xlink" x="0px" y="0px"
	 viewBox="-49 141 512 512" style="enable-background:new -49 141 512 512;" xml:space="preserve">

<path d="M327.8,480.4c-6.2-3.6-14.2-1.5-17.8,4.7c-30.5,52.8-87.6,88.2-152.8,88.2C60.1,573.3-19,494.2-19,397
	s79.1-176.3,176.3-176.3c65.2,0,122.3,35.5,152.8,88.2c3.6,6.2,11.5,8.3,17.8,4.7c6.2-3.6,8.3-11.5,4.7-17.8
	c-35.1-60.7-100.7-101.2-175.3-101.2C45.5,194.7-45,285.2-45,397c0,111.8,90.5,202.3,202.3,202.3c74.6,0,140.2-40.5,175.3-101.2
	C336.2,492,334.1,484,327.8,480.4z"/>
<path d="M367.5,461.5c0,4.4,2,8.7,5.9,11.8c7.3,5.8,18.4,5.3,24.9-1.3l57.3-57.6c9.9-9.9,9.9-24.9,0-34.8L398.3,322
	c-6.5-6.5-17.6-7.1-24.9-1.3c-7.3,5.8-7.9,15.8-1.4,22.4l37.9,38.1h-217c-9.7,0-17.6,7.1-17.6,15.8c0,8.7,7.9,15.8,17.6,15.8h217
	L372,450.9C369,453.9,367.5,457.7,367.5,461.5z"/>
</svg>
