<?xml version="1.0" encoding="utf-8"?>
<!-- Generator: Adobe Illustrator 19.0.0, SVG Export Plug-In . SVG Version: 6.00 Build 0)  -->
<svg version="1.1" id="Layer_1" xmlns="http://www.w3.org/2000/svg" xmlns:xlink="http://www.w3.org/1999/xlink" x="0px" y="0px"
	 viewBox="0 0 512 512" style="enable-background:new 0 0 512 512;" xml:space="preserve">
<g>
	<path  d="M256,0C114.8,0,0,114.8,0,256s114.8,256,256,256c141.2,0,256-114.8,256-256S397.2,0,256,0L256,0z M256,478.4
		c-122.6,0-222.4-99.8-222.4-222.4S133.4,33.6,256,33.6c122.6,0,222.4,99.8,222.4,222.4S378.6,478.4,256,478.4L256,478.4z
		 M256,478.4"/>
	<path d="M348.7,172.2l-132,132l-53.4-53.4c-6.6-6.5-17.2-6.6-23.7,0c-6.6,6.6-6.6,17.2,0,23.7l65.2,65.2
		c3.3,3.3,7.6,4.9,11.9,4.9c4.3,0,8.6-1.6,11.9-4.9c0,0,0,0,0,0l143.8-143.8c6.6-6.6,6.6-17.2,0-23.7
		C365.9,165.6,355.2,165.6,348.7,172.2L348.7,172.2z M348.7,172.2"/>
</g>
</svg>
